<svg xmlns="http://www.w3.org/2000/svg" width="900" height="900" viewBox="0 0 900 900" version="1.1"><path d="M 184.284 307.750 C 184.631 453.557, 185.095 477.461, 187.703 484 C 188.032 484.825, 188.391 486.625, 188.500 488 C 188.609 489.375, 188.958 491.175, 189.275 492 C 189.592 492.825, 190.143 495.750, 190.500 498.500 C 191.604 507.005, 196.063 529.118, 197.024 530.854 C 197.525 531.759, 199.063 537.132, 200.441 542.793 C 201.819 548.455, 203.586 554.530, 204.368 556.293 C 205.149 558.057, 207.240 563.775, 209.015 569 C 210.790 574.225, 212.599 578.950, 213.035 579.500 C 213.472 580.050, 214.950 583.425, 216.319 587 C 218.564 592.863, 225.430 606.786, 232.916 620.659 C 234.447 623.497, 237.793 628.995, 240.350 632.877 C 242.908 636.759, 245 640.155, 245 640.423 C 245 641.184, 251.847 650.698, 259 659.875 C 262.575 664.462, 265.950 668.963, 266.500 669.877 C 267.050 670.791, 268.962 672.929, 270.750 674.628 C 272.538 676.327, 274 678.049, 274 678.455 C 274 680.359, 301.602 707.918, 310.603 715 C 311.652 715.825, 316.995 720.100, 322.476 724.500 C 335.109 734.640, 345.071 742.060, 347 742.767 C 347.825 743.069, 350.525 744.754, 353 746.512 C 365.881 755.657, 394.679 770.782, 416.645 779.938 C 423.325 782.722, 429.233 785, 429.773 785 C 430.314 785, 432.498 785.760, 434.628 786.689 C 436.758 787.618, 438.725 788.437, 439 788.509 C 439.275 788.580, 441.506 789.213, 443.958 789.914 C 448.400 791.184, 454.549 790.795, 457.794 789.038 C 458.732 788.530, 463.775 786.692, 469 784.953 C 474.225 783.214, 479.063 781.333, 479.750 780.773 C 480.437 780.213, 481 780.029, 481 780.363 C 481 780.697, 482.462 780.079, 484.250 778.989 C 486.038 777.899, 488.031 777.006, 488.681 777.004 C 489.788 777, 508.077 768.204, 520.917 761.500 C 524.077 759.850, 529.652 756.587, 533.306 754.250 C 536.961 751.913, 540.412 750, 540.975 750 C 541.539 750, 542 749.633, 542 749.185 C 542 748.737, 543.462 747.662, 545.250 746.796 C 547.038 745.930, 552.392 742.360, 557.149 738.861 C 561.906 735.362, 566.812 731.825, 568.052 731 C 578.804 723.847, 603.536 701.677, 616.747 687.350 C 628.563 674.535, 642 658.421, 642 657.067 C 642 656.480, 642.398 656, 642.883 656 C 643.369 656, 644.032 655.212, 644.355 654.250 C 644.679 653.288, 648.329 647.775, 652.467 642 C 656.604 636.225, 659.992 631.143, 659.995 630.707 C 659.998 630.271, 661.688 627.294, 663.750 624.091 C 669.917 614.513, 683.436 586.614, 687.051 576 C 688.269 572.425, 689.612 569.050, 690.034 568.500 C 690.457 567.950, 692.228 562.775, 693.969 557 C 695.711 551.225, 697.541 545.600, 698.037 544.500 C 699.165 541.998, 702.463 528.608, 704.072 520 C 704.740 516.425, 705.705 512.964, 706.216 512.310 C 706.728 511.655, 707.012 510.305, 706.848 509.310 C 706.684 508.314, 706.848 507.025, 707.213 506.445 C 707.832 505.462, 709.392 495.085, 712.167 473.500 C 712.975 467.217, 713.501 417.939, 713.912 310.250 L 714.500 156 449.211 156 L 183.921 156 184.284 307.750 M 199.002 307.248 C 199.004 389.705, 199.407 449.890, 200.011 458 C 201.212 474.099, 203.780 494.708, 204.933 497.500 C 205.388 498.600, 206.780 505.125, 208.026 512 C 209.272 518.875, 210.984 526.750, 211.830 529.500 C 212.677 532.250, 213.427 534.725, 213.499 535 C 213.828 536.264, 216.492 545.234, 218.684 552.456 C 220.011 556.833, 221.466 560.883, 221.916 561.456 C 222.366 562.030, 223.716 565.425, 224.916 569 C 226.115 572.575, 228.146 577.750, 229.428 580.500 C 237.399 597.600, 242.721 608.224, 246.120 613.818 C 248.254 617.331, 250 620.508, 250 620.880 C 250 621.850, 266.657 645.897, 274.675 656.500 C 283.345 667.967, 318.423 703.186, 331.509 713.563 C 339.692 720.052, 364.455 737.495, 369.286 740.173 C 369.954 740.543, 374.325 743.037, 379 745.714 C 386.374 749.937, 402.416 758.008, 415.500 764.077 C 421.360 766.796, 432.634 770.995, 434.171 771.032 C 434.902 771.049, 436.347 771.705, 437.382 772.488 C 438.416 773.272, 441.735 774.426, 444.756 775.053 C 449.351 776.007, 451.251 775.915, 456.375 774.489 C 459.744 773.552, 462.950 772.440, 463.500 772.019 C 464.050 771.597, 467.425 770.238, 471 768.998 C 480.123 765.833, 497.797 757.740, 508.880 751.652 C 514.039 748.818, 520.339 745.363, 522.880 743.973 C 531.950 739.011, 553.672 724.115, 563.851 715.877 C 569.544 711.270, 575.707 706.497, 577.546 705.270 C 581.487 702.642, 609.376 675.009, 613 670.142 C 614.375 668.295, 617.769 664.020, 620.542 660.642 C 623.315 657.264, 627.788 651.575, 630.482 648 C 633.176 644.425, 636.645 639.839, 638.190 637.809 C 639.736 635.778, 641.001 633.753, 641.002 633.309 C 641.003 632.864, 643.082 629.350, 645.623 625.500 C 649.745 619.252, 652.914 613.650, 659.765 600.500 C 664.782 590.871, 669 581.975, 669 581.022 C 669 580.455, 670.159 577.630, 671.576 574.745 C 672.993 571.860, 675.502 565.450, 677.151 560.500 C 678.801 555.550, 680.415 550.825, 680.739 550 C 681.062 549.175, 681.405 548.275, 681.500 548 C 681.595 547.725, 681.958 546.825, 682.306 546 C 682.655 545.175, 684.324 539.100, 686.016 532.500 C 687.707 525.900, 689.338 519.600, 689.640 518.500 C 691.256 512.607, 693.987 496.890, 695.461 485 C 696.382 477.575, 697.539 470.150, 698.032 468.500 C 700.376 460.668, 701.097 415.637, 700.805 295.500 L 700.500 170.500 449.750 170.248 L 199 169.996 199.002 307.248 M 366.920 223.960 C 359.244 225.343, 346.036 233.244, 342.578 238.521 C 341.685 239.885, 340.488 241, 339.918 241 C 339.349 241, 337.222 242.330, 335.191 243.955 C 329.044 248.876, 324.502 250.224, 312.500 250.691 C 306.345 250.930, 300.885 250.696, 300.104 250.160 C 297.899 248.646, 299.456 246.442, 304.430 244.034 C 310.055 241.311, 315.582 234.782, 316.522 229.750 C 316.907 227.688, 316.900 226, 316.505 226 C 316.111 226, 314.148 227.298, 312.144 228.884 C 308.106 232.079, 297.160 237, 294.089 237 C 293.005 237, 291.871 237.399, 291.570 237.887 C 291.269 238.374, 289.487 239.061, 287.612 239.413 C 285.736 239.765, 283.651 240.716, 282.978 241.526 C 282.305 242.337, 281.242 243, 280.615 243 C 279.987 243, 279.030 243.825, 278.487 244.834 C 277.944 245.843, 276.398 248.768, 275.051 251.334 C 273.043 255.159, 272.107 256, 269.860 256 C 268.352 256, 266.856 255.575, 266.535 255.056 C 266.213 254.536, 259.680 254.116, 251.999 254.121 C 234.862 254.132, 232 255.110, 232 260.951 C 232 263.112, 232.648 265.293, 233.500 266 C 235.593 267.737, 235.405 268.262, 231.994 270.203 C 227.854 272.559, 228.245 274.456, 233.384 276.944 C 236.250 278.331, 239.887 281.647, 243.884 286.518 C 247.248 290.616, 250 294.347, 250 294.810 C 250 296.389, 254.493 299.701, 259.206 301.596 C 262.884 303.075, 263.846 303.927, 263.606 305.494 C 263.437 306.597, 263.653 308.175, 264.086 309 C 264.519 309.825, 266.095 315.632, 267.589 321.905 C 270.231 332.996, 276.896 347.718, 280.584 350.610 C 281.363 351.221, 282 352.145, 282 352.664 C 282 354.037, 288.375 360, 289.843 360 C 291.173 360, 290.490 366.543, 288.955 368.500 C 288.524 369.050, 287.220 375.800, 286.057 383.500 C 283.909 397.727, 282.531 403.503, 280.747 405.750 C 280.202 406.438, 279.999 407, 280.297 407 C 281.211 407, 273.964 421.246, 271.149 424.983 C 268.538 428.450, 266 432.587, 266 433.378 C 266 434.571, 274.717 437, 279.001 437 C 283.598 437, 284.007 436.798, 284.574 434.250 C 284.910 432.738, 285.397 430.600, 285.655 429.500 C 285.912 428.400, 288.996 421.650, 292.507 414.500 C 297.879 403.561, 304.837 388.835, 305.500 387 C 305.849 386.036, 309.202 378.456, 311.252 374 C 312.390 371.525, 313.362 369.050, 313.411 368.500 C 313.460 367.950, 318.900 366.987, 325.500 366.360 C 338.273 365.147, 343.881 364.192, 345.500 362.954 C 346.050 362.533, 349.200 361.414, 352.500 360.467 C 355.800 359.519, 360.525 357.727, 363 356.485 C 365.475 355.242, 369.431 353.648, 371.791 352.942 C 374.637 352.091, 375.911 351.211, 375.573 350.329 C 375.292 349.598, 375.207 349, 375.384 349 C 375.561 349, 382.440 356.131, 390.671 364.847 C 403.514 378.448, 405.607 381.110, 405.433 383.625 C 405.145 387.789, 399.051 410.233, 397.800 411.741 C 397.225 412.434, 397.046 413, 397.401 413 C 397.756 413, 397.411 414.012, 396.635 415.250 C 395.858 416.488, 394.675 419.227, 394.005 421.338 C 393.335 423.449, 390.559 428.119, 387.836 431.717 C 385.113 435.314, 383.124 438.882, 383.417 439.644 C 384.189 441.657, 388.423 443, 394 443 C 401.570 443, 403.688 441.803, 404.487 437.077 C 404.863 434.850, 405.171 432.685, 405.170 432.264 C 405.170 431.844, 405.530 431.050, 405.970 430.500 C 406.409 429.950, 407.098 427.925, 407.499 426 C 408.332 422.009, 411.443 414.293, 417.174 402 C 421.369 393.004, 421.371 393, 425.692 386 C 429.310 380.138, 429.348 374.587, 425.827 366 C 423.193 359.573, 421.890 355.971, 421.850 355 C 421.839 354.725, 421.412 353.997, 420.902 353.382 C 420.205 352.543, 418.276 338.102, 418.026 331.856 C 418.012 331.502, 419.778 331.612, 421.951 332.100 C 424.407 332.652, 426.891 332.612, 428.518 331.993 L 431.135 330.998 429.046 328.065 C 427.898 326.452, 426.279 323.209, 425.450 320.859 C 420.676 307.326, 408.298 296.236, 394.738 293.343 C 383.950 291.041, 354.927 292.801, 350.500 296.026 C 347.206 298.426, 334.711 300.489, 323.500 300.484 C 310.998 300.479, 308.473 299.813, 302.095 294.843 C 299.477 292.803, 295 287.100, 295 285.806 C 295 285.363, 296.739 285, 298.865 285 C 302.888 285, 308.521 281.652, 307.440 279.904 C 307.122 279.389, 306.505 279.188, 306.068 279.458 C 305.631 279.728, 303.525 278.356, 301.387 276.409 L 297.500 272.870 303 273.463 C 320.540 275.353, 332.971 276.063, 344.489 275.833 C 357.009 275.583, 357.518 275.654, 358.578 277.780 C 360.321 281.277, 362.927 283.755, 366.959 285.750 C 371.937 288.213, 373.553 287.603, 371.160 284.164 C 369.131 281.249, 366.741 274.926, 367.413 274.254 C 367.645 274.022, 369.625 273.592, 371.814 273.298 C 376.736 272.638, 380.425 274.656, 384.240 280.094 C 385.748 282.242, 387.623 284, 388.407 284 C 389.192 284, 390.012 284.537, 390.231 285.194 C 390.687 286.562, 401.354 286.975, 402.656 285.675 C 403.111 285.221, 402.587 284.371, 401.492 283.786 C 400.396 283.201, 397.065 280.245, 394.089 277.216 C 388.928 271.964, 388.766 271.642, 390.589 270.262 C 392.937 268.484, 404.415 269.152, 410.500 271.421 C 412.700 272.241, 415.372 272.932, 416.437 272.956 C 418.129 272.994, 418.006 272.616, 415.461 269.959 C 413.858 268.286, 410.512 265.699, 408.024 264.209 C 403.630 261.578, 403.075 261.502, 388.751 261.580 C 380.465 261.626, 373.016 262.132, 371.751 262.737 C 370.513 263.329, 364.828 264.587, 359.119 265.533 C 347.664 267.432, 336.427 267.043, 326.264 264.397 C 319.989 262.764, 317.161 261, 320.818 261 C 324.330 261, 337.803 257.140, 342.354 254.830 C 344.634 253.673, 348.482 251.368, 350.905 249.708 C 354.882 246.984, 355.983 246.712, 362.220 246.914 C 366.019 247.038, 369.662 246.740, 370.314 246.254 C 370.966 245.768, 375.822 244.547, 381.104 243.543 L 390.707 241.716 395.604 244.353 C 403.946 248.848, 417.032 251.634, 419.272 249.394 C 419.606 249.061, 416.997 247.287, 413.476 245.451 C 405.541 241.315, 400.862 237.913, 401.301 236.598 C 401.873 234.882, 411.239 232.978, 415.859 233.637 C 420.092 234.242, 420.196 234.191, 419.486 231.880 C 418.363 228.222, 417.326 227.351, 412.481 225.995 C 406.522 224.326, 397.752 225.992, 389 230.454 C 385.425 232.276, 379.961 234.331, 376.857 235.019 C 371.254 236.261, 366 235.795, 366 234.054 C 366 232.484, 376.307 227.239, 380.846 226.500 C 383.236 226.110, 384.811 225.419, 384.346 224.964 C 383.031 223.679, 372.010 223.044, 366.920 223.960 M 606 224.008 C 598.318 225.329, 590.838 229.430, 582 237.167 C 571.596 246.275, 568.019 248.464, 561.201 249.891 C 555.379 251.109, 544.032 251.356, 539.109 250.372 C 535.219 249.594, 536.059 248.303, 543.589 243.486 C 549.919 239.437, 554.425 233.704, 555.562 228.254 C 556.074 225.798, 553.904 225.903, 550.837 228.484 C 546.807 231.874, 539.449 235.569, 535 236.435 C 533.075 236.810, 530.600 237.505, 529.500 237.980 C 528.400 238.456, 526.271 239.111, 524.769 239.436 C 521.059 240.241, 515.732 245.782, 512.861 251.823 L 510.490 256.811 506.495 255.390 C 501.276 253.535, 477.936 253.726, 473.250 255.663 C 470.398 256.841, 470 257.466, 470 260.762 C 470 263.436, 470.577 264.879, 472 265.768 C 474.768 267.496, 474.508 268.547, 470.949 270.021 C 466.774 271.750, 467.310 274.918, 472.180 277.299 C 474.461 278.414, 478.719 282.652, 483.377 288.443 C 487.510 293.582, 492.154 298.654, 493.696 299.712 C 496.730 301.795, 503.472 304, 506.807 304 C 507.948 304, 509.202 304.518, 509.594 305.152 C 510.107 305.982, 509.144 306.149, 506.153 305.747 C 503.869 305.441, 502 305.570, 502 306.033 C 502 307.524, 505.029 320.432, 505.864 322.500 C 506.308 323.600, 507.912 328.325, 509.428 333 C 512.348 342.003, 518.861 352.037, 525.662 358.008 C 529.137 361.059, 529.196 361.235, 528.144 365.317 C 526.677 371.009, 525.221 379.286, 524.418 386.500 C 524.051 389.800, 523.482 392.950, 523.153 393.500 C 522.825 394.050, 522.454 394.950, 522.330 395.500 C 519.868 406.389, 514.975 417.396, 508.440 426.745 C 505.929 430.336, 504.241 433.587, 504.687 433.969 C 506.188 435.251, 513.696 437, 517.697 437 C 521.956 437, 523.168 435.661, 524.486 429.500 C 525.064 426.801, 527.605 421.196, 538.538 398.500 C 542.076 391.157, 547.241 379.854, 547.449 379 C 547.516 378.725, 548.058 377.600, 548.654 376.500 C 549.249 375.400, 550.262 372.869, 550.904 370.876 L 552.072 367.253 562.286 366.551 C 572.794 365.829, 579.995 364.645, 583.500 363.062 C 584.600 362.565, 589.017 360.990, 593.315 359.560 C 597.613 358.131, 602.113 356.345, 603.315 355.592 C 604.517 354.839, 607.188 353.688, 609.250 353.034 C 611.313 352.380, 613 351.205, 613 350.422 C 613 349.640, 613.352 349, 613.781 349 C 614.945 349, 626 360.392, 626 361.592 C 626 362.161, 627.345 363.915, 628.990 365.490 C 630.634 367.065, 631.725 368.608, 631.415 368.918 C 631.105 369.228, 627.371 365.693, 623.117 361.064 L 615.381 352.646 605.617 356.429 L 595.853 360.212 603.926 368.484 C 608.367 373.033, 612 377.119, 612 377.564 C 612 379.910, 607.542 393.748, 605.434 397.945 C 604.095 400.610, 603 403.283, 603 403.884 C 603 405.630, 591.606 427.338, 588.670 431.189 C 587.201 433.114, 586 434.968, 586 435.310 C 586 435.652, 588.260 436.231, 591.022 436.597 C 593.785 436.964, 596.286 437.654, 596.581 438.132 C 596.877 438.609, 598.195 439, 599.512 439 C 602.517 439, 607.099 436.969, 606.452 435.923 C 606.186 435.491, 606.425 434.856, 606.984 434.510 C 607.543 434.165, 608 432.575, 608 430.978 C 608 427.402, 611.442 417.987, 613.901 414.833 C 614.902 413.550, 617.231 409.575, 619.076 406 C 620.921 402.425, 624.584 395.979, 627.216 391.677 C 629.847 387.374, 632 383.436, 632 382.927 C 632 382.417, 632.360 382, 632.799 382 C 633.239 382, 634.181 380.387, 634.894 378.416 C 636.092 375.104, 636.012 374.636, 633.845 372.255 C 630.989 369.116, 633.041 370.178, 638.723 374.778 C 644.215 379.224, 644.817 382.424, 642.088 392.647 C 639.858 400.997, 639.659 401.658, 638.666 404 C 638.316 404.825, 636.901 408.991, 635.522 413.258 C 634.143 417.525, 631.887 422.804, 630.507 424.988 C 629.128 427.173, 628 429.260, 628 429.627 C 628 429.994, 626.441 432.197, 624.534 434.523 C 621.102 438.712, 621.088 438.770, 623.050 440.545 C 625.389 442.662, 633.929 443.606, 638.936 442.301 C 642.333 441.416, 642.392 441.305, 644.002 432.778 C 644.897 428.033, 646.125 423.554, 646.730 422.825 C 647.335 422.096, 647.929 421.050, 648.050 420.500 C 648.407 418.882, 650.027 414.866, 652.597 409.228 C 653.919 406.328, 655 403.492, 655 402.925 C 655 402.358, 657.432 397.682, 660.403 392.535 C 669.138 377.406, 669.080 377.803, 664.242 366.301 C 659.749 355.617, 658.438 350.386, 657.429 339.100 L 656.767 331.700 660.169 332.253 C 662.040 332.556, 664.805 332.569, 666.314 332.280 C 669.452 331.680, 669.298 330.057, 665.530 324 C 664.333 322.075, 662.486 318.308, 661.426 315.629 C 658.349 307.848, 652.413 302.040, 642.350 296.964 L 633.500 292.500 618 292.537 C 604.160 292.570, 592.619 293.908, 589.500 295.842 C 586.791 297.522, 574.466 300.015, 565.921 300.612 C 548.699 301.815, 537.455 297.028, 534.537 287.250 C 533.922 285.190, 534.191 285, 537.710 285 C 541.382 285, 546 282.808, 546 281.065 C 546 280.613, 544.694 279.702, 543.099 279.041 C 541.503 278.380, 539.141 276.688, 537.849 275.280 L 535.500 272.722 541.500 273.410 C 558.085 275.314, 569.697 276.033, 581.500 275.888 L 594.500 275.728 599.534 280.791 C 604.068 285.351, 609.226 288.107, 610.619 286.715 C 610.908 286.425, 609.981 284.346, 608.560 282.094 C 607.138 279.843, 606.261 278, 606.610 278 C 606.959 278, 606.676 277.314, 605.980 276.476 C 604.278 274.425, 604.870 274.040, 610.808 273.336 L 615.887 272.735 622.193 279.282 C 628.905 286.249, 632.690 287.886, 638.922 286.517 C 642.734 285.680, 642.851 284.499, 639.250 283.217 C 635.962 282.047, 629.404 275.652, 628.689 272.919 C 627.874 269.800, 631.347 268.652, 639.348 269.396 C 643.200 269.754, 646.835 270.446, 647.426 270.934 C 649.036 272.264, 656 273.372, 656 272.298 C 656 270.744, 650.750 266.347, 646 263.925 C 642.582 262.182, 639.336 261.532, 632.500 261.223 C 623.169 260.801, 618.090 261.387, 599.500 265.031 C 591.018 266.694, 586.496 267.054, 579.749 266.605 C 570.689 266.001, 558 263.320, 558 262.009 C 558 261.597, 560.813 260.707, 564.250 260.032 C 572.236 258.462, 578.826 256.232, 582 254.025 C 589.740 248.641, 594.074 247, 600.549 247 C 604.112 247, 607.809 246.578, 608.764 246.063 C 609.719 245.547, 614.571 244.384, 619.547 243.478 L 628.594 241.831 636.392 245.481 C 642.033 248.123, 646.100 249.292, 651.095 249.711 C 655.247 250.059, 658 249.907, 658 249.329 C 658 248.800, 655.573 247.362, 652.608 246.133 C 645.585 243.222, 639.037 237.645, 640.670 235.965 C 642.346 234.239, 649.783 233.046, 654.750 233.707 C 659.798 234.378, 660.106 233.396, 656.171 229.183 C 650.946 223.589, 640.799 224.071, 627.323 230.553 C 623.234 232.520, 617.534 234.623, 614.657 235.226 C 609.351 236.339, 604 235.735, 604 234.023 C 604 232.341, 612.458 228.077, 618.527 226.698 L 624.455 225.352 619.785 224.176 C 614.649 222.883, 612.689 222.859, 606 224.008 M 266 305 C 266 305.550, 267.125 306, 268.500 306 C 269.875 306, 271 305.550, 271 305 C 271 304.450, 269.875 304, 268.500 304 C 267.125 304, 266 304.450, 266 305 M 262.374 334.832 C 259.554 336.299, 256.629 338.007, 255.874 338.627 C 255.118 339.247, 251.720 341.188, 248.323 342.940 C 243.458 345.450, 241.713 347.002, 240.106 350.250 C 238.943 352.601, 238.422 354.831, 238.895 355.437 C 239.351 356.022, 240.027 357.850, 240.398 359.500 C 241.065 362.469, 244.160 371.171, 246.267 376 C 246.866 377.375, 247.427 378.725, 247.512 379 C 247.598 379.275, 248.230 380.850, 248.918 382.500 C 252.281 390.564, 253.999 395.701, 253.999 397.691 C 254 398.896, 254.450 400.160, 255 400.500 C 255.550 400.840, 256 402.477, 256 404.138 C 256 407.022, 256.147 407.127, 259.250 406.464 C 261.038 406.082, 263.175 405.281, 264 404.685 C 267.816 401.926, 271 398.492, 271 397.136 C 271 396.317, 269.395 393.315, 267.433 390.467 C 265.470 387.618, 263.738 384.660, 263.584 383.893 C 263.429 383.127, 263.030 381.825, 262.697 381 C 262.097 379.514, 259 361.922, 259 360 C 259 359.395, 263.309 359, 269.918 359 C 284.891 359, 284.900 358.993, 279.595 352.148 C 275.961 347.460, 272.064 341.176, 271.441 339 C 270.613 336.109, 268.668 332.017, 268.152 332.082 C 267.793 332.127, 265.193 333.364, 262.374 334.832 M 499.126 335.820 C 495.620 337.844, 490.220 340.878, 487.126 342.562 C 477.692 347.697, 475.482 352.896, 479.078 361.500 C 479.768 363.150, 480.408 364.725, 480.500 365 C 480.592 365.275, 481.241 366.850, 481.942 368.500 C 482.642 370.150, 484.285 374.595, 485.592 378.378 C 486.899 382.161, 488.480 385.874, 489.107 386.628 C 489.733 387.383, 489.939 388, 489.566 388 C 489.192 388, 489.571 388.977, 490.407 390.170 C 491.243 391.364, 492.481 395.639, 493.158 399.670 C 493.836 403.702, 494.865 406.990, 495.445 406.978 C 497.452 406.936, 505.509 402.867, 507.750 400.764 C 508.988 399.602, 510 398.035, 510 397.281 C 510 396.528, 508.048 393.061, 505.662 389.577 C 501.786 383.916, 501.186 382.244, 500.018 373.871 C 499.299 368.717, 498.411 364.050, 498.044 363.500 C 497.677 362.950, 497.405 361.825, 497.439 361 C 497.488 359.786, 499.724 359.405, 509.171 359 C 515.590 358.725, 521.140 358.200, 521.504 357.834 C 521.868 357.468, 519.938 354.318, 517.216 350.834 C 511.628 343.684, 509.555 339.959, 508.541 335.250 C 508.156 333.462, 507.314 332.031, 506.671 332.070 C 506.027 332.108, 502.632 333.795, 499.126 335.820 M 374 353.906 C 373.175 354.371, 369.575 355.759, 366 356.992 C 357.725 359.845, 356.954 360.585, 360.041 362.716 C 362.271 364.255, 364.885 366.832, 369.968 372.500 C 372.953 375.829, 374.306 379.094, 373.171 380.229 C 372.613 380.787, 372.396 381.870, 372.690 382.635 C 372.984 383.400, 372.789 384.582, 372.257 385.263 C 371.726 385.943, 370.036 390.100, 368.502 394.500 C 366.968 398.900, 364.479 404.750, 362.971 407.500 C 361.464 410.250, 359.965 413.658, 359.640 415.073 C 359.316 416.488, 357.928 419.301, 356.555 421.324 C 355.183 423.346, 352.698 427.448, 351.033 430.440 L 348.007 435.879 352.516 436.555 C 354.996 436.927, 357.271 437.629, 357.571 438.115 C 358.400 439.456, 364.267 439.113, 366.249 437.608 C 367.211 436.878, 368.440 433.955, 368.978 431.113 C 369.517 428.271, 370.514 424.946, 371.194 423.723 C 371.873 422.500, 372.466 421.275, 372.512 421 C 372.558 420.725, 373.585 418.925, 374.794 417 C 376.003 415.075, 376.994 413, 376.996 412.390 C 376.998 411.779, 378.193 409.529, 379.650 407.390 C 381.108 405.250, 383.708 400.800, 385.429 397.500 C 388.644 391.335, 392.422 385.075, 396.534 379.101 L 398.873 375.702 388.253 364.351 C 382.412 358.108, 377.153 353.014, 376.566 353.030 C 375.980 353.047, 374.825 353.441, 374 353.906 M 484.500 466.491 C 483.950 466.675, 482.322 467.083, 480.883 467.398 C 477.380 468.165, 468.850 474.078, 461.520 480.820 C 458.231 483.845, 452.606 487.711, 449.020 489.410 C 442.868 492.325, 441.827 492.500, 430.590 492.500 C 422.130 492.500, 418.560 492.148, 418.267 491.284 C 418.041 490.615, 420.285 488.514, 423.253 486.615 C 430.197 482.173, 434.727 476.973, 435.571 472.475 C 436.481 467.625, 435.654 467.222, 431.757 470.617 C 427.302 474.497, 423.165 476.437, 412.571 479.613 C 402.328 482.683, 396.572 487.087, 393.465 494.228 C 392.443 496.578, 391.519 498.639, 391.412 498.809 C 391.304 498.978, 389.538 498.416, 387.486 497.559 C 382.173 495.339, 358.612 495.349, 354.154 497.573 C 351.444 498.925, 351 499.682, 351 502.951 C 351 505.112, 351.648 507.293, 352.500 508 C 354.588 509.733, 354.386 510.503, 351.500 511.818 C 347.364 513.703, 348.177 517.282, 353.386 520.115 C 356.152 521.620, 360.674 526.007, 365.636 532 C 371.002 538.482, 374.914 542.213, 377.953 543.746 L 382.406 545.991 385.068 557.951 C 386.532 564.529, 388.466 571.462, 389.365 573.357 C 390.264 575.252, 391 577.480, 391 578.307 C 391 580.711, 400.813 594.573, 405.711 599.088 L 410.189 603.215 408.595 609.563 C 407.718 613.055, 407 616.981, 407 618.289 C 407 619.597, 406.688 620.978, 406.308 621.359 C 405.927 621.740, 405.483 623.052, 405.321 624.276 C 404.251 632.372, 402.627 640.329, 400.990 645.500 C 398.618 652.994, 391.998 665.876, 387.895 670.981 C 386.186 673.108, 385.053 675.277, 385.377 675.801 C 386.195 677.125, 394.082 679, 398.836 679 C 402.867 679, 404 677.905, 404 674.010 C 404 673.005, 407.150 665.864, 411 658.140 C 414.850 650.416, 418 643.876, 418 643.607 C 418 643.337, 420.475 637.909, 423.500 631.544 C 426.525 625.180, 428.992 619.641, 428.983 619.236 C 428.973 618.831, 429.986 616.431, 431.233 613.902 L 433.500 609.305 443.619 608.670 C 454.875 607.964, 462.800 606.508, 466.827 604.407 C 468.297 603.640, 470.033 603.010, 470.684 603.006 C 471.855 603, 480.690 599.470, 488.566 595.863 C 490.802 594.838, 493.150 594, 493.784 594 C 494.435 594, 494.686 593.238, 494.360 592.250 C 494.043 591.288, 496.797 593.650, 500.481 597.500 C 504.164 601.350, 511.246 608.694, 516.218 613.819 L 525.259 623.138 524.605 628.704 C 524.245 631.766, 523.631 634.772, 523.241 635.385 C 522.850 635.998, 522.485 636.725, 522.429 637 C 522.373 637.275, 522.075 638.175, 521.767 639 C 521.459 639.825, 519.791 645.121, 518.061 650.768 C 514.821 661.347, 510.098 670.541, 504.811 676.562 C 503.050 678.568, 502.030 680.637, 502.368 681.518 C 503.202 683.690, 507.343 685.002, 513.315 684.985 C 520.552 684.965, 523.247 683.364, 524.255 678.488 C 526.381 668.203, 528.551 661.046, 531.071 656 C 532.581 652.975, 535.025 647.603, 536.501 644.062 C 537.977 640.520, 540.268 636.028, 541.592 634.079 C 542.916 632.130, 544 630.147, 544 629.672 C 544 629.197, 544.931 627.502, 546.068 625.904 C 547.206 624.307, 547.791 623, 547.368 623 C 546.946 623, 547.140 622.460, 547.800 621.800 C 549.138 620.462, 549.407 616.740, 548.250 615.583 C 547.837 615.171, 547.481 614.533, 547.458 614.167 C 547.435 613.800, 546.617 612.001, 545.641 610.169 C 543.372 605.913, 540 595.393, 540 592.570 C 540 591.376, 539.607 589.973, 539.128 589.450 C 538.648 588.928, 537.966 585.194, 537.612 581.154 L 536.968 573.808 541.734 574.457 C 545.029 574.905, 547.060 574.693, 548.314 573.769 C 550.061 572.482, 550.057 572.342, 548.198 569.966 C 547.136 568.610, 545.165 564.764, 543.819 561.420 C 541.327 555.234, 533.724 544.667, 531 543.603 C 530.175 543.281, 527.264 541.619, 524.531 539.909 C 512.113 532.141, 489.061 532.167, 463.500 539.979 C 454.775 542.645, 439.470 543.665, 431.890 542.086 C 425.556 540.765, 418.701 536.255, 416.469 531.941 C 414.277 527.702, 414.621 527, 418.889 527 C 421.166 527, 423.714 526.242, 425.036 525.172 L 427.293 523.344 423.831 521.204 C 421.926 520.028, 419.498 518.085, 418.434 516.888 L 416.500 514.712 421.500 515.356 C 435.663 517.182, 448.899 518.032, 461.510 517.925 L 475.520 517.805 480.544 522.829 C 485.078 527.363, 490.233 530.101, 491.621 528.712 C 491.912 528.421, 491.035 526.455, 489.672 524.342 C 485.861 518.433, 485.516 516.362, 488.222 515.638 C 494.653 513.915, 497.072 514.785, 502.888 520.911 C 509.424 527.795, 511.492 529.006, 516.684 528.985 C 523.197 528.959, 523.478 527.726, 517.834 523.947 C 512.659 520.482, 507.817 513.850, 509.346 512.321 C 510.972 510.695, 523.430 511.597, 529.915 513.811 C 537.521 516.406, 537 516.350, 537 514.573 C 537 513.146, 530.278 507, 528.717 507 C 528.262 507, 525.777 506.037, 523.195 504.860 C 518.882 502.894, 517.450 502.773, 505.588 503.372 C 498.486 503.731, 492.186 504.413, 491.588 504.889 C 489.242 506.753, 466.964 509.292, 458.673 508.641 C 443.649 507.459, 435.314 504.069, 443.706 502.554 C 452.082 501.042, 460.447 497.808, 467.078 493.518 C 473.776 489.185, 474.370 489, 481.545 489 C 485.660 489, 489.809 488.590, 490.764 488.089 C 491.719 487.588, 496.141 486.406, 500.592 485.462 L 508.684 483.745 517.001 487.500 C 526.153 491.633, 538.728 493.687, 537.800 490.898 C 537.544 490.129, 536.479 489.334, 535.434 489.132 C 532.959 488.652, 524.012 482.870, 521.685 480.245 C 519.901 478.234, 519.934 478.177, 523.534 476.989 C 525.549 476.324, 530.078 475.963, 533.599 476.187 C 540.946 476.655, 541.480 475.893, 537.011 471.322 C 531.522 465.708, 521.662 466.292, 507.090 473.094 C 498.244 477.224, 490.174 478.808, 486.022 477.229 C 483.591 476.305, 483.639 476.228, 488.522 473.172 C 491.260 471.459, 495.880 469.519, 498.788 468.861 C 502.222 468.084, 503.624 467.378, 502.788 466.848 C 501.567 466.073, 486.626 465.782, 484.500 466.491 M 384.500 547 C 384.126 547.605, 385.509 548, 388 548 C 390.491 548, 391.874 547.605, 391.500 547 C 391.160 546.450, 389.585 546, 388 546 C 386.415 546, 384.840 546.450, 384.500 547 M 377.475 579.366 C 361.927 588.211, 361.040 588.849, 359.348 592.396 C 357.807 595.628, 357.812 596.271, 359.427 602.023 C 360.378 605.414, 362.246 610.238, 363.578 612.743 C 364.910 615.248, 366 617.892, 366 618.617 C 366 619.343, 367.780 624.113, 369.955 629.218 C 372.130 634.323, 374.213 640.862, 374.584 643.750 C 375.052 647.397, 375.707 649, 376.728 649 C 379.388 649, 384.626 645.981, 387.994 642.506 L 391.306 639.089 388.403 635.303 C 384.569 630.301, 382.307 625.153, 381.366 619.292 C 380.494 613.854, 380.531 614.019, 379.738 612 C 379.414 611.175, 378.863 608.362, 378.513 605.750 L 377.877 601 389.880 601 C 396.481 601, 402.123 600.610, 402.417 600.134 C 402.712 599.657, 402.063 598.462, 400.976 597.479 C 399.889 596.495, 399 595.110, 399 594.402 C 399 593.693, 398.171 592.525, 397.158 591.807 C 396.145 591.088, 393.558 586.803, 391.408 582.285 C 389.259 577.767, 387.275 574.106, 387 574.151 C 386.725 574.195, 382.439 576.542, 377.475 579.366 M 487.500 598.147 C 483.100 599.809, 478.869 601.368, 478.099 601.611 C 477.179 601.901, 479.498 604.923, 484.849 610.405 C 489.332 614.998, 493 619.166, 493 619.668 C 493 621.415, 489.919 632.393, 489.135 633.443 C 488.700 634.024, 487.529 636.750, 486.533 639.500 C 483.893 646.791, 474.661 665.630, 470.607 672 L 467.108 677.500 469.804 678.279 C 471.287 678.708, 473.882 679.495, 475.571 680.029 C 483.312 682.476, 486.721 681.094, 487.574 675.161 C 488.321 669.963, 496.270 653.420, 504.559 639.816 C 507.551 634.903, 510 630.563, 510 630.171 C 510 629.778, 511.793 626.767, 513.984 623.479 L 517.968 617.500 514.673 614.500 C 512.861 612.850, 508.096 607.788, 504.083 603.250 C 500.071 598.712, 496.498 595.028, 496.144 595.063 C 495.790 595.097, 491.900 596.485, 487.500 598.147" stroke="none" fill="#f8f9f9" fill-rule="evenodd"/><path d="M -0 450.001 L -0 900.002 450.250 899.751 L 900.500 899.500 900.751 449.750 L 901.002 0 450.501 0 L 0 0 -0 450.001 M 0.496 450.500 C 0.496 698, 0.610 799.101, 0.750 675.168 C 0.890 551.236, 0.890 348.736, 0.750 225.168 C 0.610 101.601, 0.496 203, 0.496 450.500 M 184.284 307.750 C 184.631 453.557, 185.095 477.461, 187.703 484 C 188.032 484.825, 188.391 486.625, 188.500 488 C 188.609 489.375, 188.958 491.175, 189.275 492 C 189.592 492.825, 190.143 495.750, 190.500 498.500 C 191.604 507.005, 196.063 529.118, 197.024 530.854 C 197.525 531.759, 199.063 537.132, 200.441 542.793 C 201.819 548.455, 203.586 554.530, 204.368 556.293 C 205.149 558.057, 207.240 563.775, 209.015 569 C 210.790 574.225, 212.599 578.950, 213.035 579.500 C 213.472 580.050, 214.950 583.425, 216.319 587 C 218.564 592.863, 225.430 606.786, 232.916 620.659 C 234.447 623.497, 237.793 628.995, 240.350 632.877 C 242.908 636.759, 245 640.155, 245 640.423 C 245 641.184, 251.847 650.698, 259 659.875 C 262.575 664.462, 265.950 668.963, 266.500 669.877 C 267.050 670.791, 268.962 672.929, 270.750 674.628 C 272.538 676.327, 274 678.049, 274 678.455 C 274 680.359, 301.602 707.918, 310.603 715 C 311.652 715.825, 316.995 720.100, 322.476 724.500 C 335.109 734.640, 345.071 742.060, 347 742.767 C 347.825 743.069, 350.525 744.754, 353 746.512 C 365.881 755.657, 394.679 770.782, 416.645 779.938 C 423.325 782.722, 429.233 785, 429.773 785 C 430.314 785, 432.498 785.760, 434.628 786.689 C 436.758 787.618, 438.725 788.437, 439 788.509 C 439.275 788.580, 441.506 789.213, 443.958 789.914 C 448.400 791.184, 454.549 790.795, 457.794 789.038 C 458.732 788.530, 463.775 786.692, 469 784.953 C 474.225 783.214, 479.063 781.333, 479.750 780.773 C 480.437 780.213, 481 780.029, 481 780.363 C 481 780.697, 482.462 780.079, 484.250 778.989 C 486.038 777.899, 488.031 777.006, 488.681 777.004 C 489.788 777, 508.077 768.204, 520.917 761.500 C 524.077 759.850, 529.652 756.587, 533.306 754.250 C 536.961 751.913, 540.412 750, 540.975 750 C 541.539 750, 542 749.633, 542 749.185 C 542 748.737, 543.462 747.662, 545.250 746.796 C 547.038 745.930, 552.392 742.360, 557.149 738.861 C 561.906 735.362, 566.812 731.825, 568.052 731 C 578.804 723.847, 603.536 701.677, 616.747 687.350 C 628.563 674.535, 642 658.421, 642 657.067 C 642 656.480, 642.398 656, 642.883 656 C 643.369 656, 644.032 655.212, 644.355 654.250 C 644.679 653.288, 648.329 647.775, 652.467 642 C 656.604 636.225, 659.992 631.143, 659.995 630.707 C 659.998 630.271, 661.688 627.294, 663.750 624.091 C 669.917 614.513, 683.436 586.614, 687.051 576 C 688.269 572.425, 689.612 569.050, 690.034 568.500 C 690.457 567.950, 692.228 562.775, 693.969 557 C 695.711 551.225, 697.541 545.600, 698.037 544.500 C 699.165 541.998, 702.463 528.608, 704.072 520 C 704.740 516.425, 705.705 512.964, 706.216 512.310 C 706.728 511.655, 707.012 510.305, 706.848 509.310 C 706.684 508.314, 706.848 507.025, 707.213 506.445 C 707.832 505.462, 709.392 495.085, 712.167 473.500 C 712.975 467.217, 713.501 417.939, 713.912 310.250 L 714.500 156 449.211 156 L 183.921 156 184.284 307.750 M 199.002 307.248 C 199.004 389.705, 199.407 449.890, 200.011 458 C 201.212 474.099, 203.780 494.708, 204.933 497.500 C 205.388 498.600, 206.780 505.125, 208.026 512 C 209.272 518.875, 210.984 526.750, 211.830 529.500 C 212.677 532.250, 213.427 534.725, 213.499 535 C 213.828 536.264, 216.492 545.234, 218.684 552.456 C 220.011 556.833, 221.466 560.883, 221.916 561.456 C 222.366 562.030, 223.716 565.425, 224.916 569 C 226.115 572.575, 228.146 577.750, 229.428 580.500 C 237.399 597.600, 242.721 608.224, 246.120 613.818 C 248.254 617.331, 250 620.508, 250 620.880 C 250 621.850, 266.657 645.897, 274.675 656.500 C 283.345 667.967, 318.423 703.186, 331.509 713.563 C 339.692 720.052, 364.455 737.495, 369.286 740.173 C 369.954 740.543, 374.325 743.037, 379 745.714 C 386.374 749.937, 402.416 758.008, 415.500 764.077 C 421.360 766.796, 432.634 770.995, 434.171 771.032 C 434.902 771.049, 436.347 771.705, 437.382 772.488 C 438.416 773.272, 441.735 774.426, 444.756 775.053 C 449.351 776.007, 451.251 775.915, 456.375 774.489 C 459.744 773.552, 462.950 772.440, 463.500 772.019 C 464.050 771.597, 467.425 770.238, 471 768.998 C 480.123 765.833, 497.797 757.740, 508.880 751.652 C 514.039 748.818, 520.339 745.363, 522.880 743.973 C 531.950 739.011, 553.672 724.115, 563.851 715.877 C 569.544 711.270, 575.707 706.497, 577.546 705.270 C 581.487 702.642, 609.376 675.009, 613 670.142 C 614.375 668.295, 617.769 664.020, 620.542 660.642 C 623.315 657.264, 627.788 651.575, 630.482 648 C 633.176 644.425, 636.645 639.839, 638.190 637.809 C 639.736 635.778, 641.001 633.753, 641.002 633.309 C 641.003 632.864, 643.082 629.350, 645.623 625.500 C 649.745 619.252, 652.914 613.650, 659.765 600.500 C 664.782 590.871, 669 581.975, 669 581.022 C 669 580.455, 670.159 577.630, 671.576 574.745 C 672.993 571.860, 675.502 565.450, 677.151 560.500 C 678.801 555.550, 680.415 550.825, 680.739 550 C 681.062 549.175, 681.405 548.275, 681.500 548 C 681.595 547.725, 681.958 546.825, 682.306 546 C 682.655 545.175, 684.324 539.100, 686.016 532.500 C 687.707 525.900, 689.338 519.600, 689.640 518.500 C 691.256 512.607, 693.987 496.890, 695.461 485 C 696.382 477.575, 697.539 470.150, 698.032 468.500 C 700.376 460.668, 701.097 415.637, 700.805 295.500 L 700.500 170.500 449.750 170.248 L 199 169.996 199.002 307.248 M 366.920 223.960 C 359.244 225.343, 346.036 233.244, 342.578 238.521 C 341.685 239.885, 340.488 241, 339.918 241 C 339.349 241, 337.222 242.330, 335.191 243.955 C 329.044 248.876, 324.502 250.224, 312.500 250.691 C 306.345 250.930, 300.885 250.696, 300.104 250.160 C 297.899 248.646, 299.456 246.442, 304.430 244.034 C 310.055 241.311, 315.582 234.782, 316.522 229.750 C 316.907 227.688, 316.900 226, 316.505 226 C 316.111 226, 314.148 227.298, 312.144 228.884 C 308.106 232.079, 297.160 237, 294.089 237 C 293.005 237, 291.871 237.399, 291.570 237.887 C 291.269 238.374, 289.487 239.061, 287.612 239.413 C 285.736 239.765, 283.651 240.716, 282.978 241.526 C 282.305 242.337, 281.242 243, 280.615 243 C 279.987 243, 279.030 243.825, 278.487 244.834 C 277.944 245.843, 276.398 248.768, 275.051 251.334 C 273.043 255.159, 272.107 256, 269.860 256 C 268.352 256, 266.856 255.575, 266.535 255.056 C 266.213 254.536, 259.680 254.116, 251.999 254.121 C 234.862 254.132, 232 255.110, 232 260.951 C 232 263.112, 232.648 265.293, 233.500 266 C 235.593 267.737, 235.405 268.262, 231.994 270.203 C 227.854 272.559, 228.245 274.456, 233.384 276.944 C 236.250 278.331, 239.887 281.647, 243.884 286.518 C 247.248 290.616, 250 294.347, 250 294.810 C 250 296.389, 254.493 299.701, 259.206 301.596 C 262.884 303.075, 263.846 303.927, 263.606 305.494 C 263.437 306.597, 263.653 308.175, 264.086 309 C 264.519 309.825, 266.095 315.632, 267.589 321.905 C 270.231 332.996, 276.896 347.718, 280.584 350.610 C 281.363 351.221, 282 352.145, 282 352.664 C 282 354.037, 288.375 360, 289.843 360 C 291.173 360, 290.490 366.543, 288.955 368.500 C 288.524 369.050, 287.220 375.800, 286.057 383.500 C 283.909 397.727, 282.531 403.503, 280.747 405.750 C 280.202 406.438, 279.999 407, 280.297 407 C 281.211 407, 273.964 421.246, 271.149 424.983 C 268.538 428.450, 266 432.587, 266 433.378 C 266 434.571, 274.717 437, 279.001 437 C 283.598 437, 284.007 436.798, 284.574 434.250 C 284.910 432.738, 285.397 430.600, 285.655 429.500 C 285.912 428.400, 288.996 421.650, 292.507 414.500 C 297.879 403.561, 304.837 388.835, 305.500 387 C 305.849 386.036, 309.202 378.456, 311.252 374 C 312.390 371.525, 313.362 369.050, 313.411 368.500 C 313.460 367.950, 318.900 366.987, 325.500 366.360 C 338.273 365.147, 343.881 364.192, 345.500 362.954 C 346.050 362.533, 349.200 361.414, 352.500 360.467 C 355.800 359.519, 360.525 357.727, 363 356.485 C 365.475 355.242, 369.431 353.648, 371.791 352.942 C 374.637 352.091, 375.911 351.211, 375.573 350.329 C 375.292 349.598, 375.207 349, 375.384 349 C 375.561 349, 382.440 356.131, 390.671 364.847 C 403.514 378.448, 405.607 381.110, 405.433 383.625 C 405.145 387.789, 399.051 410.233, 397.800 411.741 C 397.225 412.434, 397.046 413, 397.401 413 C 397.756 413, 397.411 414.012, 396.635 415.250 C 395.858 416.488, 394.675 419.227, 394.005 421.338 C 393.335 423.449, 390.559 428.119, 387.836 431.717 C 385.113 435.314, 383.124 438.882, 383.417 439.644 C 384.189 441.657, 388.423 443, 394 443 C 401.570 443, 403.688 441.803, 404.487 437.077 C 404.863 434.850, 405.171 432.685, 405.170 432.264 C 405.170 431.844, 405.530 431.050, 405.970 430.500 C 406.409 429.950, 407.098 427.925, 407.499 426 C 408.332 422.009, 411.443 414.293, 417.174 402 C 421.369 393.004, 421.371 393, 425.692 386 C 429.310 380.138, 429.348 374.587, 425.827 366 C 423.193 359.573, 421.890 355.971, 421.850 355 C 421.839 354.725, 421.412 353.997, 420.902 353.382 C 420.205 352.543, 418.276 338.102, 418.026 331.856 C 418.012 331.502, 419.778 331.612, 421.951 332.100 C 424.407 332.652, 426.891 332.612, 428.518 331.993 L 431.135 330.998 429.046 328.065 C 427.898 326.452, 426.279 323.209, 425.450 320.859 C 420.676 307.326, 408.298 296.236, 394.738 293.343 C 383.950 291.041, 354.927 292.801, 350.500 296.026 C 347.206 298.426, 334.711 300.489, 323.500 300.484 C 310.998 300.479, 308.473 299.813, 302.095 294.843 C 299.477 292.803, 295 287.100, 295 285.806 C 295 285.363, 296.739 285, 298.865 285 C 302.888 285, 308.521 281.652, 307.440 279.904 C 307.122 279.389, 306.505 279.188, 306.068 279.458 C 305.631 279.728, 303.525 278.356, 301.387 276.409 L 297.500 272.870 303 273.463 C 320.540 275.353, 332.971 276.063, 344.489 275.833 C 357.009 275.583, 357.518 275.654, 358.578 277.780 C 360.321 281.277, 362.927 283.755, 366.959 285.750 C 371.937 288.213, 373.553 287.603, 371.160 284.164 C 369.131 281.249, 366.741 274.926, 367.413 274.254 C 367.645 274.022, 369.625 273.592, 371.814 273.298 C 376.736 272.638, 380.425 274.656, 384.240 280.094 C 385.748 282.242, 387.623 284, 388.407 284 C 389.192 284, 390.012 284.537, 390.231 285.194 C 390.687 286.562, 401.354 286.975, 402.656 285.675 C 403.111 285.221, 402.587 284.371, 401.492 283.786 C 400.396 283.201, 397.065 280.245, 394.089 277.216 C 388.928 271.964, 388.766 271.642, 390.589 270.262 C 392.937 268.484, 404.415 269.152, 410.500 271.421 C 412.700 272.241, 415.372 272.932, 416.437 272.956 C 418.129 272.994, 418.006 272.616, 415.461 269.959 C 413.858 268.286, 410.512 265.699, 408.024 264.209 C 403.630 261.578, 403.075 261.502, 388.751 261.580 C 380.465 261.626, 373.016 262.132, 371.751 262.737 C 370.513 263.329, 364.828 264.587, 359.119 265.533 C 347.664 267.432, 336.427 267.043, 326.264 264.397 C 319.989 262.764, 317.161 261, 320.818 261 C 324.330 261, 337.803 257.140, 342.354 254.830 C 344.634 253.673, 348.482 251.368, 350.905 249.708 C 354.882 246.984, 355.983 246.712, 362.220 246.914 C 366.019 247.038, 369.662 246.740, 370.314 246.254 C 370.966 245.768, 375.822 244.547, 381.104 243.543 L 390.707 241.716 395.604 244.353 C 403.946 248.848, 417.032 251.634, 419.272 249.394 C 419.606 249.061, 416.997 247.287, 413.476 245.451 C 405.541 241.315, 400.862 237.913, 401.301 236.598 C 401.873 234.882, 411.239 232.978, 415.859 233.637 C 420.092 234.242, 420.196 234.191, 419.486 231.880 C 418.363 228.222, 417.326 227.351, 412.481 225.995 C 406.522 224.326, 397.752 225.992, 389 230.454 C 385.425 232.276, 379.961 234.331, 376.857 235.019 C 371.254 236.261, 366 235.795, 366 234.054 C 366 232.484, 376.307 227.239, 380.846 226.500 C 383.236 226.110, 384.811 225.419, 384.346 224.964 C 383.031 223.679, 372.010 223.044, 366.920 223.960 M 606 224.008 C 598.318 225.329, 590.838 229.430, 582 237.167 C 571.596 246.275, 568.019 248.464, 561.201 249.891 C 555.379 251.109, 544.032 251.356, 539.109 250.372 C 535.219 249.594, 536.059 248.303, 543.589 243.486 C 549.919 239.437, 554.425 233.704, 555.562 228.254 C 556.074 225.798, 553.904 225.903, 550.837 228.484 C 546.807 231.874, 539.449 235.569, 535 236.435 C 533.075 236.810, 530.600 237.505, 529.500 237.980 C 528.400 238.456, 526.271 239.111, 524.769 239.436 C 521.059 240.241, 515.732 245.782, 512.861 251.823 L 510.490 256.811 506.495 255.390 C 501.276 253.535, 477.936 253.726, 473.250 255.663 C 470.398 256.841, 470 257.466, 470 260.762 C 470 263.436, 470.577 264.879, 472 265.768 C 474.768 267.496, 474.508 268.547, 470.949 270.021 C 466.774 271.750, 467.310 274.918, 472.180 277.299 C 474.461 278.414, 478.719 282.652, 483.377 288.443 C 487.510 293.582, 492.154 298.654, 493.696 299.712 C 496.730 301.795, 503.472 304, 506.807 304 C 507.948 304, 509.202 304.518, 509.594 305.152 C 510.107 305.982, 509.144 306.149, 506.153 305.747 C 503.869 305.441, 502 305.570, 502 306.033 C 502 307.524, 505.029 320.432, 505.864 322.500 C 506.308 323.600, 507.912 328.325, 509.428 333 C 512.348 342.003, 518.861 352.037, 525.662 358.008 C 529.137 361.059, 529.196 361.235, 528.144 365.317 C 526.677 371.009, 525.221 379.286, 524.418 386.500 C 524.051 389.800, 523.482 392.950, 523.153 393.500 C 522.825 394.050, 522.454 394.950, 522.330 395.500 C 519.868 406.389, 514.975 417.396, 508.440 426.745 C 505.929 430.336, 504.241 433.587, 504.687 433.969 C 506.188 435.251, 513.696 437, 517.697 437 C 521.956 437, 523.168 435.661, 524.486 429.500 C 525.064 426.801, 527.605 421.196, 538.538 398.500 C 542.076 391.157, 547.241 379.854, 547.449 379 C 547.516 378.725, 548.058 377.600, 548.654 376.500 C 549.249 375.400, 550.262 372.869, 550.904 370.876 L 552.072 367.253 562.286 366.551 C 572.794 365.829, 579.995 364.645, 583.500 363.062 C 584.600 362.565, 589.017 360.990, 593.315 359.560 C 597.613 358.131, 602.113 356.345, 603.315 355.592 C 604.517 354.839, 607.188 353.688, 609.250 353.034 C 611.313 352.380, 613 351.205, 613 350.422 C 613 349.640, 613.352 349, 613.781 349 C 614.945 349, 626 360.392, 626 361.592 C 626 362.161, 627.345 363.915, 628.990 365.490 C 630.634 367.065, 631.725 368.608, 631.415 368.918 C 631.105 369.228, 627.371 365.693, 623.117 361.064 L 615.381 352.646 605.617 356.429 L 595.853 360.212 603.926 368.484 C 608.367 373.033, 612 377.119, 612 377.564 C 612 379.910, 607.542 393.748, 605.434 397.945 C 604.095 400.610, 603 403.283, 603 403.884 C 603 405.630, 591.606 427.338, 588.670 431.189 C 587.201 433.114, 586 434.968, 586 435.310 C 586 435.652, 588.260 436.231, 591.022 436.597 C 593.785 436.964, 596.286 437.654, 596.581 438.132 C 596.877 438.609, 598.195 439, 599.512 439 C 602.517 439, 607.099 436.969, 606.452 435.923 C 606.186 435.491, 606.425 434.856, 606.984 434.510 C 607.543 434.165, 608 432.575, 608 430.978 C 608 427.402, 611.442 417.987, 613.901 414.833 C 614.902 413.550, 617.231 409.575, 619.076 406 C 620.921 402.425, 624.584 395.979, 627.216 391.677 C 629.847 387.374, 632 383.436, 632 382.927 C 632 382.417, 632.360 382, 632.799 382 C 633.239 382, 634.181 380.387, 634.894 378.416 C 636.092 375.104, 636.012 374.636, 633.845 372.255 C 630.989 369.116, 633.041 370.178, 638.723 374.778 C 644.215 379.224, 644.817 382.424, 642.088 392.647 C 639.858 400.997, 639.659 401.658, 638.666 404 C 638.316 404.825, 636.901 408.991, 635.522 413.258 C 634.143 417.525, 631.887 422.804, 630.507 424.988 C 629.128 427.173, 628 429.260, 628 429.627 C 628 429.994, 626.441 432.197, 624.534 434.523 C 621.102 438.712, 621.088 438.770, 623.050 440.545 C 625.389 442.662, 633.929 443.606, 638.936 442.301 C 642.333 441.416, 642.392 441.305, 644.002 432.778 C 644.897 428.033, 646.125 423.554, 646.730 422.825 C 647.335 422.096, 647.929 421.050, 648.050 420.500 C 648.407 418.882, 650.027 414.866, 652.597 409.228 C 653.919 406.328, 655 403.492, 655 402.925 C 655 402.358, 657.432 397.682, 660.403 392.535 C 669.138 377.406, 669.080 377.803, 664.242 366.301 C 659.749 355.617, 658.438 350.386, 657.429 339.100 L 656.767 331.700 660.169 332.253 C 662.040 332.556, 664.805 332.569, 666.314 332.280 C 669.452 331.680, 669.298 330.057, 665.530 324 C 664.333 322.075, 662.486 318.308, 661.426 315.629 C 658.349 307.848, 652.413 302.040, 642.350 296.964 L 633.500 292.500 618 292.537 C 604.160 292.570, 592.619 293.908, 589.500 295.842 C 586.791 297.522, 574.466 300.015, 565.921 300.612 C 548.699 301.815, 537.455 297.028, 534.537 287.250 C 533.922 285.190, 534.191 285, 537.710 285 C 541.382 285, 546 282.808, 546 281.065 C 546 280.613, 544.694 279.702, 543.099 279.041 C 541.503 278.380, 539.141 276.688, 537.849 275.280 L 535.500 272.722 541.500 273.410 C 558.085 275.314, 569.697 276.033, 581.500 275.888 L 594.500 275.728 599.534 280.791 C 604.068 285.351, 609.226 288.107, 610.619 286.715 C 610.908 286.425, 609.981 284.346, 608.560 282.094 C 607.138 279.843, 606.261 278, 606.610 278 C 606.959 278, 606.676 277.314, 605.980 276.476 C 604.278 274.425, 604.870 274.040, 610.808 273.336 L 615.887 272.735 622.193 279.282 C 628.905 286.249, 632.690 287.886, 638.922 286.517 C 642.734 285.680, 642.851 284.499, 639.250 283.217 C 635.962 282.047, 629.404 275.652, 628.689 272.919 C 627.874 269.800, 631.347 268.652, 639.348 269.396 C 643.200 269.754, 646.835 270.446, 647.426 270.934 C 649.036 272.264, 656 273.372, 656 272.298 C 656 270.744, 650.750 266.347, 646 263.925 C 642.582 262.182, 639.336 261.532, 632.500 261.223 C 623.169 260.801, 618.090 261.387, 599.500 265.031 C 591.018 266.694, 586.496 267.054, 579.749 266.605 C 570.689 266.001, 558 263.320, 558 262.009 C 558 261.597, 560.813 260.707, 564.250 260.032 C 572.236 258.462, 578.826 256.232, 582 254.025 C 589.740 248.641, 594.074 247, 600.549 247 C 604.112 247, 607.809 246.578, 608.764 246.063 C 609.719 245.547, 614.571 244.384, 619.547 243.478 L 628.594 241.831 636.392 245.481 C 642.033 248.123, 646.100 249.292, 651.095 249.711 C 655.247 250.059, 658 249.907, 658 249.329 C 658 248.800, 655.573 247.362, 652.608 246.133 C 645.585 243.222, 639.037 237.645, 640.670 235.965 C 642.346 234.239, 649.783 233.046, 654.750 233.707 C 659.798 234.378, 660.106 233.396, 656.171 229.183 C 650.946 223.589, 640.799 224.071, 627.323 230.553 C 623.234 232.520, 617.534 234.623, 614.657 235.226 C 609.351 236.339, 604 235.735, 604 234.023 C 604 232.341, 612.458 228.077, 618.527 226.698 L 624.455 225.352 619.785 224.176 C 614.649 222.883, 612.689 222.859, 606 224.008 M 266 305 C 266 305.550, 267.125 306, 268.500 306 C 269.875 306, 271 305.550, 271 305 C 271 304.450, 269.875 304, 268.500 304 C 267.125 304, 266 304.450, 266 305 M 262.374 334.832 C 259.554 336.299, 256.629 338.007, 255.874 338.627 C 255.118 339.247, 251.720 341.188, 248.323 342.940 C 243.458 345.450, 241.713 347.002, 240.106 350.250 C 238.943 352.601, 238.422 354.831, 238.895 355.437 C 239.351 356.022, 240.027 357.850, 240.398 359.500 C 241.065 362.469, 244.160 371.171, 246.267 376 C 246.866 377.375, 247.427 378.725, 247.512 379 C 247.598 379.275, 248.230 380.850, 248.918 382.500 C 252.281 390.564, 253.999 395.701, 253.999 397.691 C 254 398.896, 254.450 400.160, 255 400.500 C 255.550 400.840, 256 402.477, 256 404.138 C 256 407.022, 256.147 407.127, 259.250 406.464 C 261.038 406.082, 263.175 405.281, 264 404.685 C 267.816 401.926, 271 398.492, 271 397.136 C 271 396.317, 269.395 393.315, 267.433 390.467 C 265.470 387.618, 263.738 384.660, 263.584 383.893 C 263.429 383.127, 263.030 381.825, 262.697 381 C 262.097 379.514, 259 361.922, 259 360 C 259 359.395, 263.309 359, 269.918 359 C 284.891 359, 284.900 358.993, 279.595 352.148 C 275.961 347.460, 272.064 341.176, 271.441 339 C 270.613 336.109, 268.668 332.017, 268.152 332.082 C 267.793 332.127, 265.193 333.364, 262.374 334.832 M 499.126 335.820 C 495.620 337.844, 490.220 340.878, 487.126 342.562 C 477.692 347.697, 475.482 352.896, 479.078 361.500 C 479.768 363.150, 480.408 364.725, 480.500 365 C 480.592 365.275, 481.241 366.850, 481.942 368.500 C 482.642 370.150, 484.285 374.595, 485.592 378.378 C 486.899 382.161, 488.480 385.874, 489.107 386.628 C 489.733 387.383, 489.939 388, 489.566 388 C 489.192 388, 489.571 388.977, 490.407 390.170 C 491.243 391.364, 492.481 395.639, 493.158 399.670 C 493.836 403.702, 494.865 406.990, 495.445 406.978 C 497.452 406.936, 505.509 402.867, 507.750 400.764 C 508.988 399.602, 510 398.035, 510 397.281 C 510 396.528, 508.048 393.061, 505.662 389.577 C 501.786 383.916, 501.186 382.244, 500.018 373.871 C 499.299 368.717, 498.411 364.050, 498.044 363.500 C 497.677 362.950, 497.405 361.825, 497.439 361 C 497.488 359.786, 499.724 359.405, 509.171 359 C 515.590 358.725, 521.140 358.200, 521.504 357.834 C 521.868 357.468, 519.938 354.318, 517.216 350.834 C 511.628 343.684, 509.555 339.959, 508.541 335.250 C 508.156 333.462, 507.314 332.031, 506.671 332.070 C 506.027 332.108, 502.632 333.795, 499.126 335.820 M 374 353.906 C 373.175 354.371, 369.575 355.759, 366 356.992 C 357.725 359.845, 356.954 360.585, 360.041 362.716 C 362.271 364.255, 364.885 366.832, 369.968 372.500 C 372.953 375.829, 374.306 379.094, 373.171 380.229 C 372.613 380.787, 372.396 381.870, 372.690 382.635 C 372.984 383.400, 372.789 384.582, 372.257 385.263 C 371.726 385.943, 370.036 390.100, 368.502 394.500 C 366.968 398.900, 364.479 404.750, 362.971 407.500 C 361.464 410.250, 359.965 413.658, 359.640 415.073 C 359.316 416.488, 357.928 419.301, 356.555 421.324 C 355.183 423.346, 352.698 427.448, 351.033 430.440 L 348.007 435.879 352.516 436.555 C 354.996 436.927, 357.271 437.629, 357.571 438.115 C 358.400 439.456, 364.267 439.113, 366.249 437.608 C 367.211 436.878, 368.440 433.955, 368.978 431.113 C 369.517 428.271, 370.514 424.946, 371.194 423.723 C 371.873 422.500, 372.466 421.275, 372.512 421 C 372.558 420.725, 373.585 418.925, 374.794 417 C 376.003 415.075, 376.994 413, 376.996 412.390 C 376.998 411.779, 378.193 409.529, 379.650 407.390 C 381.108 405.250, 383.708 400.800, 385.429 397.500 C 388.644 391.335, 392.422 385.075, 396.534 379.101 L 398.873 375.702 388.253 364.351 C 382.412 358.108, 377.153 353.014, 376.566 353.030 C 375.980 353.047, 374.825 353.441, 374 353.906 M 484.500 466.491 C 483.950 466.675, 482.322 467.083, 480.883 467.398 C 477.380 468.165, 468.850 474.078, 461.520 480.820 C 458.231 483.845, 452.606 487.711, 449.020 489.410 C 442.868 492.325, 441.827 492.500, 430.590 492.500 C 422.130 492.500, 418.560 492.148, 418.267 491.284 C 418.041 490.615, 420.285 488.514, 423.253 486.615 C 430.197 482.173, 434.727 476.973, 435.571 472.475 C 436.481 467.625, 435.654 467.222, 431.757 470.617 C 427.302 474.497, 423.165 476.437, 412.571 479.613 C 402.328 482.683, 396.572 487.087, 393.465 494.228 C 392.443 496.578, 391.519 498.639, 391.412 498.809 C 391.304 498.978, 389.538 498.416, 387.486 497.559 C 382.173 495.339, 358.612 495.349, 354.154 497.573 C 351.444 498.925, 351 499.682, 351 502.951 C 351 505.112, 351.648 507.293, 352.500 508 C 354.588 509.733, 354.386 510.503, 351.500 511.818 C 347.364 513.703, 348.177 517.282, 353.386 520.115 C 356.152 521.620, 360.674 526.007, 365.636 532 C 371.002 538.482, 374.914 542.213, 377.953 543.746 L 382.406 545.991 385.068 557.951 C 386.532 564.529, 388.466 571.462, 389.365 573.357 C 390.264 575.252, 391 577.480, 391 578.307 C 391 580.711, 400.813 594.573, 405.711 599.088 L 410.189 603.215 408.595 609.563 C 407.718 613.055, 407 616.981, 407 618.289 C 407 619.597, 406.688 620.978, 406.308 621.359 C 405.927 621.740, 405.483 623.052, 405.321 624.276 C 404.251 632.372, 402.627 640.329, 400.990 645.500 C 398.618 652.994, 391.998 665.876, 387.895 670.981 C 386.186 673.108, 385.053 675.277, 385.377 675.801 C 386.195 677.125, 394.082 679, 398.836 679 C 402.867 679, 404 677.905, 404 674.010 C 404 673.005, 407.150 665.864, 411 658.140 C 414.850 650.416, 418 643.876, 418 643.607 C 418 643.337, 420.475 637.909, 423.500 631.544 C 426.525 625.180, 428.992 619.641, 428.983 619.236 C 428.973 618.831, 429.986 616.431, 431.233 613.902 L 433.500 609.305 443.619 608.670 C 454.875 607.964, 462.800 606.508, 466.827 604.407 C 468.297 603.640, 470.033 603.010, 470.684 603.006 C 471.855 603, 480.690 599.470, 488.566 595.863 C 490.802 594.838, 493.150 594, 493.784 594 C 494.435 594, 494.686 593.238, 494.360 592.250 C 494.043 591.288, 496.797 593.650, 500.481 597.500 C 504.164 601.350, 511.246 608.694, 516.218 613.819 L 525.259 623.138 524.605 628.704 C 524.245 631.766, 523.631 634.772, 523.241 635.385 C 522.850 635.998, 522.485 636.725, 522.429 637 C 522.373 637.275, 522.075 638.175, 521.767 639 C 521.459 639.825, 519.791 645.121, 518.061 650.768 C 514.821 661.347, 510.098 670.541, 504.811 676.562 C 503.050 678.568, 502.030 680.637, 502.368 681.518 C 503.202 683.690, 507.343 685.002, 513.315 684.985 C 520.552 684.965, 523.247 683.364, 524.255 678.488 C 526.381 668.203, 528.551 661.046, 531.071 656 C 532.581 652.975, 535.025 647.603, 536.501 644.062 C 537.977 640.520, 540.268 636.028, 541.592 634.079 C 542.916 632.130, 544 630.147, 544 629.672 C 544 629.197, 544.931 627.502, 546.068 625.904 C 547.206 624.307, 547.791 623, 547.368 623 C 546.946 623, 547.140 622.460, 547.800 621.800 C 549.138 620.462, 549.407 616.740, 548.250 615.583 C 547.837 615.171, 547.481 614.533, 547.458 614.167 C 547.435 613.800, 546.617 612.001, 545.641 610.169 C 543.372 605.913, 540 595.393, 540 592.570 C 540 591.376, 539.607 589.973, 539.128 589.450 C 538.648 588.928, 537.966 585.194, 537.612 581.154 L 536.968 573.808 541.734 574.457 C 545.029 574.905, 547.060 574.693, 548.314 573.769 C 550.061 572.482, 550.057 572.342, 548.198 569.966 C 547.136 568.610, 545.165 564.764, 543.819 561.420 C 541.327 555.234, 533.724 544.667, 531 543.603 C 530.175 543.281, 527.264 541.619, 524.531 539.909 C 512.113 532.141, 489.061 532.167, 463.500 539.979 C 454.775 542.645, 439.470 543.665, 431.890 542.086 C 425.556 540.765, 418.701 536.255, 416.469 531.941 C 414.277 527.702, 414.621 527, 418.889 527 C 421.166 527, 423.714 526.242, 425.036 525.172 L 427.293 523.344 423.831 521.204 C 421.926 520.028, 419.498 518.085, 418.434 516.888 L 416.500 514.712 421.500 515.356 C 435.663 517.182, 448.899 518.032, 461.510 517.925 L 475.520 517.805 480.544 522.829 C 485.078 527.363, 490.233 530.101, 491.621 528.712 C 491.912 528.421, 491.035 526.455, 489.672 524.342 C 485.861 518.433, 485.516 516.362, 488.222 515.638 C 494.653 513.915, 497.072 514.785, 502.888 520.911 C 509.424 527.795, 511.492 529.006, 516.684 528.985 C 523.197 528.959, 523.478 527.726, 517.834 523.947 C 512.659 520.482, 507.817 513.850, 509.346 512.321 C 510.972 510.695, 523.430 511.597, 529.915 513.811 C 537.521 516.406, 537 516.350, 537 514.573 C 537 513.146, 530.278 507, 528.717 507 C 528.262 507, 525.777 506.037, 523.195 504.860 C 518.882 502.894, 517.450 502.773, 505.588 503.372 C 498.486 503.731, 492.186 504.413, 491.588 504.889 C 489.242 506.753, 466.964 509.292, 458.673 508.641 C 443.649 507.459, 435.314 504.069, 443.706 502.554 C 452.082 501.042, 460.447 497.808, 467.078 493.518 C 473.776 489.185, 474.370 489, 481.545 489 C 485.660 489, 489.809 488.590, 490.764 488.089 C 491.719 487.588, 496.141 486.406, 500.592 485.462 L 508.684 483.745 517.001 487.500 C 526.153 491.633, 538.728 493.687, 537.800 490.898 C 537.544 490.129, 536.479 489.334, 535.434 489.132 C 532.959 488.652, 524.012 482.870, 521.685 480.245 C 519.901 478.234, 519.934 478.177, 523.534 476.989 C 525.549 476.324, 530.078 475.963, 533.599 476.187 C 540.946 476.655, 541.480 475.893, 537.011 471.322 C 531.522 465.708, 521.662 466.292, 507.090 473.094 C 498.244 477.224, 490.174 478.808, 486.022 477.229 C 483.591 476.305, 483.639 476.228, 488.522 473.172 C 491.260 471.459, 495.880 469.519, 498.788 468.861 C 502.222 468.084, 503.624 467.378, 502.788 466.848 C 501.567 466.073, 486.626 465.782, 484.500 466.491 M 384.500 547 C 384.126 547.605, 385.509 548, 388 548 C 390.491 548, 391.874 547.605, 391.500 547 C 391.160 546.450, 389.585 546, 388 546 C 386.415 546, 384.840 546.450, 384.500 547 M 377.475 579.366 C 361.927 588.211, 361.040 588.849, 359.348 592.396 C 357.807 595.628, 357.812 596.271, 359.427 602.023 C 360.378 605.414, 362.246 610.238, 363.578 612.743 C 364.910 615.248, 366 617.892, 366 618.617 C 366 619.343, 367.780 624.113, 369.955 629.218 C 372.130 634.323, 374.213 640.862, 374.584 643.750 C 375.052 647.397, 375.707 649, 376.728 649 C 379.388 649, 384.626 645.981, 387.994 642.506 L 391.306 639.089 388.403 635.303 C 384.569 630.301, 382.307 625.153, 381.366 619.292 C 380.494 613.854, 380.531 614.019, 379.738 612 C 379.414 611.175, 378.863 608.362, 378.513 605.750 L 377.877 601 389.880 601 C 396.481 601, 402.123 600.610, 402.417 600.134 C 402.712 599.657, 402.063 598.462, 400.976 597.479 C 399.889 596.495, 399 595.110, 399 594.402 C 399 593.693, 398.171 592.525, 397.158 591.807 C 396.145 591.088, 393.558 586.803, 391.408 582.285 C 389.259 577.767, 387.275 574.106, 387 574.151 C 386.725 574.195, 382.439 576.542, 377.475 579.366 M 487.500 598.147 C 483.100 599.809, 478.869 601.368, 478.099 601.611 C 477.179 601.901, 479.498 604.923, 484.849 610.405 C 489.332 614.998, 493 619.166, 493 619.668 C 493 621.415, 489.919 632.393, 489.135 633.443 C 488.700 634.024, 487.529 636.750, 486.533 639.500 C 483.893 646.791, 474.661 665.630, 470.607 672 L 467.108 677.500 469.804 678.279 C 471.287 678.708, 473.882 679.495, 475.571 680.029 C 483.312 682.476, 486.721 681.094, 487.574 675.161 C 488.321 669.963, 496.270 653.420, 504.559 639.816 C 507.551 634.903, 510 630.563, 510 630.171 C 510 629.778, 511.793 626.767, 513.984 623.479 L 517.968 617.500 514.673 614.500 C 512.861 612.850, 508.096 607.788, 504.083 603.250 C 500.071 598.712, 496.498 595.028, 496.144 595.063 C 495.790 595.097, 491.900 596.485, 487.500 598.147" stroke="none" fill="#1c4434" fill-rule="evenodd"/></svg>