<svg xmlns="http://www.w3.org/2000/svg" width="200" height="200" viewBox="0 0 200 200" version="1.1"><path d="M 44.035 65.750 C 44.072 100.925, 44.743 107.906, 49.271 120.242 C 56.094 138.829, 71.083 154.624, 90.344 163.523 C 94.483 165.436, 98.828 167, 100 167 C 101.172 167, 105.443 165.470, 109.490 163.600 C 131.836 153.276, 146.995 135.524, 153.552 112 C 155.109 106.416, 155.419 100.392, 155.749 69.250 L 156.134 33 100.067 33 L 44 33 44.035 65.750 M 47.234 70.250 C 47.642 104.155, 47.674 104.591, 50.385 113.500 C 56.890 134.880, 70.087 150.243, 90.447 160.138 C 94.818 162.262, 99.160 164, 100.095 164 C 101.031 164, 105.780 162.002, 110.648 159.559 C 126.730 151.491, 138.548 139.611, 145.525 124.500 C 151.938 110.611, 152.291 107.958, 152.746 70.250 L 153.160 36 99.991 36 L 46.821 36 47.234 70.250 M 77.900 49.982 C 75.480 51.622, 72.162 52.972, 70.527 52.982 L 67.555 53 69.777 51.443 C 71 50.587, 72 49.498, 72 49.024 C 72 47.745, 63.873 51.168, 63.288 52.693 C 62.982 53.491, 61.098 54, 58.455 54 C 54.582 54, 54.142 54.238, 54.289 56.250 C 54.379 57.487, 55.866 59.917, 57.593 61.650 C 59.320 63.382, 61.023 65.955, 61.378 67.368 C 61.918 69.521, 61.535 70.189, 59.011 71.494 C 55.537 73.291, 55.347 74.705, 57.698 81.266 C 60.294 88.507, 62.359 86.612, 60.438 78.750 C 59.811 76.179, 59.977 76, 62.997 76 L 66.227 76 65.536 80.750 C 65.156 83.362, 63.996 86.963, 62.957 88.750 C 61.105 91.935, 61.105 92, 62.955 92 C 64.317 92, 65.735 90.065, 68.044 85.055 C 71.149 78.319, 71.385 78.079, 75.873 77.109 C 79.900 76.238, 80.750 76.355, 82.431 78.013 C 84.339 79.895, 84.331 79.991, 81.784 85.895 C 79.367 91.496, 79.225 93, 81.112 93 C 81.540 93, 83.558 89.828, 85.596 85.950 C 87.957 81.457, 89.648 79.248, 90.258 79.858 C 91.316 80.916, 89.708 87.015, 87.400 90.698 C 86.487 92.155, 86.372 93.112, 87.059 93.536 C 88.610 94.495, 91 93.276, 91 91.526 C 91 90.682, 92.134 87.640, 93.520 84.767 C 94.905 81.895, 95.753 78.859, 95.404 78.022 C 95.055 77.185, 94.419 75.037, 93.990 73.250 C 93.389 70.743, 93.535 70, 94.631 70 C 95.832 70, 95.814 69.542, 94.515 67.030 C 92.211 62.574, 89.674 61.643, 82.085 62.471 C 72.500 63.515, 70.022 63.431, 68.691 62.016 C 67.768 61.035, 67.783 60.646, 68.756 60.290 C 69.447 60.036, 69.758 59.418, 69.447 58.915 C 69.129 58.400, 71.534 58, 74.941 58 C 78.273 58, 81 58.402, 81 58.893 C 81 59.384, 81.652 60.036, 82.449 60.342 C 83.418 60.714, 83.714 60.418, 83.342 59.449 C 82.601 57.519, 85.388 57.558, 87 59.500 C 87.685 60.325, 88.730 61, 89.322 61 C 90.024 61, 89.982 60.582, 89.200 59.800 C 87.199 57.799, 87.846 56.737, 90.731 57.289 C 93.292 57.779, 93.342 57.723, 91.531 56.399 C 90.078 55.336, 87.606 55.124, 81.550 55.541 L 73.500 56.094 77.141 54.079 C 81.089 51.894, 87.028 51.153, 91 52.350 C 93.320 53.049, 93.369 52.998, 91.680 51.641 C 89.921 50.226, 89.921 50.139, 91.680 49.023 C 93.204 48.057, 92.931 47.947, 90 48.350 C 88.075 48.614, 85.600 49.130, 84.500 49.497 C 82.528 50.154, 82.527 50.141, 84.441 48.582 C 88.167 45.546, 82.729 46.710, 77.900 49.982 M 128.428 49.972 C 126.211 51.650, 123.234 52.956, 121.595 52.972 C 118.844 52.999, 118.778 52.903, 120.345 51.171 C 121.255 50.165, 122 49.050, 122 48.693 C 122 47.717, 116.792 50.126, 114.436 52.191 C 113.149 53.318, 110.797 54, 108.192 54 C 104.601 54, 104.055 54.277, 104.313 55.967 C 104.478 57.049, 106.275 59.786, 108.306 62.049 C 110.338 64.312, 112.004 66.914, 112.009 67.832 C 112.014 68.749, 110.612 70.656, 108.894 72.068 L 105.770 74.636 107.635 80.311 C 109.621 86.353, 109.720 86.463, 111.936 85.061 C 112.973 84.404, 113.080 83.785, 112.320 82.826 C 111.742 82.097, 111.045 80.263, 110.773 78.750 C 110.347 76.386, 110.609 76, 112.639 76 C 113.937 76, 115.338 76.112, 115.750 76.250 C 117.443 76.814, 115.584 84.714, 112.219 91.250 C 112.007 91.662, 112.658 91.993, 113.667 91.985 C 114.975 91.975, 116.359 89.982, 118.500 85.024 C 121.412 78.282, 121.632 78.049, 125.997 77.108 C 129.663 76.316, 130.818 76.430, 132.247 77.724 C 134.568 79.824, 134.465 81.149, 131.531 86.938 C 129.353 91.236, 129.252 91.883, 130.674 92.429 C 131.561 92.769, 132.376 92.924, 132.487 92.774 C 132.597 92.623, 134.205 89.470, 136.061 85.767 C 138.193 81.513, 139.785 79.385, 140.385 79.985 C 141.417 81.017, 139.573 88.544, 137.739 90.792 C 136.999 91.700, 137.004 92.404, 137.755 93.155 C 138.977 94.377, 140.995 93.469, 141.010 91.691 C 141.015 91.036, 142.131 88.112, 143.490 85.192 C 145.742 80.355, 145.855 79.486, 144.759 75.388 C 143.765 71.672, 143.798 70.743, 144.949 70.031 C 146.120 69.308, 146.075 68.764, 144.671 66.621 C 142.006 62.553, 139.398 61.663, 132.584 62.496 C 123.525 63.603, 120.084 63.492, 118.724 62.049 C 117.758 61.024, 117.765 60.653, 118.756 60.290 C 119.447 60.036, 119.758 59.418, 119.447 58.915 C 119.131 58.402, 121.403 58, 124.612 58 C 128.642 58, 130.936 58.519, 132.341 59.750 C 134.244 61.417, 134.309 61.417, 133.701 59.750 C 132.888 57.520, 134.759 57.472, 137.177 59.661 C 138.187 60.574, 139.347 60.962, 139.756 60.524 C 140.165 60.085, 139.938 59.525, 139.250 59.280 C 136.986 58.471, 137.947 57, 140.750 56.985 C 142.909 56.973, 143.178 56.757, 142 55.982 C 141.133 55.411, 136.913 55.224, 132 55.540 L 123.500 56.087 127.174 54.058 C 131.002 51.945, 137.704 51.208, 142 52.428 C 144.091 53.021, 144.213 52.954, 142.750 52.019 C 141.787 51.404, 141 50.506, 141 50.024 C 141 49.541, 141.787 48.910, 142.750 48.620 C 145.273 47.861, 137.983 48.660, 135 49.470 C 132.593 50.123, 132.572 50.090, 134.441 48.574 C 136.357 47.020, 136.356 47, 134.369 47 C 133.262 47, 130.589 48.337, 128.428 49.972 M 107 98.728 C 106.175 99.041, 104.228 100.356, 102.673 101.649 C 101.054 102.996, 98.532 104, 96.768 104 C 93.849 104, 93.776 103.905, 95.345 102.171 C 96.255 101.165, 97 100.081, 97 99.762 C 97 98.928, 89.249 102.788, 88.505 103.993 C 88.162 104.547, 85.911 105, 83.503 105 C 79.580 105, 79.141 105.234, 79.289 107.250 C 79.379 108.487, 80.920 110.971, 82.712 112.769 C 84.505 114.567, 86.250 117.148, 86.591 118.505 C 87.099 120.532, 86.656 121.288, 84.111 122.736 C 80.514 124.784, 80.402 125.548, 82.736 132.120 C 85.310 139.368, 87.620 137.410, 85.533 129.750 C 84.818 127.129, 84.948 127, 88.301 127 L 91.820 127 90.590 132.250 C 89.914 135.137, 88.788 138.561, 88.088 139.857 C 87.167 141.562, 87.117 142.517, 87.907 143.307 C 89.359 144.759, 90.049 143.850, 93.572 135.848 C 96.437 129.339, 96.601 129.176, 101.229 128.246 C 105.191 127.450, 106.205 127.569, 107.479 128.977 C 109.526 131.238, 109.417 132.244, 106.500 138 C 103.525 143.871, 103.506 144.016, 105.750 143.942 C 106.890 143.904, 108.694 141.484, 110.929 136.993 C 114.185 130.450, 116 128.981, 116 132.890 C 116 133.864, 114.920 136.794, 113.601 139.401 C 111.626 143.301, 111.456 144.238, 112.644 144.694 C 114.550 145.425, 114.861 145.035, 117.774 138.273 C 120.357 132.274, 120.514 130.996, 119.431 124.750 C 119.033 122.451, 119.174 121, 119.797 121 C 121.579 121, 119.849 117.027, 117.127 114.869 C 114.880 113.088, 113.632 112.874, 108.500 113.393 C 105.200 113.726, 101.150 114.253, 99.500 114.563 C 96.269 115.170, 91.281 112.381, 93.756 111.352 C 94.447 111.064, 94.763 110.426, 94.459 109.934 C 93.575 108.503, 105.603 109.425, 107.412 110.927 C 108.822 112.097, 108.960 112.058, 108.416 110.641 C 107.607 108.533, 110.280 108.427, 112 110.500 C 112.685 111.325, 113.730 112, 114.322 112 C 115.024 112, 114.982 111.582, 114.200 110.800 C 112.251 108.851, 112.820 107.733, 115.500 108.245 C 118.527 108.823, 118.676 108.432, 115.978 106.988 C 114.575 106.238, 112.322 106.209, 108.612 106.895 C 105.673 107.438, 102.251 107.617, 101.008 107.292 C 98.922 106.746, 99.035 106.561, 102.483 104.885 C 106.429 102.965, 111.844 102.408, 116 103.495 C 118.409 104.125, 118.429 104.091, 116.559 102.574 C 114.659 101.033, 114.665 101, 116.868 101 C 118.245 101, 118.855 100.575, 118.441 99.904 C 117.794 98.858, 115.487 99.015, 110 100.481 C 107.592 101.124, 107.571 101.091, 109.441 99.574 C 111.437 97.956, 110.179 97.520, 107 98.728" stroke="none" fill="#eff4f3" fill-rule="evenodd"/><path d="M -0 100.005 L -0 200.010 100.250 199.755 L 200.500 199.500 200.755 99.750 L 201.010 0 100.505 0 L 0 0 -0 100.005 M 0.481 100.500 C 0.481 155.500, 0.602 178.147, 0.750 150.826 C 0.898 123.506, 0.898 78.506, 0.750 50.826 C 0.602 23.147, 0.481 45.500, 0.481 100.500 M 44.035 65.750 C 44.072 100.925, 44.743 107.906, 49.271 120.242 C 56.094 138.829, 71.083 154.624, 90.344 163.523 C 94.483 165.436, 98.828 167, 100 167 C 101.172 167, 105.443 165.470, 109.490 163.600 C 131.836 153.276, 146.995 135.524, 153.552 112 C 155.109 106.416, 155.419 100.392, 155.749 69.250 L 156.134 33 100.067 33 L 44 33 44.035 65.750 M 47.234 70.250 C 47.642 104.155, 47.674 104.591, 50.385 113.500 C 56.890 134.880, 70.087 150.243, 90.447 160.138 C 94.818 162.262, 99.160 164, 100.095 164 C 101.031 164, 105.780 162.002, 110.648 159.559 C 126.730 151.491, 138.548 139.611, 145.525 124.500 C 151.938 110.611, 152.291 107.958, 152.746 70.250 L 153.160 36 99.991 36 L 46.821 36 47.234 70.250 M 77.900 49.982 C 75.480 51.622, 72.162 52.972, 70.527 52.982 L 67.555 53 69.777 51.443 C 71 50.587, 72 49.498, 72 49.024 C 72 47.745, 63.873 51.168, 63.288 52.693 C 62.982 53.491, 61.098 54, 58.455 54 C 54.582 54, 54.142 54.238, 54.289 56.250 C 54.379 57.487, 55.866 59.917, 57.593 61.650 C 59.320 63.382, 61.023 65.955, 61.378 67.368 C 61.918 69.521, 61.535 70.189, 59.011 71.494 C 55.537 73.291, 55.347 74.705, 57.698 81.266 C 60.294 88.507, 62.359 86.612, 60.438 78.750 C 59.811 76.179, 59.977 76, 62.997 76 L 66.227 76 65.536 80.750 C 65.156 83.362, 63.996 86.963, 62.957 88.750 C 61.105 91.935, 61.105 92, 62.955 92 C 64.317 92, 65.735 90.065, 68.044 85.055 C 71.149 78.319, 71.385 78.079, 75.873 77.109 C 79.900 76.238, 80.750 76.355, 82.431 78.013 C 84.339 79.895, 84.331 79.991, 81.784 85.895 C 79.367 91.496, 79.225 93, 81.112 93 C 81.540 93, 83.558 89.828, 85.596 85.950 C 87.957 81.457, 89.648 79.248, 90.258 79.858 C 91.316 80.916, 89.708 87.015, 87.400 90.698 C 86.487 92.155, 86.372 93.112, 87.059 93.536 C 88.610 94.495, 91 93.276, 91 91.526 C 91 90.682, 92.134 87.640, 93.520 84.767 C 94.905 81.895, 95.753 78.859, 95.404 78.022 C 95.055 77.185, 94.419 75.037, 93.990 73.250 C 93.389 70.743, 93.535 70, 94.631 70 C 95.832 70, 95.814 69.542, 94.515 67.030 C 92.211 62.574, 89.674 61.643, 82.085 62.471 C 72.500 63.515, 70.022 63.431, 68.691 62.016 C 67.768 61.035, 67.783 60.646, 68.756 60.290 C 69.447 60.036, 69.758 59.418, 69.447 58.915 C 69.129 58.400, 71.534 58, 74.941 58 C 78.273 58, 81 58.402, 81 58.893 C 81 59.384, 81.652 60.036, 82.449 60.342 C 83.418 60.714, 83.714 60.418, 83.342 59.449 C 82.601 57.519, 85.388 57.558, 87 59.500 C 87.685 60.325, 88.730 61, 89.322 61 C 90.024 61, 89.982 60.582, 89.200 59.800 C 87.199 57.799, 87.846 56.737, 90.731 57.289 C 93.292 57.779, 93.342 57.723, 91.531 56.399 C 90.078 55.336, 87.606 55.124, 81.550 55.541 L 73.500 56.094 77.141 54.079 C 81.089 51.894, 87.028 51.153, 91 52.350 C 93.320 53.049, 93.369 52.998, 91.680 51.641 C 89.921 50.226, 89.921 50.139, 91.680 49.023 C 93.204 48.057, 92.931 47.947, 90 48.350 C 88.075 48.614, 85.600 49.130, 84.500 49.497 C 82.528 50.154, 82.527 50.141, 84.441 48.582 C 88.167 45.546, 82.729 46.710, 77.900 49.982 M 128.428 49.972 C 126.211 51.650, 123.234 52.956, 121.595 52.972 C 118.844 52.999, 118.778 52.903, 120.345 51.171 C 121.255 50.165, 122 49.050, 122 48.693 C 122 47.717, 116.792 50.126, 114.436 52.191 C 113.149 53.318, 110.797 54, 108.192 54 C 104.601 54, 104.055 54.277, 104.313 55.967 C 104.478 57.049, 106.275 59.786, 108.306 62.049 C 110.338 64.312, 112.004 66.914, 112.009 67.832 C 112.014 68.749, 110.612 70.656, 108.894 72.068 L 105.770 74.636 107.635 80.311 C 109.621 86.353, 109.720 86.463, 111.936 85.061 C 112.973 84.404, 113.080 83.785, 112.320 82.826 C 111.742 82.097, 111.045 80.263, 110.773 78.750 C 110.347 76.386, 110.609 76, 112.639 76 C 113.937 76, 115.338 76.112, 115.750 76.250 C 117.443 76.814, 115.584 84.714, 112.219 91.250 C 112.007 91.662, 112.658 91.993, 113.667 91.985 C 114.975 91.975, 116.359 89.982, 118.500 85.024 C 121.412 78.282, 121.632 78.049, 125.997 77.108 C 129.663 76.316, 130.818 76.430, 132.247 77.724 C 134.568 79.824, 134.465 81.149, 131.531 86.938 C 129.353 91.236, 129.252 91.883, 130.674 92.429 C 131.561 92.769, 132.376 92.924, 132.487 92.774 C 132.597 92.623, 134.205 89.470, 136.061 85.767 C 138.193 81.513, 139.785 79.385, 140.385 79.985 C 141.417 81.017, 139.573 88.544, 137.739 90.792 C 136.999 91.700, 137.004 92.404, 137.755 93.155 C 138.977 94.377, 140.995 93.469, 141.010 91.691 C 141.015 91.036, 142.131 88.112, 143.490 85.192 C 145.742 80.355, 145.855 79.486, 144.759 75.388 C 143.765 71.672, 143.798 70.743, 144.949 70.031 C 146.120 69.308, 146.075 68.764, 144.671 66.621 C 142.006 62.553, 139.398 61.663, 132.584 62.496 C 123.525 63.603, 120.084 63.492, 118.724 62.049 C 117.758 61.024, 117.765 60.653, 118.756 60.290 C 119.447 60.036, 119.758 59.418, 119.447 58.915 C 119.131 58.402, 121.403 58, 124.612 58 C 128.642 58, 130.936 58.519, 132.341 59.750 C 134.244 61.417, 134.309 61.417, 133.701 59.750 C 132.888 57.520, 134.759 57.472, 137.177 59.661 C 138.187 60.574, 139.347 60.962, 139.756 60.524 C 140.165 60.085, 139.938 59.525, 139.250 59.280 C 136.986 58.471, 137.947 57, 140.750 56.985 C 142.909 56.973, 143.178 56.757, 142 55.982 C 141.133 55.411, 136.913 55.224, 132 55.540 L 123.500 56.087 127.174 54.058 C 131.002 51.945, 137.704 51.208, 142 52.428 C 144.091 53.021, 144.213 52.954, 142.750 52.019 C 141.787 51.404, 141 50.506, 141 50.024 C 141 49.541, 141.787 48.910, 142.750 48.620 C 145.273 47.861, 137.983 48.660, 135 49.470 C 132.593 50.123, 132.572 50.090, 134.441 48.574 C 136.357 47.020, 136.356 47, 134.369 47 C 133.262 47, 130.589 48.337, 128.428 49.972 M 107 98.728 C 106.175 99.041, 104.228 100.356, 102.673 101.649 C 101.054 102.996, 98.532 104, 96.768 104 C 93.849 104, 93.776 103.905, 95.345 102.171 C 96.255 101.165, 97 100.081, 97 99.762 C 97 98.928, 89.249 102.788, 88.505 103.993 C 88.162 104.547, 85.911 105, 83.503 105 C 79.580 105, 79.141 105.234, 79.289 107.250 C 79.379 108.487, 80.920 110.971, 82.712 112.769 C 84.505 114.567, 86.250 117.148, 86.591 118.505 C 87.099 120.532, 86.656 121.288, 84.111 122.736 C 80.514 124.784, 80.402 125.548, 82.736 132.120 C 85.310 139.368, 87.620 137.410, 85.533 129.750 C 84.818 127.129, 84.948 127, 88.301 127 L 91.820 127 90.590 132.250 C 89.914 135.137, 88.788 138.561, 88.088 139.857 C 87.167 141.562, 87.117 142.517, 87.907 143.307 C 89.359 144.759, 90.049 143.850, 93.572 135.848 C 96.437 129.339, 96.601 129.176, 101.229 128.246 C 105.191 127.450, 106.205 127.569, 107.479 128.977 C 109.526 131.238, 109.417 132.244, 106.500 138 C 103.525 143.871, 103.506 144.016, 105.750 143.942 C 106.890 143.904, 108.694 141.484, 110.929 136.993 C 114.185 130.450, 116 128.981, 116 132.890 C 116 133.864, 114.920 136.794, 113.601 139.401 C 111.626 143.301, 111.456 144.238, 112.644 144.694 C 114.550 145.425, 114.861 145.035, 117.774 138.273 C 120.357 132.274, 120.514 130.996, 119.431 124.750 C 119.033 122.451, 119.174 121, 119.797 121 C 121.579 121, 119.849 117.027, 117.127 114.869 C 114.880 113.088, 113.632 112.874, 108.500 113.393 C 105.200 113.726, 101.150 114.253, 99.500 114.563 C 96.269 115.170, 91.281 112.381, 93.756 111.352 C 94.447 111.064, 94.763 110.426, 94.459 109.934 C 93.575 108.503, 105.603 109.425, 107.412 110.927 C 108.822 112.097, 108.960 112.058, 108.416 110.641 C 107.607 108.533, 110.280 108.427, 112 110.500 C 112.685 111.325, 113.730 112, 114.322 112 C 115.024 112, 114.982 111.582, 114.200 110.800 C 112.251 108.851, 112.820 107.733, 115.500 108.245 C 118.527 108.823, 118.676 108.432, 115.978 106.988 C 114.575 106.238, 112.322 106.209, 108.612 106.895 C 105.673 107.438, 102.251 107.617, 101.008 107.292 C 98.922 106.746, 99.035 106.561, 102.483 104.885 C 106.429 102.965, 111.844 102.408, 116 103.495 C 118.409 104.125, 118.429 104.091, 116.559 102.574 C 114.659 101.033, 114.665 101, 116.868 101 C 118.245 101, 118.855 100.575, 118.441 99.904 C 117.794 98.858, 115.487 99.015, 110 100.481 C 107.592 101.124, 107.571 101.091, 109.441 99.574 C 111.437 97.956, 110.179 97.520, 107 98.728" stroke="none" fill="#1d4435" fill-rule="evenodd"/></svg>