<svg xmlns="http://www.w3.org/2000/svg" xmlns:xlink="http://www.w3.org/1999/xlink" version="1.1" width="283.4673pt" height="283.4644pt" viewBox="0 0 283.4673 283.4644">
<defs>
<clipPath id="clip_0">
<path transform="matrix(1,0,0,-1,0,283.4644)" d="M0 0H283.4673V283.4644H0Z"/>
</clipPath>
<clipPath id="clip_1">
<path transform="matrix(1,0,0,-1,0,283.4644)" d="M0 283.464V0H283.467V283.464"/>
</clipPath>
</defs>
<g clip-path="url(#clip_0)">
<g clip-path="url(#clip_1)">
<path transform="matrix(1,0,0,-1,0,283.4644)" d="M283.467 0H0V283.464H283.467V0" fill="#001b55"/>
<path transform="matrix(1,0,0,-1,0,283.4644)" d="M56.1021 47.659C56.1021 57.54999 51.3052 64.452 43.2153 64.452 34.4204 64.452 30.3188 56.16399 30.3188 47.659 30.3188 37.77199 35.1177 30.87599 43.2153 30.87599 52.0083 30.87599 56.1021 39.16299 56.1021 47.659M62.1021 47.855C62.1021 36.97598 53.7056 29.07799 43.2153 29.07799 32.52 29.07799 24.3247 37.06499 24.3247 47.46599 24.3247 58.35199 32.7192 66.25099 43.2153 66.25099 53.9087 66.25099 62.1021 58.25398 62.1021 47.855" fill="#ffffff"/>
<path transform="matrix(1,0,0,-1,0,283.4644)" d="M171.435 47.659C171.435 57.54999 166.634 64.452 158.542 64.452 149.748 64.452 145.652 56.16399 145.652 47.659 145.652 37.77199 150.449 30.87599 158.542 30.87599 167.335 30.87599 171.435 39.16299 171.435 47.659M177.429 47.855C177.429 36.97598 169.035 29.07799 158.542 29.07799 147.847 29.07799 139.651 37.06499 139.651 47.46599 139.651 58.35199 148.048 66.25099 158.542 66.25099 169.236 66.25099 177.429 58.25398 177.429 47.855" fill="#ffffff"/>
<path transform="matrix(1,0,0,-1,0,283.4644)" d="M200.316 41.67198C198.216 44.66998 197.416 45.76299 194.82 45.76299H192.019V33.57098C192.019 32.57098 192.419 32.07999 193.521 31.87599L197.617 30.97699V29.67198H181.527V30.97699L185.226 31.87599C186.322 32.17099 186.722 32.57098 186.722 33.57098V61.75499C186.722 62.756 186.322 63.15298 185.226 63.45099L181.527 64.35098V65.65498H197.216C200.517 65.65498 202.814 65.35098 204.712 64.65698 208.611 63.15298 210.808 59.44998 210.808 55.96199 210.808 51.55798 207.511 47.855 202.013 46.56999V46.37C203.115 45.85999 203.712 45.16499 207.611 40.06099L212.507 33.57098C213.207 32.57098 214.107 31.97699 215.207 31.77199L218.804 30.97699V29.67198H210.21C209.21 29.67198 208.71 29.97699 207.812 31.17999L200.316 41.67198M192.019 47.46599H196.517C203.314 47.46599 204.814 51.756 204.814 55.85999 204.814 58.95799 203.414 61.85699 200.216 63.25198 198.517 63.95399 196.917 63.95399 194.718 63.95399H192.019V47.46599" fill="#ffffff"/>
<path transform="matrix(1,0,0,-1,0,283.4644)" d="M129.858 53.36198H131.358V41.36598H129.858L128.958 44.96199C128.657 46.26599 127.858 46.76199 126.661 46.76199H117.963V33.57098C117.963 32.57098 118.364 32.07999 119.463 31.87599L123.561 30.97699V29.67198H107.473V30.97699L111.17 31.87599C112.27 32.17099 112.67 32.57098 112.67 33.57098V61.75499C112.67 62.756 112.27 63.15298 111.17 63.45099L107.473 64.35098V65.65498H134.655V56.65099H133.155L131.458 62.05499C131.057 63.45099 130.458 63.95399 129.258 63.95399H117.963V48.465H126.661C127.858 48.465 128.557 48.95799 128.958 50.26399L129.858 53.36198" fill="#ffffff"/>
<path transform="matrix(1,0,0,-1,0,283.4644)" d="M232.195 63.95399V32.978C232.195 31.67198 232.494 31.36598 233.794 31.36598H238.191C242.388 31.36598 245.486 31.97699 247.685 33.57098 251.382 36.26599 253.082 41.16399 253.082 47.36398 253.082 53.45999 251.382 59.44998 246.386 62.34999 244.289 63.55299 241.589 63.95399 237.39 63.95399H232.195M221.701 29.67198V30.97699L225.398 31.87599C226.5 32.17099 226.898 32.57098 226.898 33.57098V61.75499C226.898 62.756 226.5 63.15298 225.398 63.45099L221.701 64.35098V65.65498H238.591C243.187 65.65498 246.486 65.05399 249.185 63.855 255.98 60.75499 259.08 54.062 259.08 47.46599 259.08 41.06099 256.679 35.07298 250.583 31.87599 247.787 30.368 243.888 29.67198 238.792 29.67198H221.701" fill="#ffffff"/>
<path transform="matrix(1,0,0,-1,0,283.4644)" d="M76.1938 30.97699V29.67198H63.5024V30.97699L66.6958 31.77199C67.9009 32.07999 68.6958 32.46899 69.4946 33.368L80.4907 47.161 69.4946 61.75499C68.7974 62.756 67.9009 63.25198 66.7974 63.55299L63.7974 64.35098V65.65498H79.5884V64.35098L76.1938 63.65498C74.9907 63.45099 75.2915 62.95499 75.8892 62.15298L83.9849 50.55998H84.1841L92.481 62.15298C93.0806 62.95499 93.2817 63.25198 92.1821 63.55299L88.9829 64.35098V65.65498H101.676V64.35098L98.4771 63.55299C97.2798 63.25198 96.479 62.85599 95.6782 61.95699L85.2856 48.85599 96.8774 33.57098C97.5806 32.57098 98.4771 32.07999 99.5767 31.77199L102.577 30.97699V29.67198H86.7856V30.97699L90.1821 31.67198C91.3833 31.87599 91.1821 32.26498 90.5825 33.08099L81.7876 45.46999H81.5884L72.6958 33.16499C72.0942 32.368 71.895 32.07999 72.9927 31.77199L76.1938 30.97699" fill="#ffffff"/>
<path transform="matrix(1,0,0,-1,0,283.4644)" d="M38.3374 82.58699C37.3438 81.59299 35.8525 80.92899 33.7729 80.92899 31.959 80.92899 30.2788 81.50099 29.1416 82.63799 27.5894 84.18999 27.6602 86.16998 27.6602 88.28699V98.29399H29.7007V87.54399C29.7007 86.18298 29.6597 84.85799 30.71 83.80598 31.439 83.07899 32.5591 82.68498 33.8501 82.68498 35.1118 82.68498 36.1235 83.12099 36.7554 83.75299 37.9253 84.92198 37.8511 86.19598 37.8511 89.27499V98.29399H39.8608V89.80399C39.8608 86.57899 39.9917 84.24098 38.3374 82.58699" fill="#ffffff"/>
<path transform="matrix(1,0,0,-1,0,283.4644)" d="M56.4478 81.24998 48.2368 95.22099 48.2876 81.24998H46.4126V98.29498H48.5054L56.7446 84.24599 56.6938 98.29498H58.5688V81.24998H56.4478" fill="#ffffff"/>
<path transform="matrix(1,0,0,-1,0,283.4644)" d="M65.6758 81.25198V98.29399H67.7266V81.25198H65.6758" fill="#ffffff"/>
<path transform="matrix(1,0,0,-1,0,283.4644)" d="M80.4771 81.25198H78.1294L72.2524 98.29399H74.3892L79.3618 83.24799 84.4814 98.29399H86.4653L80.4771 81.25198" fill="#ffffff"/>
<path transform="matrix(1,0,0,-1,0,283.4644)" d="M91.105 81.25198V98.29399H100.37V96.59399H93.1138V90.96999H99.9258V89.31299H93.1138V83.00299H100.574V81.25198H91.105" fill="#ffffff"/>
<path transform="matrix(1,0,0,-1,0,283.4644)" d="M115.392 81.25198 113.434 85.66899C112.221 88.38599 111.668 88.66499 109.197 88.66499H108.008V81.25198H105.999V98.29399H109.675C111.95 98.29399 113.665 98.30899 115.006 96.96799 115.859 96.11598 116.335 94.98199 116.335 93.55998 116.335 92.37599 115.991 91.38998 115.277 90.631 114.663 89.978 113.648 89.40599 112.543 89.28699 113.144 89.25299 113.639 88.92999 113.961 88.60699 114.425 88.14299 114.763 87.44099 115.262 86.327L117.526 81.25198H115.392M113.53 95.72899C112.553 96.70699 111.285 96.66199 109.896 96.66199H108.008V90.29698H108.686C110.407 90.29698 112.259 90.20799 113.428 91.37698 113.994 91.94099 114.309 92.73399 114.309 93.59799 114.309 94.55699 113.933 95.327 113.53 95.72899" fill="#ffffff"/>
<path transform="matrix(1,0,0,-1,0,283.4644)" d="M137.435 81.25198V98.29399H139.485V81.25198H137.435" fill="#ffffff"/>
<path transform="matrix(1,0,0,-1,0,283.4644)" d="M151.188 96.59399V81.25198H149.138V96.59399H144.073V98.29399H156.238V96.59399H151.188" fill="#ffffff"/>
<path transform="matrix(1,0,0,-1,0,283.4644)" d="M166.048 87.98698V81.25198H164.023V87.98698L158.613 98.29399H160.957L165.157 90.30099 169.237 98.29498 171.458 98.29399 166.048 87.98698" fill="#ffffff"/>
<path transform="matrix(1,0,0,-1,0,283.4644)" d="M190.583 80.92899C186.172 80.92899 182.947 84.57298 182.947 89.69598 182.947 94.95999 186.137 98.61699 190.74 98.61699 195.202 98.61699 198.351 94.99799 198.351 89.85199 198.351 84.577 195.195 80.92899 190.583 80.92899M190.577 96.87498C187.236 96.87498 185.068 94.05499 185.068 89.80399 185.068 85.56999 187.482 82.68498 190.685 82.68498 194.247 82.68498 196.229 85.71599 196.229 89.939 196.229 94.09599 193.889 96.87498 190.577 96.87498" fill="#ffffff"/>
<path transform="matrix(1,0,0,-1,0,283.4644)" d="M205.99 96.59399V90.96999H212.58V89.31299H205.99V81.25198H203.956V98.29399H213.007V96.59399H205.99" fill="#ffffff"/>
<path transform="matrix(1,0,0,-1,0,283.4644)" d="M121.658 94.13599C121.658 96.75499 123.765 98.62 126.843 98.62 129.959 98.62 131.454 97.00999 131.607 96.84399L130.607 95.633C130.225 95.92699 128.861 96.92999 126.978 96.92999 124.803 96.92999 123.599 95.79399 123.599 94.25198 123.599 93.50499 123.905 92.967 124.398 92.52599 124.982 92.00198 125.835 91.61398 126.753 91.19099 127.896 90.66599 129.462 90.07498 130.51 88.98599 131.237 88.23399 131.786 87.25499 131.786 85.91199 131.786 83.077 129.819 80.91899 126.281 80.91899 123.267 80.91899 121.364 82.57899 121.185 82.745L122.125 84.12799C122.609 83.76799 124.501 82.64799 126.231 82.64799 128.795 82.64799 129.755 84.05199 129.755 85.74599 129.755 86.53299 129.397 87.16599 128.867 87.674 128.071 88.44099 126.868 88.95299 125.715 89.48 124.569 90.00398 123.467 90.55099 122.686 91.37199 122.171 91.91299 121.658 92.79698 121.658 94.13599" fill="#ffffff"/>
<path transform="matrix(1,0,0,-1,0,283.4644)" d="M199.95 213.59929C199.95 215.74039 199.225 217.46739 197.657 218.3888 196.674 218.96599 195.343 219.15439 193.704 219.15439L181.77 219.15589V195.0597H194.758C197.751 195.0597 199.512 194.3859 199.666 191.70029H199.952L199.95 213.59929" fill="#ffffff"/>
<path transform="matrix(1,0,0,-1,0,283.4644)" d="M201.618 213.59929C201.618 215.74039 202.342 217.46739 203.911 218.3888 204.894 218.96599 206.224 219.15439 207.865 219.15439L219.881 219.15589V195.0597H206.81C203.816 195.0597 202.055 194.3859 201.902 191.70029H201.616L201.618 213.59929" fill="#ffffff"/>
<path transform="matrix(1,0,0,-1,0,283.4644)" d="M222.375 217.37419C222.375 217.37419 222.375 193.46349 222.375 191.90149 220.857 191.90149 203.924 191.90149 203.924 191.90149L203.714 191.38098C203.392 190.58609 202.817 189.8507 200.802 189.8507 198.79 189.8507 198.214 190.58609 197.893 191.38098L197.682 191.90149C197.682 191.90149 180.78 191.90149 179.261 191.90149 179.261 193.46349 179.261 217.37419 179.261 217.37419H177.595V216.5983L175.998 217.08899C175.812 217.7179 175.237 218.1803 174.548 218.1803 173.712 218.1803 173.031 217.50058 173.031 216.66269 173.031 215.82439 173.712 215.14519 174.548 215.14519 174.915 215.14519 175.247 215.2804 175.508 215.49619L177.595 214.85559V212.80728L176.027 213.08849C175.795 213.62999 175.257 214.00989 174.631 214.00989 173.795 214.00989 173.115 213.33069 173.115 212.49228 173.115 211.6539 173.795 210.97519 174.631 210.97519 175.064 210.97519 175.453 211.15879 175.729 211.44939L177.595 211.1149V209.027L175.957 209.09929C175.691 209.54109 175.212 209.84 174.66 209.84 173.823 209.84 173.142 209.16028 173.142 208.32289 173.142 207.4845 173.823 206.80478 174.66 206.80478 175.165 206.80478 175.61 207.05478 175.885 207.43518L177.595 207.3595V205.09099L175.92 205.03089C175.645 205.41609 175.197 205.66959 174.687 205.66959 173.851 205.66959 173.169 204.9899 173.169 204.1525 173.169 203.31459 173.851 202.63489 174.687 202.63489 175.236 202.63489 175.712 202.92929 175.979 203.36539L177.595 203.4235V201.33269L175.763 201.0177C175.486 201.31259 175.095 201.49959 174.66 201.49959 173.823 201.49959 173.142 200.81999 173.142 199.98209 173.142 199.14369 173.823 198.465 174.66 198.465 175.282 198.465 175.816 198.84049 176.049 199.37659L177.595 199.64218V197.59L175.592 196.97818C175.33 197.19449 174.998 197.32968 174.631 197.32968 173.795 197.32968 173.115 196.65048 173.115 195.81209 173.115 194.97379 173.795 194.29509 174.631 194.29509 175.32 194.29509 175.895 194.7565 176.081 195.38539L177.595 195.8483V193.86289L175.382 192.90779C175.143 193.06609 174.857 193.15929 174.548 193.15929 173.712 193.15929 173.031 192.47959 173.031 191.64218 173.031 190.80379 173.712 190.12419 174.548 190.12419 175.295 190.12419 175.914 190.66568 176.039 191.37709L177.595 192.04898V190.23549C177.595 190.23549 195.773 190.23549 196.656 190.23549 197.43 188.8844 198.77 188.1847 200.802 188.1847 202.836 188.1847 204.176 188.8844 204.951 190.23549 205.833 190.23549 224.042 190.23549 224.042 190.23549V217.37419H222.375" fill="#ffffff"/>
<path transform="matrix(1,0,0,-1,0,283.4644)" d="M188.263 225.86879C184.411 225.86879 181.288 225.26969 181.288 224.53089 181.288 223.79109 184.411 223.193 188.263 223.193 192.115 223.193 195.238 223.79109 195.238 224.53089 195.238 225.26969 192.115 225.86879 188.263 225.86879" fill="#ffffff"/>
<path transform="matrix(1,0,0,-1,0,283.4644)" d="M197.868 234.2257 193.84 231.39559 193.806 231.10849 194.763 230.67879C194.953 230.58409 194.955 230.4318 194.858 230.34L192.328 228.20519 192.087 228.2262 190.296 230.8673C190.172 231.0387 190.217 231.20909 190.433 231.2452L191.636 231.4415V231.7452L188.518 236.15048H188.005L184.888 231.7452V231.4415L186.091 231.2452C186.306 231.20909 186.351 231.0387 186.228 230.8673L184.435 228.2262 184.195 228.20519 181.833 230.34C181.737 230.4318 181.739 230.58409 181.927 230.67879L182.885 231.10849 182.85 231.39559 178.656 234.2257 178.316 234.09239 180.779 226.568C182.029 227.12949 184.9 227.525 188.261 227.54068 191.624 227.525 194.495 227.12949 195.745 226.568L198.208 234.09239 197.868 234.2257" fill="#ffffff"/>
<path transform="matrix(1,0,0,-1,0,283.4644)" d="M200.774 175.41199C196.92 175.41199 193.798 174.81299 193.798 174.07399 193.798 173.33499 196.92 172.736 200.774 172.736 204.625 172.736 207.748 173.33499 207.748 174.07399 207.748 174.81299 204.625 175.41199 200.774 175.41199" fill="#ffffff"/>
<path transform="matrix(1,0,0,-1,0,283.4644)" d="M210.377 183.7692 206.35 180.939 206.316 180.652 207.273 180.22199C207.462 180.12799 207.464 179.97499 207.368 179.883L204.838 177.74799 204.598 177.76999 202.806 180.41098C202.683 180.58199 202.727 180.75299 202.944 180.78899L204.146 180.98499V181.288L201.029 185.694H200.515L197.398 181.288V180.98499L198.601 180.78899C198.817 180.75299 198.862 180.58199 198.738 180.41098L196.946 177.76999 196.706 177.74799 194.343 179.883C194.247 179.97499 194.249 180.12799 194.437 180.22199L195.395 180.652 195.36 180.939 191.167 183.7692 190.827 183.6359 193.289 176.111C194.539 176.67299 197.41 177.068 200.772 177.08399 204.134 177.068 207.005 176.67299 208.255 176.111L210.717 183.6359 210.377 183.7692" fill="#ffffff"/>
<path transform="matrix(1,0,0,-1,0,283.4644)" d="M213.253 225.86879C209.401 225.86879 206.278 225.26969 206.278 224.53089 206.278 223.79109 209.401 223.193 213.253 223.193 217.105 223.193 220.227 223.79109 220.227 224.53089 220.227 225.26969 217.105 225.86879 213.253 225.86879" fill="#ffffff"/>
<path transform="matrix(1,0,0,-1,0,283.4644)" d="M222.857 234.2257 218.831 231.39559 218.795 231.10849 219.752 230.67879C219.942 230.58409 219.944 230.4318 219.847 230.34L217.318 228.20519 217.078 228.2262 215.287 230.8673C215.163 231.0387 215.207 231.20909 215.423 231.2452L216.626 231.4415V231.7452L213.508 236.15048H212.996L209.878 231.7452V231.4415L211.082 231.2452C211.296 231.20909 211.341 231.0387 211.218 230.8673L209.425 228.2262 209.185 228.20519 206.824 230.3678C206.727 230.4596 206.728 230.6119 206.917 230.7067L207.875 231.10849 207.839 231.39559 203.646 234.2257 203.306 234.09239 205.769 226.568C207.018 227.12949 209.889 227.525 213.251 227.54068 216.614 227.525 219.485 227.12949 220.735 226.568L223.197 234.09239 222.857 234.2257" fill="#ffffff"/>
<path transform="matrix(1,0,0,-1,0,283.4644)" d="M184.591 212.72429C184.591 212.25209 184.708 212.16129 184.962 212.16129 185.42 212.16129 185.882 212.66568 185.882 213.6066 185.882 214.7482 185.303 215.06699 184.852 215.06699 184.729 215.06699 184.661 215.05039 184.623 215.02939 184.596 215.0192 184.591 214.89659 184.591 214.76428V212.72429M184.852 215.3331C185.505 215.3331 186.047 215.20468 186.402 214.85999 186.652 214.6207 186.86 214.22769 186.86 213.77109 186.86 212.4484 185.856 211.87999 184.628 211.87999H183.258V212.08658C183.646 212.1193 183.688 212.15639 183.688 212.72959V214.48299C183.688 215.05629 183.646 215.09389 183.3 215.12509V215.3331H184.852" fill="#001b55"/>
<path transform="matrix(1,0,0,-1,0,283.4644)" d="M188.309 213.73938C188.309 212.7775 188.67 212.0763 189.191 212.0763 189.648 212.0763 189.897 212.51718 189.897 213.4791 189.897 214.54599 189.515 215.1359 189.058 215.1359 188.649 215.1359 188.309 214.66858 188.309 213.73938M190.886 213.64859C190.886 212.51139 190.11 211.80039 189.09 211.80039 188.018 211.80039 187.322 212.5817 187.322 213.55869 187.322 214.4191 187.895 215.41219 189.165 215.41219 190.136 215.41219 190.886 214.70029 190.886 213.64859" fill="#001b55"/>
<path transform="matrix(1,0,0,-1,0,283.4644)" d="M195.577 215.3331V215.12509C195.172 215.08798 195.151 215.06699 195.167 214.50888L195.22 212.72959C195.236 212.14029 195.246 212.12419 195.628 212.08658V211.87999H193.966V212.08658C194.365 212.12419 194.381 212.14029 194.375 212.72959L194.36 214.59969H194.337L193.313 211.93808H193.027L192.054 214.4132H192.043L192.006 213.23398C191.99 212.7775 191.996 212.52309 192.017 212.35849 192.038 212.16129 192.155 212.11339 192.5 212.08658V211.87999H191.188V212.08658C191.444 212.10849 191.544 212.16129 191.576 212.35849 191.603 212.52309 191.634 212.80429 191.661 213.28769L191.719 214.36049C191.756 215.02939 191.714 215.08798 191.294 215.12509V215.3331H192.543L193.473 213.2291 194.286 215.3331H195.577" fill="#001b55"/>
<path transform="matrix(1,0,0,-1,0,283.4644)" d="M197.301 212.72959C197.301 212.15639 197.344 212.1193 197.71 212.08658V211.87999H195.99V212.08658C196.356 212.1193 196.398 212.15639 196.398 212.72959V214.48299C196.398 215.05629 196.356 215.09389 195.99 215.12509V215.3331H197.71V215.12509C197.344 215.09389 197.301 215.05629 197.301 214.48299V212.72959" fill="#001b55"/>
<path transform="matrix(1,0,0,-1,0,283.4644)" d="M188.747 205.46889H188.291L186.326 207.9762H186.314V206.99919C186.314 206.44109 186.336 206.14908 186.357 205.9845 186.384 205.79799 186.527 205.7291 186.877 205.71298V205.50598H185.555V205.71298C185.789 205.72429 185.926 205.79799 185.954 205.9845 185.974 206.14908 185.996 206.44109 185.996 206.99919V207.9762C185.996 208.36879 185.985 208.4386 185.878 208.58699 185.799 208.69889 185.667 208.73499 185.476 208.75159V208.95909H186.649L188.417 206.754H188.428V207.46599C188.428 208.02408 188.407 208.31609 188.386 208.48059 188.359 208.66609 188.215 208.73499 187.866 208.75159V208.95909H189.219V208.75159C188.955 208.74089 188.816 208.66609 188.79 208.48059 188.769 208.31609 188.747 208.02408 188.747 207.46599V205.46889" fill="#001b55"/>
<path transform="matrix(1,0,0,-1,0,283.4644)" d="M190.898 205.46889C190.532 206.4249 190.033 207.7369 189.841 208.23648 189.667 208.693 189.56 208.71988 189.305 208.75159V208.95909H191.021V208.75159L190.84 208.73059C190.644 208.70909 190.644 208.66129 190.702 208.47469 190.797 208.17839 191.217 207.13098 191.415 206.61049 191.579 207.06209 191.918 208.07678 192.003 208.3263 192.115 208.65099 192.083 208.70909 191.844 208.73499L191.685 208.75159V208.95909H192.97V208.75159C192.667 208.71399 192.593 208.68709 192.385 208.2042 192.354 208.1305 191.706 206.5524 191.308 205.46889H190.898" fill="#001b55"/>
<path transform="matrix(1,0,0,-1,0,283.4644)" d="M193.294 206.60019C193.406 206.2916 193.719 205.70229 194.24 205.70229 194.516 205.70229 194.728 205.88339 194.728 206.22859 194.728 206.5416 194.522 206.71689 194.197 206.86589L194.118 206.90349C193.682 207.10509 193.188 207.38098 193.188 207.94939 193.188 208.5494 193.624 209.0387 194.458 209.0387 194.622 209.0387 194.792 209.0177 194.947 208.97429 195.068 208.943 195.153 208.922 195.222 208.89949 195.244 208.693 195.281 208.43268 195.339 208.0719L195.105 208.03479C194.989 208.38489 194.803 208.76189 194.382 208.76189 194.112 208.76189 193.92 208.5553 193.92 208.2999 193.92 208.03479 194.128 207.8805 194.468 207.7262L194.584 207.67299C195.074 207.4498 195.493 207.17879 195.493 206.55768 195.493 205.90439 194.967 205.42688 194.144 205.42688 193.932 205.42688 193.713 205.46889 193.57 205.5167 193.412 205.57039 193.299 205.6124 193.236 205.6442 193.193 205.8888 193.125 206.1749 193.06 206.53089L193.294 206.60019" fill="#001b55"/>
<path transform="matrix(1,0,0,-1,0,283.4644)" d="M186.385 199.98209C186.385 199.40879 186.427 199.37169 186.793 199.33899V199.13249H185.073V199.33899C185.439 199.37169 185.482 199.40879 185.482 199.98209V201.73549C185.482 202.30869 185.439 202.3458 185.073 202.3776V202.58509H186.793V202.3776C186.427 202.3458 186.385 202.30869 186.385 201.73549V199.98209" fill="#001b55"/>
<path transform="matrix(1,0,0,-1,0,283.4644)" d="M188.489 199.9132C188.489 199.63689 188.499 199.50449 188.594 199.4567 188.68 199.4137 188.801 199.40879 188.966 199.40879 189.136 199.40879 189.365 199.42398 189.476 199.56308 189.561 199.6632 189.651 199.8068 189.737 200.08849L189.965 200.05089C189.933 199.84929 189.822 199.297 189.774 199.13249H187.139V199.33899C187.542 199.37169 187.585 199.40879 187.585 199.98209V201.73549C187.585 202.30869 187.542 202.3458 187.187 202.3776V202.58509H188.914V202.3776C188.531 202.3458 188.489 202.30869 188.489 201.73549V199.9132" fill="#001b55"/>
<path transform="matrix(1,0,0,-1,0,283.4644)" d="M191.453 199.9132C191.453 199.63689 191.463 199.50449 191.559 199.4567 191.644 199.4137 191.765 199.40879 191.93 199.40879 192.1 199.40879 192.329 199.42398 192.44 199.56308 192.525 199.6632 192.615 199.8068 192.701 200.08849L192.929 200.05089C192.898 199.84929 192.786 199.297 192.738 199.13249H190.103V199.33899C190.506 199.37169 190.549 199.40879 190.549 199.98209V201.73549C190.549 202.30869 190.506 202.3458 190.151 202.3776V202.58509H191.877V202.3776C191.495 202.3458 191.453 202.30869 191.453 201.73549V199.9132" fill="#001b55"/>
<path transform="matrix(1,0,0,-1,0,283.4644)" d="M193.991 199.09488C193.624 200.05089 193.125 201.36289 192.934 201.86289 192.758 202.319 192.653 202.3458 192.397 202.3776V202.58509H194.113V202.3776L193.932 202.3566C193.736 202.33559 193.736 202.28769 193.794 202.1012 193.89 201.80429 194.309 200.75749 194.506 200.2369 194.67 200.6886 195.01 201.70279 195.096 201.95279 195.207 202.277 195.175 202.33559 194.936 202.36148L194.777 202.3776V202.58509H196.062V202.3776C195.759 202.34049 195.685 202.3136 195.478 201.8302 195.446 201.7565 194.798 200.17839 194.4 199.09488H193.991" fill="#001b55"/>
<path transform="matrix(1,0,0,-1,0,283.4644)" d="M208.258 215.3331V215.12509C207.854 215.08798 207.833 215.06699 207.848 214.50888L207.902 212.72959C207.917 212.14029 207.927 212.12419 208.31 212.08658V211.87999H206.648V212.08658C207.046 212.12419 207.063 212.14029 207.057 212.72959L207.042 214.59969H207.019L205.995 211.93808H205.708L204.736 214.4132H204.725L204.688 213.23398C204.671 212.7775 204.677 212.52309 204.699 212.35849 204.719 212.16129 204.836 212.11339 205.182 212.08658V211.87999H203.87V212.08658C204.125 212.10849 204.226 212.16129 204.257 212.35849 204.285 212.52309 204.316 212.80429 204.342 213.28769L204.401 214.36049C204.438 215.02939 204.396 215.08798 203.976 215.12509V215.3331H205.224L206.154 213.2291 206.967 215.3331H208.258" fill="#001b55"/>
<path transform="matrix(1,0,0,-1,0,283.4644)" d="M209.983 212.72959C209.983 212.15639 210.026 212.1193 210.392 212.08658V211.87999H208.671V212.08658C209.038 212.1193 209.08 212.15639 209.08 212.72959V214.48299C209.08 215.05629 209.038 215.09389 208.671 215.12509V215.3331H210.392V215.12509C210.026 215.09389 209.983 215.05629 209.983 214.48299V212.72959" fill="#001b55"/>
<path transform="matrix(1,0,0,-1,0,283.4644)" d="M213.935 211.84239H213.478L211.513 214.35019H211.502V213.37268C211.502 212.8151 211.524 212.52309 211.545 212.35849 211.572 212.172 211.714 212.10318 212.066 212.08658V211.87999H210.744V212.08658C210.977 212.0983 211.115 212.172 211.141 212.35849 211.163 212.52309 211.183 212.8151 211.183 213.37268V214.35019C211.183 214.74228 211.173 214.81209 211.067 214.96059 210.987 215.07239 210.854 215.10898 210.664 215.12509V215.3331H211.837L213.606 213.12808H213.617V213.84C213.617 214.39809 213.595 214.68959 213.574 214.85459 213.547 215.04019 213.404 215.10898 213.053 215.12509V215.3331H214.408V215.12509C214.143 215.1149 214.003 215.04019 213.978 214.85459 213.957 214.68959 213.935 214.39809 213.935 213.84V211.84239" fill="#001b55"/>
<path transform="matrix(1,0,0,-1,0,283.4644)" d="M215.481 213.2399H216.161L215.826 214.25449H215.81L215.481 213.2399M216.155 212.08658 216.315 212.10849C216.511 212.1344 216.522 212.18808 216.453 212.37949L216.261 212.92099H215.39L215.231 212.41129C215.162 212.18228 215.162 212.12949 215.406 212.10318L215.56 212.08658V211.87999H214.323V212.08658C214.593 212.12419 214.673 212.14609 214.849 212.59189L215.912 215.3375 216.278 215.41219 216.638 214.4083C216.868 213.77599 217.095 213.14908 217.297 212.60709 217.467 212.14609 217.563 212.1193 217.824 212.08658V211.87999H216.155V212.08658" fill="#001b55"/>
<path transform="matrix(1,0,0,-1,0,283.4644)" d="M208.215 206.35608C208.215 205.78279 208.258 205.74518 208.704 205.71298V205.50598H206.845V205.71298C207.27 205.74518 207.312 205.78279 207.312 206.35608V208.68268H207.222C206.867 208.68268 206.723 208.61829 206.637 208.52259 206.575 208.44348 206.51 208.3053 206.441 208.00789H206.218C206.24 208.45369 206.271 208.82039 206.282 209.09099H206.446C206.527 208.96988 206.58 208.95909 206.723 208.95909H208.841C208.98 208.95909 209.006 208.99089 209.091 209.09099H209.256C209.262 208.86829 209.289 208.4166 209.314 208.02408L209.081 208.00789C209.001 208.3263 208.943 208.4645 208.864 208.5553 208.773 208.65099 208.597 208.68268 208.343 208.68268H208.215V206.35608" fill="#001b55"/>
<path transform="matrix(1,0,0,-1,0,283.4644)" d="M210.997 206.35608C210.997 205.78279 211.039 205.74518 211.406 205.71298V205.50598H209.685V205.71298C210.051 205.74518 210.093 205.78279 210.093 206.35608V208.10898C210.093 208.68268 210.051 208.71988 209.685 208.75159V208.95909H211.406V208.75159C211.039 208.71988 210.997 208.68268 210.997 208.10898V206.35608" fill="#001b55"/>
<path transform="matrix(1,0,0,-1,0,283.4644)" d="M212.837 207.36589C212.837 206.4039 213.198 205.70229 213.718 205.70229 214.176 205.70229 214.425 206.14369 214.425 207.10509 214.425 208.17249 214.043 208.76189 213.585 208.76189 213.177 208.76189 212.837 208.29509 212.837 207.36589M215.414 207.27449C215.414 206.13779 214.637 205.42688 213.619 205.42688 212.545 205.42688 211.849 206.20769 211.849 207.1847 211.849 208.04509 212.422 209.0387 213.692 209.0387 214.665 209.0387 215.414 208.3263 215.414 207.27449" fill="#001b55"/>
<path transform="matrix(1,0,0,-1,0,283.4644)" d="M209.784 202.58509V202.3776C209.379 202.34049 209.359 202.319 209.374 201.76139L209.427 199.98209C209.443 199.3927 209.454 199.3761 209.836 199.33899V199.13249H208.173V199.33899C208.572 199.3761 208.588 199.3927 208.583 199.98209L208.567 201.85219H208.545L207.52 199.19058H207.234L206.261 201.66568H206.25L206.213 200.48648C206.198 200.02989 206.203 199.77548 206.224 199.611 206.246 199.4137 206.362 199.36589 206.708 199.33899V199.13249H205.395V199.33899C205.651 199.361 205.751 199.4137 205.783 199.611 205.81 199.77548 205.841 200.0568 205.868 200.54019L205.926 201.61289C205.963 202.28189 205.921 202.34049 205.501 202.3776V202.58509H206.75L207.68 200.4816 208.493 202.58509H209.784" fill="#001b55"/>
<path transform="matrix(1,0,0,-1,0,283.4644)" d="M210.605 201.73549C210.605 202.30869 210.563 202.3458 210.208 202.3776V202.58509H212.725C212.73 202.4943 212.757 202.1066 212.784 201.70859L212.55 201.69249C212.497 201.95279 212.438 202.1012 212.353 202.18619 212.269 202.277 212.092 202.30869 211.811 202.30869H211.721C211.519 202.30869 211.509 202.30869 211.509 202.1232V201.0983H211.774C212.231 201.0983 212.247 201.12949 212.3 201.5333H212.534V200.27989H212.3C212.247 200.74669 212.231 200.77939 211.774 200.77939H211.509V199.9132C211.509 199.63689 211.519 199.50449 211.615 199.4567 211.701 199.4137 211.822 199.40879 211.987 199.40879 212.199 199.40879 212.433 199.44058 212.55 199.56749 212.64 199.6632 212.73 199.8595 212.81 200.11539L213.044 200.07779C213.017 199.81749 212.906 199.27599 212.858 199.13249H210.155V199.33899C210.563 199.37169 210.605 199.40879 210.605 199.98209V201.73549" fill="#001b55"/>
<path transform="matrix(1,0,0,-1,0,283.4644)" d="M214.234 200.49228H214.914L214.579 201.5065H214.563L214.234 200.49228M214.909 199.33899 215.068 199.361C215.264 199.38689 215.275 199.44058 215.206 199.63199L215.014 200.1735H214.144L213.984 199.6632C213.915 199.4347 213.915 199.38199 214.159 199.35509L214.313 199.33899V199.13249H213.076V199.33899C213.346 199.3761 213.427 199.39859 213.602 199.84439L214.665 202.59 215.031 202.66469 215.391 201.6608C215.621 201.02799 215.848 200.40149 216.05 199.8595 216.22 199.39859 216.316 199.37169 216.577 199.33899V199.13249H214.909V199.33899" fill="#001b55"/>
<path transform="matrix(1,0,0,-1,0,283.4644)" d="M195.983 156.39899C195.983 155.63098 195.361 155.00899 194.593 155.00899 193.827 155.00899 193.205 155.63098 193.205 156.39899 193.205 157.16599 193.827 157.788 194.593 157.788 195.361 157.788 195.983 157.16599 195.983 156.39899" fill="#ffffff"/>
<path transform="matrix(1,0,0,-1,0,283.4644)" d="M210.07 154.08798C210.07 153.31999 209.448 152.69899 208.681 152.69899 207.915 152.69899 207.292 153.31999 207.292 154.08798 207.292 154.855 207.915 155.47599 208.681 155.47599 209.448 155.47599 210.07 154.855 210.07 154.08798" fill="#ffffff"/>
<path transform="matrix(1,0,0,-1,0,283.4644)" d="M156.089 232.152V232.152" fill="#ffffff"/>
<path transform="matrix(1,0,0,-1,0,283.4644)" d="M214.459 257.25749V257.25749" fill="#ffffff"/>
<path transform="matrix(1,0,0,-1,0,283.4644)" d="M236.875 229.65439V229.65439" fill="#ffffff"/>
<path transform="matrix(1,0,0,-1,0,283.4644)" d="M247.677 184.47769V184.47769" fill="#ffffff"/>
<path transform="matrix(1,0,0,-1,0,283.4644)" d="M202.108 254.4791C202.108 253.71199 201.486 253.09099 200.719 253.09099 199.952 253.09099 199.33 253.71199 199.33 254.4791 199.33 255.24669 199.952 255.86829 200.719 255.86829 201.486 255.86829 202.108 255.24669 202.108 254.4791" fill="#ffffff"/>
<path transform="matrix(1,0,0,-1,0,283.4644)" d="M235.166 241.4762C235.132 240.7096 234.486 240.1149 233.719 240.14759 232.953 240.17879 232.358 240.82779 232.39 241.59389 232.421 242.3595 233.07 242.9542 233.835 242.9215 234.602 242.88928 235.198 242.24179 235.166 241.4762" fill="#ffffff"/>
<path transform="matrix(1,0,0,-1,0,283.4644)" d="M165.498 181.84699C166.031 181.07898 166.3 180.25699 166.299 179.40599 166.297 178.435 165.972 177.64798 164.236 176.44499L159.22 172.87 158.296 174.19899C158.296 174.19899 163.435 177.85799 163.519 177.91599 164.405 178.52799 164.783 178.97599 164.785 179.67798 164.785 180.12299 164.622 180.60799 164.3 181.06999 163.798 181.79399 163.154 182.025 162.585 182.02599 162.07 182.02599 161.514 181.66498 160.527 180.97599L155.809 177.77599 154.904 179.07999 159.392 182.12099C160.641 182.99799 161.636 183.59969 162.56 183.5983 163.909 183.5958 164.893 182.71799 165.498 181.84699" fill="#ffffff"/>
<path transform="matrix(1,0,0,-1,0,283.4644)" d="M149.468 191.6408 159.012 194.9869 159.54 193.54068 154.08 186.8707 160.979 189.60019 161.493 188.19199 152.06 184.569 151.533 186.01479 157.019 192.693 149.982 190.23108 149.468 191.6408" fill="#ffffff"/>
<path transform="matrix(1,0,0,-1,0,283.4644)" d="M148.041 199.23889 158.03 200.7208 158.266 199.1207 148.277 197.63979 148.041 199.23889" fill="#ffffff"/>
<path transform="matrix(1,0,0,-1,0,283.4644)" d="M147.745 211.28238 147.784 212.9581 157.752 208.90738 157.682 207.2443 147.445 204.1915 147.456 205.86978 155.756 208.19638 147.745 211.28238" fill="#ffffff"/>
<path transform="matrix(1,0,0,-1,0,283.4644)" d="M155.064 230.8151C155.656 231.8917 156.078 232.2999 156.704 232.297 156.936 232.297 157.228 232.23889 157.523 232.07678 157.901 231.86679 158.191 231.51819 158.298 231.14269 158.34 230.9972 158.359 230.85219 158.357 230.7067 158.352 230.10709 158.018 229.504 157.667 228.87319L157.461 228.49869 154.616 230.0275 155.064 230.8151M156.86 233.87509C155.433 233.87268 154.773 233.05579 153.862 231.40979L152.676 229.28479 161.572 224.45769 162.34 225.84679 158.643 227.86438 158.859 228.2638C159.481 229.38928 159.696 229.5597 161.283 229.42589L164.164 229.17049 164.987 230.66269 161.667 230.94589C161 231.00789 160.473 231.05728 160.047 230.9332 159.905 230.89218 159.734 230.8053 159.57 230.6886 159.608 230.86978 159.676 231.04459 159.678 231.22818 159.68 231.51279 159.639 231.7941 159.554 232.05089 159.361 232.64369 158.938 233.12419 158.298 233.47859 157.821 233.74179 157.343 233.8761 156.86 233.87509" fill="#ffffff"/>
<path transform="matrix(1,0,0,-1,0,283.4644)" d="M167.912 248.14659 169.198 249.12659 175.326 241.1007 174.041 240.11978 167.912 248.14659" fill="#ffffff"/>
<path transform="matrix(1,0,0,-1,0,283.4644)" d="M173.458 252.08359 179.99 255.4845 180.627 254.25839 178.085 252.93518 182.111 245.20229 180.677 244.45619 176.651 252.1881 174.095 250.85709 173.458 252.08359" fill="#ffffff"/>
<path transform="matrix(1,0,0,-1,0,283.4644)" d="M189.753 258.5558 191.457 259.03089 190.084 252.275 191.195 248.43959 189.655 247.99478 188.57 251.80139 183.776 256.8053 185.435 257.2863 188.886 253.6915 189.753 258.5558" fill="#ffffff"/>
<path transform="matrix(1,0,0,-1,0,283.4644)" d="M220.566 244.75058 225.694 253.45029 230.518 250.60849 229.817 249.41759 226.372 251.44789 224.954 249.04109 228.197 247.13098 227.511 245.96599 224.268 247.87659 221.948 243.93669 220.566 244.75058" fill="#ffffff"/>
<path transform="matrix(1,0,0,-1,0,283.4644)" d="M246.514 222.25499 250.19 226.65489 250.763 224.9132 248.025 221.7804 252.092 220.8673 252.631 219.2257 247.068 220.57239 243.116 215.83559 242.553 217.5485 245.536 221.025 241.076 222.04209 240.533 223.69889 246.514 222.25499" fill="#ffffff"/>
<path transform="matrix(1,0,0,-1,0,283.4644)" d="M243.626 212.33269 253.693 213.15349 254.149 207.57089 252.77 207.45859 252.446 211.444 249.662 211.21689 249.967 207.46549 248.621 207.35608 248.314 211.10759 243.757 210.73549 243.626 212.33269" fill="#ffffff"/>
<path transform="matrix(1,0,0,-1,0,283.4644)" d="M248.873 195.63388C246.907 195.63388 244.609 196.70619 244.609 198.68909 244.609 199.40689 244.858 200.3722 245.747 201.01718 246.346 201.45279 247.125 201.6847 247.998 201.6847 249 201.6847 250.806 201.4025 251.754 200.09529 252.08 199.64519 252.247 199.12268 252.245 198.56409 252.245 197.79068 251.929 196.8722 251.1 196.27159 250.513 195.8458 249.741 195.63388 248.873 195.63388M248.078 203.3292C246.911 203.3292 245.838 203.01428 244.991 202.39809 243.466 201.29358 243.189 199.70719 243.189 198.7789 243.189 195.36539 246.397 194.00009 248.806 194.00009 249.963 193.9982 251.022 194.31308 251.857 194.91809 253.558 196.14949 253.651 198.0011 253.651 198.59729 253.651 201.57579 250.912 203.3292 248.078 203.3292" fill="#ffffff"/>
<path transform="matrix(1,0,0,-1,0,283.4644)" d="M240.644 228.7179C239.738 228.7179 238.919 229.0978 238.355 229.98889 238.067 230.44199 237.927 230.93129 237.925 231.42688 237.92 232.568 238.643 233.7399 239.967 234.5817 240.844 235.1373 241.705 235.4108 242.475 235.40779 243.448 235.40779 244.241 234.9791 244.77 234.14519 245.082 233.65349 245.224 233.12999 245.224 232.60709 245.224 231.49179 244.518 230.3991 243.239 229.58798 242.341 229.0192 241.438 228.7179 240.644 228.7179M242.216 236.94499C241.196 236.94499 240.109 236.62119 239.061 235.9567 237.121 234.72519 236.414 232.9625 236.414 231.67589 236.414 230.84339 236.643 230.02548 237.119 229.275 238.196 227.57529 239.812 227.1603 240.904 227.16519 241.947 227.17049 243.046 227.51529 244.083 228.1744 245.333 228.96639 246.722 230.43808 246.722 232.43079 246.722 233.25839 246.486 234.07289 246.009 234.82729 245.125 236.22029 243.74 236.94499 242.216 236.94499" fill="#ffffff"/>
<path transform="matrix(1,0,0,-1,0,283.4644)" d="M214.146 248.7374C213.416 248.7374 212.359 249.0949 211.769 250.17299 211.484 250.69499 211.356 251.32869 211.356 251.9845 211.356 253.79259 212.561 256.3302 214.762 256.3302 215.997 256.3302 217.549 255.40979 217.549 253.12709 217.549 251.6715 216.524 248.7374 214.146 248.7374M214.666 257.74378C212.561 257.74378 210.729 256.3273 209.99 253.80919 209.826 253.2506 209.722 252.6964 209.722 252.15979 209.722 251.15099 209.892 250.35269 210.304 249.5983 211.239 247.88928 212.949 247.3068 214.249 247.3068 214.982 247.3068 215.69 247.47469 216.338 247.82869 218.042 248.7609 219.167 250.9235 219.167 252.9928 219.167 253.8908 218.993 254.7374 218.594 255.46199 217.774 256.95179 216.255 257.74378 214.666 257.74378" fill="#ffffff"/>
<path transform="matrix(1,0,0,-1,0,283.4644)" d="M158.732 221.1207 160.088 220.7374 158.557 215.1915 148.785 217.86978 150.454 223.4816 151.782 223.1061 150.556 219.06308 153.25 218.3234 154.29 221.99619 155.589 221.62659 154.554 217.96549 157.602 217.129 158.732 221.1207" fill="#ffffff"/>
<path transform="matrix(1,0,0,-1,0,283.4644)" d="M161.294 242.21889C162.698 243.79109 164.132 243.6832 164.132 243.6832L164.377 242.3507C164.377 242.3507 163.271 242.3151 162.405 241.3449 162.028 240.922 161.838 240.48059 161.838 240.08359 161.838 239.75598 161.965 239.47029 162.222 239.24089 162.922 238.61829 164.117 239.31119 164.866 239.611 165.441 239.84929 166.258 240.1818 167.076 240.1818 167.686 240.1818 168.316 240.00839 168.893 239.49379 169.565 238.89319 169.902 238.13979 169.902 237.3483 169.902 236.49039 169.569 235.72769 168.898 234.97669 167.61 233.53429 165.878 233.37709 165.878 233.37709L165.534 234.72769C166.555 234.96349 167.327 235.3561 167.795 235.88199 168.164 236.2941 168.345 236.75598 168.345 237.16219 168.345 237.54309 168.186 237.89809 167.874 238.17688 167.622 238.402 167.314 238.48299 166.98 238.4762 166.331 238.4762 165.554 238.10459 164.913 237.83798 163.686 237.3317 162.392 236.92299 161.234 237.95769 160.644 238.484 160.331 239.14659 160.331 239.88149 160.331 240.65879 160.638 241.4845 161.294 242.21889" fill="#ffffff"/>
<path transform="matrix(1,0,0,-1,0,283.4644)" d="M246.907 184.27259C246.451 184.27159 245.678 184.53379 245.386 185.28679 245.312 185.47769 245.282 185.67148 245.284 185.8678 245.289 186.42049 245.551 186.99478 245.82 187.59879L245.992 187.98789 248.903 186.67978 248.581 185.90048C248.037 184.6666 247.685 184.27408 246.907 184.27259M240.945 190.26039 244.761 188.53379 244.573 188.1041C244.053 186.92839 243.854 186.73839 242.262 186.73108L239.371 186.72859 238.681 185.17049 242.014 185.18129C242.689 185.18079 243.214 185.17978 243.625 185.33798 243.758 185.38979 243.911 185.47379 244.05 185.5875 244.042 185.5011 244.012 185.41709 244.011 185.33069 244.008 184.9596 244.077 184.59189 244.216 184.26969 244.672 183.20299 245.917 182.681 246.827 182.68299 248.434 182.685 249.048 183.64609 249.829 185.41419 249.858 185.48009 250.767 187.5783 250.767 187.5783L241.585 191.71399 240.945 190.26039" fill="#ffffff"/>
<path transform="matrix(1,0,0,-1,0,283.4644)" d="M239.225 173.10498C238.422 173.10498 237.669 173.41399 236.885 174.03998 236.09 174.67499 235.248 175.66399 235.248 176.926 235.248 177.80298 235.724 178.63899 236.456 179.55699L237.125 180.39499 242.892 175.79199 242.452 175.23999C241.38 173.89798 240.65 173.10498 239.225 173.10498M235.626 180.708C234.579 179.39699 233.785 178.22499 233.785 176.70999 233.785 175.42499 234.369 173.96298 235.845 172.784 236.824 172.00199 237.931 171.57799 239.072 171.57799 240.477 171.57799 241.604 172 243.353 174.193L244.949 176.19899 237.057 182.5 235.626 180.708" fill="#ffffff"/>
<path transform="matrix(1,0,0,-1,0,283.4644)" d="M234.687 161.49799C225.289 158.17299 216.516 158.40099 209.034 160.073 209.279 163.41498 210.66 166.987 212.776 167.65099 229.257 172.763 241.261 188.12859 241.261 206.23938 241.261 228.51479 223.104 246.63689 200.788 246.63689 178.47 246.63689 160.314 228.51479 160.314 206.23938 160.314 193.84729 166.102 182.07599 175.845 174.443 173.532 173.426 171.558 171.78199 170.131 169.73398 169.392 170.237 168.68 170.75899 168.021 171.29999L167.653 170.931C168.094 170.39899 168.777 169.69599 169.599 168.909 168.399 166.89099 167.705 164.54199 167.705 162.03 167.705 161.63899 167.731 161.254 167.763 160.87099 153.263 171.439 144.648 188.2374 144.648 206.23938 144.648 237.193 169.833 262.3751 200.788 262.3751 231.743 262.3751 256.927 237.193 256.927 206.23938 256.927 188.50888 248.821 172.21999 234.687 161.49799M202.119 148.247C194.362 148.247 184.681 150.88399 178.029 154.80799 176.013 155.99698 173.611 158.208 173.611 161.98899 173.611 163.00899 173.811 163.98299 174.165 164.879 176.647 162.82599 179.214 160.902 180.824 160.021 181.194 159.818 181.408 159.719 181.839 159.719 182.872 159.719 183.709 160.56 183.709 161.59699 183.709 162.38999 183.28 163.03299 182.569 163.34299 181.194 163.94499 178.314 165.13498 175.214 166.74199 176.647 168.63399 178.906 169.86299 181.45 169.86299 182.613 169.86299 183.733 169.61399 184.777 169.12099L186.903 167.88199C193.663 163.75299 211.054 153.165 232.052 158.98299 224.082 151.79099 214.265 148.247 202.119 148.247M208.767 143.52199C206.634 143.52199 204.884 142.012 204.884 139.69499 204.884 137.428 206.658 135.86899 208.767 135.86899 209.088 135.86899 209.394 135.92299 209.691 136.00099 209.246 132.79299 205.51 129.202 200.691 127.58899 195.91 129.18799 192.175 132.80599 191.681 135.997 191.976 135.92198 192.281 135.86899 192.6 135.86899 194.9 135.86899 196.482 137.47899 196.482 139.69499 196.482 141.80799 194.823 143.46599 192.683 143.51299 193.336 144.70699 193.962 145.97499 194.425 147.33699 197.077 146.87599 199.689 146.62299 202.119 146.62299 204.11 146.62299 206.044 146.73099 207.933 146.92299 208.183 145.82799 208.556 144.68399 208.993 143.50199 208.917 143.506 208.844 143.52199 208.767 143.52199M181.327 173.97599C185.317 173.97599 189.051 171.92899 191.241 168.65 189.324 169.13599 187.441 169.76898 185.604 170.55199L185.598 170.54099 185.539 170.57498C184.254 171.18 182.879 171.487 181.45 171.487 178.27 171.487 175.457 169.92798 173.719 167.54399 172.987 167.94899 172.256 168.375 171.539 168.82099 173.691 171.931 177.273 173.97599 181.327 173.97599M197.125 166.012C196.631 165.64499 196.235 165.206 195.953 164.72299 194.489 165.43299 192.649 166.34999 191.447 167.02298 193.15 166.646 195.375 166.168 197.125 166.012M209.412 166.77399C208.25 165.116 207.558 162.81 207.352 160.47599 203.683 161.422 200.354 162.69199 197.451 164.01599 198.002 165.08499 199.583 165.84099 200.788 165.84099 203.748 165.84099 206.63 166.16899 209.412 166.77399M200.788 167.465C198.309 167.465 195.868 167.70398 193.475 168.16098 191.167 172.68698 186.437 175.59999 181.327 175.59999 180.071 175.59999 178.861 175.41599 177.706 175.09799 167.883 182.39699 162.025 194.00359 162.025 206.23938 162.025 227.6193 179.414 245.01279 200.788 245.01279 222.161 245.01279 239.55 227.6193 239.55 206.23938 239.55 184.8595 222.161 167.465 200.788 167.465M181.327 150.08599C174.758 150.08599 169.416 155.443 169.416 162.03 169.416 164.09299 169.94 166.03598 170.863 167.732 171.476 167.17499 172.131 166.59699 172.812 166.01399 172.233 164.78998 171.9 163.42899 171.9 161.98899 171.9 158.40599 173.708 155.44599 177.126 153.42899 179.089 152.271 181.312 151.22599 183.666 150.316 182.901 150.16399 182.12 150.08599 181.327 150.08599M258.638 206.23938C258.638 238.08798 232.686 263.99919 200.788 263.99919 168.889 263.99919 142.937 238.08798 142.937 206.23938 142.937 187.13249 152.372 169.323 168.18 158.53099 169.735 152.743 175.031 148.46199 181.327 148.46199 183.029 148.46199 184.679 148.78299 186.248 149.38999 188.365 148.691 190.551 148.11199 192.732 147.663 192.119 145.909 191.221 144.24599 190.368 142.80799 190.368 142.80799 190.386 142.812 190.415 142.818 190.399 142.80699 190.381 142.799 190.366 142.788L191.571 141.583C191.878 141.75099 192.225 141.85599 192.6 141.85599 193.791 141.85599 194.759 140.887 194.759 139.69499 194.759 138.50499 193.791 137.53499 192.6 137.53499 191.56 137.53499 190.648 138.202 190.17 138.91399 190.17 138.91399 189.889 137.943 189.889 136.66199 189.881 132.512 194.41 127.77299 200.691 125.77399 206.966 127.72699 211.496 132.50199 211.493 136.65499 211.493 138.08399 211.211 138.91399 211.211 138.91399 210.728 138.33399 209.947 137.53499 208.767 137.53499 207.576 137.53499 206.607 138.50499 206.607 139.69499 206.607 140.887 207.576 141.85599 208.767 141.85599 209.184 141.85599 209.571 141.73099 209.902 141.525L211.071 142.69399C211.098 142.687 211.115 142.68299 211.115 142.68299 210.454 144.26399 209.971 145.71799 209.642 147.11399 220.044 148.51499 228.82 152.91699 235.799 160.254L235.793 160.26099C250.312 171.293 258.638 188.0289 258.638 206.23938" fill="#ffffff"/>
</g>
</g>
</svg>
