<svg xmlns="http://www.w3.org/2000/svg" xmlns:xlink="http://www.w3.org/1999/xlink" version="1.1" width="124.078pt" height="114.534pt" viewBox="0 0 124.078 114.534">
<defs>
<clipPath id="clip_0">
<path transform="matrix(1,0,0,-1,0,114.625)" d="M0 0H954.447V114.625H0Z"/>
</clipPath>
<clipPath id="clip_1">
<path transform="matrix(1,0,0,-1,0,114.625)" d="M0 114.625H954.447V0H0Z"/>
</clipPath>
</defs>
<g clip-path="url(#clip_0)">
<g id="layer_1" data-name="">
<g clip-path="url(#clip_1)">
<path transform="matrix(1,0,0,-1,231.0889,46.8369)" d="M0 0C.098-.459 .153-.948 .153-1.438 .153-5.1-2.816-8.062-6.471-8.062-10.129-8.062-13.098-5.1-13.098-1.438-13.098 2.225-10.129 5.192-6.471 5.192-3.306 5.192-.664 2.971 0 0" fill="#ed1c24"/>
<path transform="matrix(1,0,0,-1,231.0889,63.0518)" d="M0 0C.098-.461 .153-.946 .153-1.439 .153-5.101-2.816-8.071-6.471-8.071-10.129-8.071-13.098-5.101-13.098-1.439-13.098 2.222-10.129 5.186-6.471 5.186-3.306 5.186-.664 2.967 0 0" fill="#ed1c24"/>
<path transform="matrix(1,0,0,-1,251.3516,41.868204)" d="M0 0V-18.037C0-22.356 1.6-24.436 5.559-24.436 9.559-24.436 11.158-22.396 11.158-18.037V0H17.077V-18.677C17.077-25.795 12.958-29.635 5.599-29.635-1.839-29.635-5.959-25.795-5.959-18.677V0Z" fill="#231f20"/>
<path transform="matrix(1,0,0,-1,273.4126,49.466798)" d="M0 0H5.559V-2.52C7.159-.48 9.318 .56 11.998 .56 16.677 .56 18.997-1.879 18.997-6.759V-21.236H13.318V-8.398C13.318-5.519 12.478-4.159 10.039-4.159 7.399-4.159 5.679-5.839 5.679-8.639V-21.236H0Z" fill="#231f20"/>
<path transform="matrix(1,0,0,-1,0,114.625)" d="M297 65.158H302.679V43.921998H297ZM297 72.677H302.679V67.518009H297Z" fill="#231f20"/>
<path transform="matrix(1,0,0,-1,305.0361,49.466798)" d="M0 0H6.279L10.638-15.237 15.038 0H21.037L13.438-21.236H7.639Z" fill="#231f20"/>
<path transform="matrix(1,0,0,-1,340.8652,57.8652)" d="M0 0C-.08 2.879-1.56 4.399-4.199 4.399-6.639 4.399-8.119 2.879-8.358 0ZM5.599-6.399C4.439-10.838 .8-13.558-4.239-13.558-10.278-13.558-14.237-9.238-14.237-2.08-14.237 4.879-10.438 9.158-4.319 9.158 2.16 9.158 5.879 5.079 5.879-2.24 5.879-2.72 5.879-3.2 5.839-3.719H-8.358C-8.198-7.039-6.719-8.759-3.959-8.759-2.04-8.759-.8-8.039-.08-6.399Z" fill="#231f20"/>
<path transform="matrix(1,0,0,-1,350.2993,49.466798)" d="M0 0H5.279V-3.639C6.759-.72 8.679 .6 11.398 .6 11.678 .6 11.958 .6 12.238 .56V-5.199H10.358C7.279-5.199 5.679-6.799 5.679-9.998V-21.236H0Z" fill="#231f20"/>
<path transform="matrix(1,0,0,-1,369.8979,63.7842)" d="M0 0C.08-2.16 1.52-3.2 4.439-3.2 6.719-3.2 7.918-2.4 7.918-1.08 7.918 .76 6.079 .64 2.319 1.6-2.68 2.879-5.039 4.399-5.039 7.999-5.039 12.278-1.76 15.077 3.679 15.077 9.398 15.077 12.758 12.398 12.958 7.838H7.438C7.358 9.638 6.039 10.678 3.719 10.678 1.56 10.678 .52 10.038 .52 8.718 .52 7.239 2.279 7.079 6.319 6.119 11.238 4.959 13.638 3.599 13.638-.24 13.638-5.039 10.198-7.639 3.679-7.639-2.24-7.639-5.679-4.799-5.679-.24V0Z" fill="#231f20"/>
<path transform="matrix(1,0,0,-1,0,114.625)" d="M387.106 65.158H392.78498V43.921998H387.106ZM387.106 72.677H392.78498V67.518009H387.106Z" fill="#231f20"/>
<path transform="matrix(1,0,0,-1,403.8452,70.982898)" d="M0 0C-4.68 0-5.68 1.6-5.68 6.039V17.517H-8.479V21.516H-5.68V27.315H-.04V21.516H3.239V17.517H-.04V5.759C-.04 4.639 .319 4.399 1.84 4.399H3.239V.12C1.68 .08 .6 0 0 0" fill="#231f20"/>
<path transform="matrix(1,0,0,-1,411.7612,74.623)" d="M0 0C.52-.08 1-.08 1.32-.08 3.56-.08 4.68 .961 4.68 3.08 4.68 3.24 4.64 3.48 4.56 3.68L-3.079 25.156H3.159L7.639 9.839 11.998 25.156H17.957L9.238 .121C7.999-3.479 6.479-4.758 2.399-4.758 1.8-4.758 1-4.719 0-4.6Z" fill="#231f20"/>
<path transform="matrix(1,0,0,-1,453.4399,66.663608)" d="M0 0C3.159 0 4.959 2.359 4.959 6.599 4.959 10.838 3.159 13.158 0 13.158-3.16 13.158-4.999 10.838-4.999 6.599-4.999 2.359-3.16 0 0 0M0 17.957C6.679 17.957 10.758 13.677 10.758 6.599 10.758-.48 6.679-4.759 0-4.759-6.679-4.759-10.759-.48-10.759 6.599-10.759 13.677-6.679 17.957 0 17.957" fill="#231f20"/>
<path transform="matrix(1,0,0,-1,468.5679,53.4658)" d="M0 0H-3.04V3.999H0V5.959C0 9.958 2 11.718 6.358 11.718 7.198 11.718 8.078 11.678 9.078 11.598V7.079H7.599C6.039 7.079 5.519 6.839 5.519 5.479V3.999H9.078V0H5.559V-17.237H0Z" fill="#231f20"/>
<path transform="matrix(1,0,0,-1,505.1665,66.343708)" d="M0 0C5.039 0 8.078 3.599 8.078 9.998 8.078 16.397 5.039 19.997 0 19.997-5 19.997-7.999 16.397-7.999 9.998-7.999 3.599-5 0 0 0M0 25.156C8.598 25.156 14.077 19.277 14.077 9.998 14.077 .72 8.598-5.159 0-5.159-8.599-5.159-14.038 .72-14.038 9.998-14.038 19.277-8.599 25.156 0 25.156" fill="#231f20"/>
<path transform="matrix(1,0,0,-1,527.6147,63.7842)" d="M0 0C.08-2.16 1.52-3.2 4.439-3.2 6.719-3.2 7.919-2.4 7.919-1.08 7.919 .76 6.079 .64 2.319 1.6-2.68 2.879-5.039 4.399-5.039 7.999-5.039 12.278-1.76 15.077 3.68 15.077 9.398 15.077 12.758 12.398 12.958 7.838H7.438C7.358 9.638 6.039 10.678 3.719 10.678 1.56 10.678 .52 10.038 .52 8.718 .52 7.239 2.279 7.079 6.318 6.119 11.238 4.959 13.638 3.599 13.638-.24 13.638-5.039 10.198-7.639 3.68-7.639-2.24-7.639-5.68-4.799-5.68-.24V0Z" fill="#231f20"/>
<path transform="matrix(1,0,0,-1,0,114.625)" d="M544.863 72.677H550.542V43.922006H544.863Z" fill="#231f20"/>
<path transform="matrix(1,0,0,-1,564.9214,66.663608)" d="M0 0C3.159 0 4.959 2.359 4.959 6.599 4.959 10.838 3.159 13.158 0 13.158-3.16 13.158-4.999 10.838-4.999 6.599-4.999 2.359-3.16 0 0 0M0 17.957C6.679 17.957 10.758 13.677 10.758 6.599 10.758-.48 6.679-4.759 0-4.759-6.679-4.759-10.759-.48-10.759 6.599-10.759 13.677-6.679 17.957 0 17.957" fill="#231f20"/>
<path transform="matrix(1,0,0,-1,158.9463,60.4053)" d="M0 0C0-1.977-.233-3.65-.699-5.022-1.168-6.396-1.88-7.508-2.841-8.358-3.801-9.212-5.001-9.826-6.444-10.211-7.883-10.594-9.593-10.785-11.567-10.785-13.244-10.785-14.774-10.603-16.159-10.232-17.547-9.861-18.734-9.264-19.722-8.44-20.71-7.618-21.479-6.548-22.026-5.232-22.576-3.911-22.851-2.291-22.851-.372V16.673L-26.144 17.29V18.527H-15.935V17.29L-19.228 16.673V-1.729C-19.228-4.007-18.514-5.799-17.087-7.104-15.659-8.406-13.561-9.059-10.787-9.059-7.877-9.059-5.772-8.384-4.468-7.038-3.164-5.696-2.512-3.57-2.512-.66V16.673L-5.805 17.29V18.527H3.293V17.29L0 16.673Z" fill="#231f20"/>
<path transform="matrix(1,0,0,-1,171.3525,52.9932)" d="M0 0V-15.853L3.293-16.471V-17.706H-6.465V-16.471L-3.171-15.853V.41L-6.465 1.645V2.345L0 3.375 .164 3.29Z" fill="#231f20"/>
<path transform="matrix(1,0,0,-1,199,46.366205)" d="M0 0C-1.647 2.168-3.967 3.251-6.958 3.251-10.006 3.251-12.35 2.203-13.999 .104-15.646-1.998-16.468-5.297-16.468-9.799-16.468-14.354-15.66-17.712-14.04-19.864-12.42-22.021-10.089-23.098-7.04-23.098-3.993-23.098-1.647-22.043 0-19.927 1.646-17.813 2.47-14.521 2.47-10.046 2.47-5.517 1.646-2.168 0 0M2.964-21C.575-23.55-2.813-24.824-7.205-24.824-11.404-24.824-14.68-23.585-17.025-21.101-19.372-18.617-20.545-14.974-20.545-10.17-20.545-7.672-20.224-5.476-19.577-3.582-18.933-1.688-18.021-.109-16.839 1.153-15.66 2.418-14.225 3.368-12.537 4.013-10.849 4.658-8.962 4.982-6.877 4.982-4.789 4.982-2.918 4.665-1.257 4.036 .403 3.403 1.812 2.465 2.964 1.214 4.115-.036 5.002-1.578 5.62-3.417 6.237-5.257 6.545-7.386 6.545-9.799 6.545-14.711 5.353-18.447 2.964-21" fill="#231f20"/>
<path transform="matrix(1,0,0,-1,167.7471,43.5625)" d="M0 0C0-.602 .199-1.104 .597-1.501 .994-1.899 1.496-2.098 2.099-2.098 2.703-2.098 3.212-1.899 3.623-1.501 4.035-1.104 4.241-.602 4.241 0 4.241 .604 4.035 1.113 3.623 1.525 3.212 1.939 2.703 2.142 2.099 2.142 1.496 2.142 .994 1.939 .597 1.525 .199 1.113 0 .604 0 0" fill="#231f20"/>
<path transform="matrix(1,0,0,-1,58.8647,9.625)" d="M0 0C-26.354 0-47.722-21.372-47.722-47.729-47.722-74.084-26.354-95.452 0-95.452 26.361-95.452 47.729-74.084 47.729-47.729 47.729-21.372 26.361 0 0 0" fill="#ed1c24"/>
<path transform="matrix(1,0,0,-1,13.4941,57.3535)" d="M0 0C0-12.529 5.079-23.87 13.29-32.082 21.502-40.294 32.842-45.372 45.371-45.372 57.903-45.371 69.245-40.294 77.458-32.082 85.669-23.87 90.747-12.529 90.747 0 90.747 12.529 85.669 23.872 77.458 32.085 69.245 40.297 57.902 45.377 45.371 45.377 31.276 45.377 18.685 38.948 10.361 28.862 3.888 21.017 0 10.964 0 0M-.685 0C-.685 11.127 3.263 21.337 9.833 29.298 18.279 39.535 31.065 46.062 45.371 46.062 70.811 46.062 91.432 25.436 91.433 0 91.432-25.435 70.811-46.057 45.371-46.058 19.937-46.057-.685-25.435-.685 0" fill="#ffffff"/>
<path transform="matrix(1,0,0,-1,22.9297,76.0371)" d="M0 0C.007 .602 .5 1.084 1.103 1.076 1.704 1.069 2.187 .576 2.18-.026 2.173-.628 1.679-1.11 1.077-1.104 .475-1.096-.007-.603 0 0" fill="#ffffff"/>
<path transform="matrix(1,0,0,-1,92.2505,76.6875)" d="M0 0C.007 .602 .5 1.084 1.103 1.076 1.704 1.069 2.187 .576 2.179-.025 2.172-.628 1.679-1.11 1.077-1.103 .475-1.096-.007-.603 0 0" fill="#ffffff"/>
<path transform="matrix(1,0,0,-1,89.7412,70.3975)" d="M0 0C-1.689-3.978-4.094-7.55-7.165-10.621-10.234-13.688-13.806-16.099-17.786-17.783-19.352-18.446-20.954-18.983-22.586-19.396L-22.625-18.729C-22.625-18.329-23.078-18.128-23.327-18.128L-24.764-18.15C-24.764-18.15-25.206-18.043-25.259-18.026-25.313-18.01-25.3-17.953-25.291-17.942-25.19-17.82-25.185-17.644-25.283-17.515L-26.379-16.085-26.344-15.068C-23.121-14.989-20.748-13.766-19.641-12.958-18.552-12.152-18.482-10.922-18.48-10.557-18.48-10.504-18.482-10.468-18.482-10.452L-18.516-7.597C-18.505-7.592-18.495-7.59-18.484-7.584L-18.485-7.583-15.431-5.869C-15.313-5.803-15.246-5.675-15.257-5.539L-17.262 16.804C-17.175 16.834-16.891 16.932-16.571 17.052-16.181 17.201-15.769 17.36-15.525 17.52-15.306 17.674-14.386 18.447-14.165 18.678-13.971 18.884-13.897 19.149-13.899 19.385-13.903 19.753-14.044 20.08-14.188 20.339-14.314 20.557-14.487 20.735-14.675 20.89-14.254 21.827-14.041 22.867-14.042 23.941-14.041 25.815-14.489 27.29-14.921 28.686-15.355 30.083-15.771 31.4-15.771 33.022-15.771 36.034-15.739 37.822-15.739 37.826-15.738 37.918-15.773 38.007-15.837 38.072-15.901 38.138-15.99 38.175-16.082 38.175-17.093 38.179-17.721 37.844-18.065 37.472-18.227 37.298-18.325 37.124-18.385 36.984H-24.564C-24.625 37.139-24.726 37.338-24.893 37.541-25.227 37.954-25.854 38.352-26.833 38.347-26.925 38.347-27.012 38.311-27.077 38.245-27.141 38.181-27.177 38.093-27.176 38.001-27.176 37.996-27.157 35.729-27.158 32.552-27.156 32.302-27.168 32.055-27.189 31.81-27.315 32.01-27.452 32.209-27.597 32.398-27.979 32.889-28.381 33.32-28.877 33.483-29.325 33.62-29.987 33.826-30.764 34.063-31.049 34.153-31.167 34.284-31.248 34.428-31.294 34.513-31.32 34.607-31.334 34.696L-30.956 34.688H-30.937C-30.596 34.7-30.305 34.745-30.056 34.848-29.811 34.946-29.586 35.131-29.503 35.404-29.461 35.544-29.447 35.678-29.447 35.797-29.448 35.932-29.464 36.049-29.481 36.135L-29.319 36.42C-29.266 36.513-29.26 36.623-29.299 36.718-29.225 36.787-29.185 36.888-29.191 36.991L-29.215 37.343C-29.199 37.346-29.182 37.349-29.164 37.352-29.06 37.371-28.952 37.396-28.839 37.446-28.783 37.474-28.722 37.506-28.659 37.569-28.596 37.629-28.528 37.743-28.529 37.876-28.531 37.969-28.55 38.188-28.579 38.531-28.653 39.375-28.788 40.806-28.83 41.25-28.689 41.438-28.449 41.824-28.438 42.326-28.437 42.649-28.532 43.03-28.827 43.328-29.114 43.619-29.561 43.79-30.159 43.797-30.424 43.867-31.807 44.234-32.207 44.294-32.504 44.336-32.902 44.405-33.371 44.405-34.17 44.408-35.181 44.192-36.278 43.344-37.696 42.227-37.812 40.227-37.822 39.337-37.822 39.165-37.816 39.032-37.811 38.954-37.858 38.812-37.93 38.517-37.93 38.047-37.93 37.789-37.909 37.479-37.85 37.112-37.712 36.224-37.163 35.688-36.678 35.411-36.432 35.27-36.199 35.185-36.026 35.135V34.483C-36.295 34.348-38.004 33.597-39.647 32.465-39.681 32.434-39.817 32.356-39.944 32.212-39.947 32.209-39.952 32.207-39.955 32.204L-58.42 13.533C-58.485 13.468-58.521 13.376-58.519 13.283-58.516 13.19-58.476 13.102-58.407 13.039-58.404 13.037-57.134 11.882-55.726 10.593-55.375 10.271-55.015 9.942-54.665 9.62L-58.049 4.978C-58.334 4.614-58.518 4.088-58.516 3.388-58.512 1.971-57.811-.182-55.66-3.53-53.207-7.344-51.327-9.103-50.635-9.681L-51.528-10.707C-51.559-10.739-51.845-11.042-52.14-11.433-52.295-11.636-52.452-11.863-52.576-12.093-52.605-12.15-52.634-12.206-52.66-12.263-53.265-11.738-53.854-11.191-54.426-10.62-57.493-7.55-59.901-3.978-61.582 0-63.328 4.115-64.212 8.493-64.212 13.011-64.212 17.519-63.328 21.893-61.582 26.011-59.901 29.997-57.493 33.567-54.426 36.639-51.352 39.704-47.784 42.114-43.802 43.8-39.68 45.539-35.308 46.419-30.791 46.42-26.282 46.419-21.907 45.539-17.786 43.8-13.806 42.114-10.234 39.704-7.165 36.639-4.093 33.567-1.689 29.997 0 26.012 1.739 21.894 2.621 17.519 2.621 13.011 2.621 8.493 1.739 4.115 0 0M-30.939-20.405C-28.981-20.068-27.252-19.427-25.987-18.515L-24.911-18.823C-24.872-18.835-24.831-18.84-24.79-18.838-24.79-18.838-23.789-18.784-23.706-18.778-23.421-18.761-23.293-18.929-23.291-18.988-23.289-19.049-23.282-19.122-23.282-19.122-23.282-19.122-23.27-19.3-23.387-19.416-23.494-19.522-24.266-19.736-24.547-19.825-26.591-20.211-28.676-20.407-30.791-20.407-30.84-20.407-30.89-20.405-30.939-20.405M-50.621-11.314C-50.498-11.317-50.36-11.319-50.206-11.32-47.486-11.319-40.243-10.695-34.965-4.474-30.621 .683-29.532 10.524-29.362 12.247L-28.001 12.344C-28.049 11.639-28.17 9.97-28.381 7.713-28.665 4.687-29.11 .613-29.757-3.574-30.404-7.763-31.184-11.914-31.801-15.017-32.257-17.313-32.625-19.029-32.785-19.771-32.8-19.837-32.884-19.96-33.043-19.96-33.42-19.96-33.8-19.994-34.185-19.993-35.435-19.994-36.724-19.877-37.998-19.631-38.664-19.484-39.326-19.318-39.983-19.131-44.704-17.643-47.444-15.54-49.007-13.837-49.79-12.982-50.278-12.224-50.568-11.683-50.615-11.596-50.657-11.516-50.693-11.44-50.733-11.359-50.688-11.313-50.621-11.314M-50.456-10.519C-50.37-10.42-41.138 .18-41.138 .18-41.104 .219-41.079 .265-41.066 .314-41.066 .314-38.334 10.395-38.315 10.466-38.296 10.536-38.225 10.556-38.225 10.556-38.225 10.556-33.383 11.881-33.197 11.935-33.01 11.987-32.742 12.01-32.742 12.01L-30.053 12.199C-30.085 11.886-30.14 11.382-30.229 10.733-30.687 7.326-32.081-.026-35.488-4.03-40.56-10.023-47.578-10.636-50.206-10.635-50.264-10.635-50.32-10.635-50.374-10.634-50.474-10.634-50.542-10.618-50.456-10.519M-23.343 34.676V32.002C-23.573 31.874-23.75 31.763-23.847 31.705-24.156 31.508-24.573 31.135-24.653 31.064L-24.655 31.063C-24.535 31.976-24.449 33.127-24.438 34.676ZM-21.787 34.676V32.632C-22.087 32.567-22.384 32.463-22.658 32.344V34.676ZM-20.283 34.676V32.571C-20.53 32.663-20.806 32.694-21.102 32.698V34.676ZM-18.976 30.27C-19.015 30.392-19.092 30.574-19.327 30.653-19.388 30.671-19.453 30.688-19.514 30.701-19.516 30.917-19.518 31.218-19.518 31.452-19.514 31.617-19.543 31.775-19.598 31.919V34.676H-18.523C-18.505 31.851-18.259 30.174-18.012 28.958-17.754 27.69-17.513 26.962-17.514 25.949-17.513 24.859-17.934 23.821-18.623 23.063-18.907 22.751-19.236 22.487-19.598 22.283V28.946C-19.574 28.949-19.548 28.952-19.527 28.954-19.493 28.957-19.464 28.961-19.442 28.963-19.421 28.965-19.413 28.964-19.413 28.965-19.285 28.965-19.194 29.027-19.149 29.071-19.003 29.233-19.006 29.328-18.967 29.462-18.941 29.589-18.926 29.732-18.925 29.877-18.926 30.008-18.936 30.137-18.976 30.27M-21.102 21.834V28.713C-20.787 28.79-20.512 28.86-20.41 28.886H-20.283V21.987C-20.545 21.905-20.818 21.854-21.102 21.834M-22.658 22.009V28.423C-22.597 28.427-22.538 28.429-22.491 28.429-22.35 28.432-22.207 28.464-21.99 28.507-21.926 28.521-21.858 28.536-21.787 28.552V21.848C-22.085 21.875-22.376 21.93-22.658 22.009M-25.521 25.102C-24.72 26.083-23.838 27.288-23.343 27.974V22.259C-23.686 22.417-24.003 22.615-24.284 22.854-24.928 23.405-25.382 24.152-25.521 25.102M-25.386 12.566-25.137 12.617C-24.979 12.649-24.864 12.79-24.864 12.952L-24.852 17.396C-23.938 17.026-22.875 16.813-21.665 16.813H-21.653C-20.876 16.813-20.154 16.899-19.486 17.055L-19.167-10.47V-10.488C-19.167-10.488-19.165-10.507-19.165-10.557-19.163-10.839-19.238-11.825-20.045-12.404-21.045-13.137-23.288-14.302-26.32-14.383ZM-36.838 20.488C-37.378 21.23-38.953 23.436-39.485 27.456-39.448 27.414-39.411 27.372-39.373 27.332-38.803 26.735-38.157 26.339-37.771 26.141-34.34 24.302-28.829 22.133-28.823 22.13-28.82 22.129-28.816 22.128-28.813 22.127-28.764 21.897-28.7 21.671-28.627 21.446L-33.797 21.13C-33.797 21.13-34.404 21.104-34.842 20.979-35.371 20.829-36.58 20.486-36.661 20.459-36.762 20.427-36.82 20.463-36.838 20.488M-38.943 11.841C-38.943 11.841-36.715 19.541-36.685 19.645-36.655 19.748-36.552 19.777-36.552 19.777-36.552 19.777-34.921 20.234-34.662 20.318-34.402 20.402-33.976 20.434-33.976 20.434L-28.372 20.777C-28.079 20.12-27.678 19.5-27.16 18.954-26.706 18.475-26.164 18.056-25.536 17.717-25.536 17.717-25.547 13.455-25.547 13.374-25.547 13.293-25.587 13.202-25.767 13.188-25.946 13.173-31.403 12.79-32.763 12.694-32.957 12.682-33.187 12.647-33.395 12.591-33.603 12.533-38.354 11.23-38.354 11.23-38.354 11.23-38.516 11.205-38.598 11.269-38.679 11.334-38.721 11.367-38.867 11.483-39.013 11.6-38.943 11.841-38.943 11.841M-26.998-16.404C-26.998-16.404-26.109-17.556-26.075-17.607-26.041-17.659-26.067-17.72-26.092-17.739-27.437-18.837-29.616-19.604-32.108-19.88-31.716-18.068-30.202-10.938-29.08-3.679-27.924 3.807-27.411 10.914-27.311 12.392-27.311 12.392-26.412 12.45-26.254 12.466-26.098 12.481-26.078 12.389-26.081 12.293-26.084 12.196-27.068-16.185-27.068-16.185-27.071-16.264-27.045-16.342-26.998-16.404M-15.969-5.278C-15.969-5.278-15.957-5.378-16.037-5.424-16.117-5.469-18.525-6.82-18.525-6.82L-18.804 17.242C-18.531 17.331-18.269 17.435-18.017 17.549ZM-16.975 18.499C-17.16 18.76-17.22 18.937-17.218 19.052-17.218 19.092-17.212 19.128-17.2 19.171H-17.198C-17.172 19.234-16.967 19.454-16.784 19.609-16.599 19.771-16.433 19.896-16.433 19.897-16.336 19.957-16.274 20.111-16.282 20.203-16.288 20.34-16.323 20.388-16.344 20.441-16.368 20.489-16.393 20.531-16.411 20.57-16.434 20.621-16.449 20.735-16.346 20.838-16.229 20.955-16.065 20.907-16.03 20.893-15.905 20.842-15.695 20.746-15.494 20.626-15.195 20.452-14.895 20.207-14.784 20.002-14.672 19.809-14.581 19.556-14.585 19.385-14.586 19.271-14.632 19.185-14.688 19.122-14.798 18.997-15.804 18.152-15.908 18.088-16.015 18.012-16.446 17.828-16.812 17.693-16.918 17.653-17.021 17.615-17.113 17.582-17.239 17.529-17.259 17.612-17.259 17.612-17.259 17.612-17.284 17.688-17.234 17.735-17.177 17.782-17.119 17.835-17.063 17.896-17.003 17.976-16.914 18.05-16.9 18.264-16.899 18.336-16.923 18.427-16.975 18.499M-26.487 37.458C-26.487 37.608-26.435 37.633-26.41 37.63-25.887 37.547-25.604 37.321-25.421 37.105-25.309 36.97-25.24 36.832-25.201 36.731-25.182 36.681-25.169 36.64-25.162 36.613-25.159 36.6-25.157 36.591-25.156 36.586L-25.155 36.585C-25.127 36.421-24.984 36.3-24.817 36.3H-18.135C-17.965 36.3-17.822 36.424-17.796 36.592-17.79 36.625-17.736 36.841-17.522 37.047-17.343 37.215-17.049 37.397-16.516 37.464-16.443 37.479-16.431 37.408-16.431 37.345-16.431 36.638-16.456 35.163-16.456 33.022-16.456 31.279-16.006 29.874-15.575 28.482-15.143 27.088-14.727 25.705-14.727 23.941-14.727 22.998-14.906 22.095-15.254 21.277-15.562 21.448-15.819 21.553-15.961 21.594-16.01 21.606-16.059 21.612-16.104 21.612-16.375 21.601-16.549 21.48-16.722 21.361-16.89 21.225-17.019 21.129-17.116 20.917-17.143 20.847-17.154 20.774-17.154 20.708-17.15 20.521-17.086 20.392-17.037 20.292-17.108 20.234-17.191 20.165-17.277 20.088-17.388 19.988-17.504 19.879-17.605 19.765-17.706 19.647-17.796 19.544-17.854 19.373-17.886 19.27-17.903 19.161-17.903 19.052-17.902 18.843-17.844 18.648-17.748 18.456-18.784 17.854-20.084 17.5-21.653 17.499-23.939 17.501-25.577 18.285-26.663 19.426-27.472 20.276-27.973 21.336-28.176 22.433-27.838 22.718-27.247 23.239-26.495 23.992-26.368 24.121-26.228 24.272-26.081 24.438-25.839 23.58-25.357 22.865-24.728 22.332-23.851 21.587-22.7 21.185-21.509 21.148-21.488 21.145-21.467 21.142-21.445 21.142-21.436 21.142-21.427 21.144-21.418 21.145-21.39 21.144-21.363 21.141-21.335 21.141-18.761 21.148-16.833 23.425-16.829 25.949-16.83 27.082-17.094 27.873-17.341 29.095-17.589 30.32-17.839 32.021-17.839 35.019-17.839 35.108-17.876 35.196-17.94 35.26-18.003 35.324-18.092 35.36-18.182 35.36H-24.779C-24.87 35.36-24.958 35.324-25.021 35.261-25.085 35.196-25.122 35.108-25.122 35.019-25.123 32.873-25.26 31.496-25.438 30.468L-26.987 29.291C-26.864 29.736-26.753 30.188-26.667 30.65-26.661 30.67-26.657 30.689-26.655 30.71-26.545 31.305-26.476 31.917-26.473 32.552-26.473 34.803-26.482 36.6-26.487 37.458M-37.219 32.235C-36.696 32.237-36.228 32.085-35.956 31.809-35.511 31.364-35.031 30.759-34.667 30.268-34.302 29.776-34.054 29.402-34.053 29.401-34.028 29.363-33.997 29.332-33.959 29.307L-29.855 26.543C-29.733 26.46-29.574 26.465-29.457 26.554L-24.23 30.525-24.208 30.544C-24.208 30.544-24.092 30.648-23.94 30.775-23.79 30.901-23.6 31.052-23.482 31.125-23.21 31.305-22.057 31.988-21.323 32.009-21.258 32.012-21.196 32.014-21.137 32.014-20.783 32.016-20.522 31.954-20.393 31.868-20.269 31.779-20.212 31.708-20.203 31.452-20.203 31.034-20.196 30.417-20.196 30.417-20.194 30.251-20.075 30.141-19.912 30.112-19.783 30.112-19.61 30.075-19.61 29.877-19.61 29.65-19.765 29.616-19.838 29.607-19.963 29.592-20.081 29.577-20.129 29.57L-20.452 29.571-20.538 29.561C-20.539 29.561-20.979 29.446-21.453 29.333-21.689 29.276-21.934 29.219-22.132 29.178-22.23 29.157-22.318 29.14-22.385 29.128-22.418 29.123-22.446 29.118-22.466 29.116-22.486 29.113-22.491 29.114-22.491 29.113-22.793 29.112-23.262 29.061-23.269 29.06-23.366 29.049-23.455 28.996-23.511 28.917-23.513 28.915-24.09 28.094-24.816 27.125-25.541 26.157-26.418 25.037-26.979 24.476-27.563 23.892-28.047 23.45-28.384 23.156-28.489 23.064-28.58 22.988-28.655 22.926-28.693 22.894-28.787 22.852-28.884 22.892-29.386 23.098-30.456 23.526-31.745 24.077-33.543 24.846-35.768 25.844-37.454 26.747-37.79 26.919-38.385 27.286-38.877 27.805-38.93 27.86-38.981 27.919-39.032 27.978-39.048 27.997-39.064 28.017-39.08 28.035-39.117 28.081-39.154 28.128-39.189 28.176-39.216 28.213-39.243 28.251-39.269 28.288-39.291 28.32-39.312 28.353-39.333 28.386-39.357 28.424-39.381 28.463-39.404 28.502-39.413 28.519-39.421 28.535-39.43 28.551-39.476 28.634-39.518 28.72-39.555 28.807-39.56 28.819-39.565 28.831-39.571 28.843-39.591 28.895-39.611 28.945-39.628 28.997V28.998C-39.629 28.999-39.629 29-39.629 29.001-39.66 29.093-39.685 29.187-39.705 29.283-39.713 29.324-39.721 29.365-39.728 29.407-39.732 29.438-39.737 29.471-39.74 29.502-39.749 29.582-39.755 29.661-39.755 29.743-39.755 29.797-39.752 29.852-39.749 29.906-39.745 29.951-39.74 29.998-39.734 30.044-39.733 30.052-39.732 30.06-39.731 30.067-39.716 30.177-39.693 30.289-39.661 30.403V30.404 30.405C-39.642 30.475-39.619 30.545-39.594 30.617-39.592 30.621-39.591 30.624-39.59 30.628-39.566 30.693-39.539 30.762-39.509 30.829-39.504 30.839-39.5 30.849-39.496 30.858-39.468 30.921-39.436 30.985-39.402 31.05-39.395 31.063-39.388 31.078-39.38 31.093-39.338 31.17-39.293 31.248-39.243 31.329-38.933 31.85-38.039 32.244-37.219 32.235M-33.867 31.58C-33.807 31.532-33.732 31.508-33.656 31.508H-33.633L-29.647 31.779C-29.516 31.788-29.402 31.87-29.353 31.992-29.303 32.113-29.328 32.251-29.415 32.349L-30.132 33.152C-29.715 33.024-29.355 32.913-29.078 32.828-28.865 32.774-28.473 32.43-28.142 31.983-27.828 31.573-27.54 31.087-27.351 30.695-27.492 29.988-27.695 29.291-27.91 28.589L-29.676 27.247-33.521 29.838C-33.716 30.126-34.611 31.429-35.472 32.293-35.928 32.744-36.574 32.92-37.219 32.921-37.338 32.92-37.458 32.913-37.578 32.9-37.409 32.993-37.24 33.083-37.076 33.17-36.825 33.303-36.585 33.428-36.371 33.538ZM-29.897 37.266C-29.897 37.266-29.892 37.159-29.982 37.108-30.073 37.058-30.135 36.968-30.152 36.865-30.169 36.763-30.125 36.665-30.069 36.581-30.056 36.561-30.053 36.517-30.076 36.476-30.099 36.435-30.144 36.356-30.144 36.356-30.192 36.272-30.202 36.173-30.172 36.081L-30.168 36.067C-30.157 36.027-30.132 35.914-30.132 35.797-30.132 35.73-30.186 35.539-30.319 35.48-30.447 35.426-30.663 35.383-30.947 35.373L-31.669 35.388C-31.836 35.392-31.982 35.272-32.012 35.107-32.015 35.092-32.032 34.999-32.032 34.858-32.031 34.67-32.004 34.39-31.851 34.104-31.793 33.993-31.714 33.885-31.613 33.785-31.612 33.784-31.611 33.782-31.61 33.78L-30.392 32.415-33.549 32.2-35.699 33.882C-35.593 33.935-35.532 33.966-35.532 33.966-35.415 34.023-35.341 34.142-35.341 34.272V35.266L-33.961 36.649C-33.876 36.734-33.842 36.86-33.871 36.976-33.901 37.093-33.991 37.186-34.105 37.22V37.221C-34.168 37.264-34.582 37.396-34.595 38.241-34.59 38.38-34.557 38.398-34.527 38.431-34.516 38.439-34.503 38.447-34.493 38.452L-33.596 38.46C-33.49 38.461-33.39 38.511-33.326 38.595-33.326 38.595-31.889 40.494-31.79 40.617-31.691 40.742-31.541 40.751-31.541 40.751L-29.594 40.964C-29.594 40.964-29.495 40.97-29.479 40.849-29.463 40.669-29.442 40.451-29.42 40.214-29.416 40.114-29.482 40.077-29.52 40.076-29.767 40.068-30.024 40.062-30.299 40.051-30.587 40.04-30.9 39.908-31.107 39.733-31.261 39.604-31.266 39.364-31.123 39.227-31.044 39.15-30.874 39.125-30.687 39.068-30.45 38.997-30.188 38.907-30.057 38.949-29.889 39.003-29.826 39.151-29.814 39.313-29.801 39.494-29.693 39.618-29.51 39.618-29.433 39.618-29.386 39.555-29.379 39.489-29.345 39.148-29.282 38.717-29.261 38.472-29.251 38.352-29.241 38.24-29.234 38.146-29.231 38.024-29.338 38.015-29.393 38.009-29.506 37.994-29.596 37.991-29.596 37.99-29.688 37.986-29.774 37.945-29.835 37.876-29.897 37.807-29.928 37.718-29.921 37.625ZM-35.134 39.883C-35.195 40.058-35.382 40.152-35.557 40.099-35.408 40.231-35.26 40.36-35.117 40.482L-33.646 40.675C-33.458 40.7-33.327 40.872-33.351 41.06-33.375 41.247-33.548 41.379-33.735 41.354L-33.959 41.325C-33.5 41.596-33.029 41.814-32.641 41.975-32.379 42.083-32.154 42.165-31.997 42.22-31.839 42.273-31.752 42.299-31.752 42.3-31.571 42.354-31.467 42.544-31.521 42.726-31.575 42.906-31.766 43.01-31.947 42.956-31.958 42.952-32.53 42.783-33.27 42.449-33.162 42.604-33.199 42.816-33.354 42.925-33.508 43.033-33.722 42.996-33.831 42.842L-34.618 41.723C-34.688 41.677-34.759 41.63-34.828 41.582-34.929 41.511-35.041 41.427-35.158 41.334L-35.078 41.49C-34.992 41.658-35.058 41.865-35.226 41.951-35.395 42.038-35.601 41.972-35.687 41.803L-36.55 40.125C-36.764 39.927-36.963 39.739-37.133 39.577-37.106 40.474-36.865 42.05-35.86 42.801-34.872 43.558-34.053 43.718-33.371 43.721-32.969 43.721-32.616 43.66-32.303 43.615-32.154 43.596-31.627 43.469-31.17 43.353-30.708 43.234-30.292 43.124-30.292 43.123L-30.203 43.112C-29.697 43.11-29.447 42.98-29.313 42.846-29.178 42.71-29.125 42.527-29.124 42.326-29.122 42.153-29.196 41.959-29.28 41.813-29.311 41.759-29.339 41.716-29.366 41.679L-31.923 41.398C-32.016 41.388-32.101 41.34-32.159 41.266L-33.77 39.144-34.557 39.138-34.629 39.129C-34.661 39.121-34.805 39.089-34.965 38.956-35.126 38.828-35.285 38.571-35.28 38.241-35.283 37.602-35.063 37.163-34.82 36.908-34.795 36.881-34.77 36.856-34.745 36.833L-35.794 35.781C-35.958 35.825-36.222 35.917-36.471 36.091-36.789 36.315-37.08 36.645-37.174 37.221-37.227 37.554-37.246 37.828-37.246 38.047-37.245 38.278-37.225 38.445-37.204 38.562-37.2 38.565-37.195 38.567-37.191 38.571-37.191 38.572-37.037 38.723-36.796 38.953L-35.348 39.448C-35.169 39.51-35.073 39.704-35.134 39.883M-53.114 4.002C-52.921 3.965-52.741 3.947-52.573 3.947-51.969 3.945-51.529 4.176-51.262 4.41-50.992 4.646-50.88 4.875-50.866 4.902L-50.865 4.905-50.864 4.907C-50.862 4.911-50.86 4.917-50.856 4.926L-50.837 4.972-40.413 29.349C-40.391 29.187-40.343 28.87-40.298 28.719-40.137 25.98-39.508 24.063-38.848 22.59-38.466 21.737-38.077 21.086-37.772 20.628-37.62 20.398-37.488 20.216-37.391 20.083-37.358 20.038-37.329 19.999-37.305 19.967L-39.735 11.569C-39.774 11.437-39.728 11.292-39.62 11.206L-39.041 10.746C-39.041 10.746-38.967 10.679-39.002 10.553-39.036 10.427-41.706 .57-41.706 .57L-50.185-9.164C-50.811-8.644-52.652-6.94-55.084-3.16-57.204 .13-57.836 2.204-57.832 3.388-57.831 3.977-57.684 4.334-57.51 4.556-57.508 4.559-57.505 4.561-57.503 4.563L-57.495 4.575C-57.484 4.588-57.474 4.602-57.463 4.613-57.269 4.829-57.031 4.904-56.852 4.904-56.829 4.904-56.807 4.903-56.786 4.9-55.843 4.791-54.511 4.279-53.114 4.002M-57.682 13.306-40.729 30.446-50.892 6.588C-51.043 6.986-51.311 7.422-51.757 7.852-52.707 8.773-56.624 12.343-57.682 13.306M-52.234 7.36C-51.536 6.678-51.411 6.084-51.407 5.683-51.407 5.521-51.43 5.391-51.452 5.305-51.463 5.262-51.474 5.229-51.48 5.21-51.482 5.205-51.483 5.201-51.485 5.198-51.516 5.151-51.79 4.633-52.573 4.633-52.694 4.633-52.83 4.645-52.982 4.675-54.308 4.933-55.618 5.446-56.701 5.58-56.719 5.583-56.74 5.582-56.759 5.584L-54.157 9.153C-53.307 8.371-52.571 7.687-52.234 7.36M-51.95-12.86C-52.001-12.818-52.089-12.673-52.044-12.563-52.026-12.518-52.001-12.469-51.973-12.418-51.826-12.144-51.586-11.824-51.386-11.583-51.032-12.347-50.177-13.824-48.372-15.418-49.618-14.646-50.812-13.793-51.95-12.86M.631 26.278C-1.092 30.345-3.548 33.99-6.681 37.123-9.812 40.25-13.458 42.711-17.52 44.431-21.725 46.205-26.192 47.104-30.791 47.104-35.397 47.104-39.863 46.205-44.069 44.431-48.131 42.711-51.775 40.249-54.91 37.123-58.039 33.99-60.498 30.345-62.212 26.277-63.995 22.076-64.897 17.608-64.897 13.011-64.897 8.403-63.995 3.933-62.212-.267-60.498-4.325-58.039-7.974-54.91-11.105-51.775-14.234-48.131-16.695-44.07-18.414-42.797-18.952-41.5-19.409-40.183-19.785-40.171-19.789-40.161-19.793-40.149-19.797-39.488-20.004-38.817-20.168-38.142-20.3-35.745-20.826-33.289-21.093-30.791-21.093-29.27-21.093-27.763-20.992-26.275-20.796H-26.264C-25.397-20.746-24.787-20.615-24.384-20.491-22.036-20.046-19.74-19.354-17.52-18.414-13.458-16.695-9.812-14.234-6.681-11.105L-6.923-10.863-6.681-11.105C-3.548-7.974-1.092-4.325 .631-.267 2.405 3.933 3.306 8.403 3.306 13.011 3.306 17.608 2.405 22.076 .631 26.278" fill="#ffffff"/>
<path transform="matrix(1,0,0,-1,19.8872,60.2549)" d="M0 0C.393 .051 .73 .047 1.011-.011 1.292-.07 1.53-.186 1.725-.356 1.919-.528 2.074-.757 2.188-1.043 2.302-1.328 2.385-1.672 2.438-2.075 2.482-2.419 2.487-2.737 2.452-3.028 2.416-3.32 2.33-3.577 2.191-3.801 2.054-4.023 1.862-4.207 1.615-4.352 1.369-4.496 .782-4.62 .782-4.62 .726-4.632 .634-4.647 .578-4.654L-2.444-5.05C-2.5-5.058-2.549-5.109-2.552-5.167L-2.578-5.612C-2.581-5.669-2.63-5.722-2.687-5.729L-2.82-5.747C-2.876-5.754-2.929-5.714-2.937-5.657L-3.203-3.622C-3.209-3.565-3.169-3.514-3.113-3.506L-2.979-3.488C-2.923-3.481-2.862-3.52-2.844-3.573L-2.707-3.989C-2.688-4.044-2.627-4.082-2.571-4.074L.812-3.633C1.226-3.578 1.536-3.412 1.743-3.134 1.95-2.854 2.022-2.472 1.958-1.982 1.892-1.478 1.72-1.127 1.443-.931 1.166-.734 .324-.741 .324-.741 .267-.741 .174-.748 .118-.756L-2.953-1.157C-3.009-1.164-3.058-1.217-3.061-1.274L-3.087-1.719C-3.09-1.776-3.139-1.828-3.196-1.836L-3.329-1.854C-3.386-1.861-3.438-1.82-3.445-1.764L-3.684 .062C-3.691 .118-3.651 .17-3.595 .178L-3.461 .194C-3.405 .202-3.344 .164-3.326 .11L-3.187-.314C-3.169-.368-3.108-.406-3.052-.399Z" fill="#ffffff"/>
<path transform="matrix(1,0,0,-1,16.2383,55.5225)" d="M0 0C.004 .058 .048 .128 .097 .156L4.366 2.699 .794 2.963C.737 2.967 .678 2.926 .663 2.87L.548 2.447C.533 2.393 .474 2.352 .417 2.355L.283 2.365C.227 2.37 .184 2.42 .188 2.477L.321 4.231C.325 4.288 .375 4.331 .432 4.327L.566 4.316C.623 4.313 .675 4.263 .681 4.206L.731 3.763C.737 3.706 .789 3.656 .846 3.651L5.905 3.268C5.961 3.264 6.004 3.213 6 3.156L5.962 2.658C5.958 2.602 5.915 2.531 5.865 2.502L.934-.391 5.089-.705C5.146-.71 5.205-.669 5.22-.613L5.335-.19C5.35-.136 5.409-.094 5.465-.099L5.6-.108C5.656-.112 5.699-.162 5.695-.219L5.562-1.975C5.558-2.031 5.507-2.074 5.451-2.07L5.317-2.06C5.26-2.056 5.208-2.006 5.202-1.949L5.152-1.505C5.146-1.449 5.094-1.398 5.037-1.395L.49-1.05C.433-1.046 .374-1.087 .359-1.143L.243-1.573C.228-1.628 .169-1.67 .112-1.665L-.021-1.655C-.079-1.651-.121-1.601-.117-1.544Z" fill="#ffffff"/>
<path transform="matrix(1,0,0,-1,17.9912,46.048799)" d="M0 0C.056-.014 .098-.071 .095-.128L.071-.566C.068-.623 .11-.682 .166-.695L4.591-1.8C4.646-1.814 4.711-1.783 4.735-1.731L4.919-1.334C4.943-1.282 5.008-1.251 5.063-1.265L5.194-1.297C5.25-1.312 5.284-1.368 5.27-1.423L4.772-3.415C4.758-3.47 4.702-3.504 4.647-3.489L4.516-3.457C4.461-3.443 4.418-3.385 4.421-3.328L4.445-2.891C4.448-2.834 4.406-2.776 4.35-2.762L-.074-1.657C-.129-1.644-.194-1.674-.218-1.726L-.403-2.123C-.427-2.175-.492-2.206-.547-2.192L-.678-2.159C-.733-2.146-.767-2.09-.753-2.034L-.256-.043C-.242 .013-.186 .046-.13 .032Z" fill="#ffffff"/>
<path transform="matrix(1,0,0,-1,24.9248,42.6904)" d="M0 0C.041-.04 .056-.115 .034-.168L-.207-.732C-.229-.785-.293-.824-.351-.821L-5.722-.458C-5.779-.454-5.853-.489-5.886-.534L-6.083-.806C-6.117-.852-6.187-.871-6.24-.849L-6.364-.796C-6.416-.774-6.441-.713-6.418-.66L-5.682 1.071C-5.659 1.124-5.598 1.148-5.546 1.126L-5.422 1.073C-5.369 1.052-5.335 .987-5.345 .932L-5.409 .586C-5.419 .529-5.381 .48-5.324 .476L-1.01 .142-4.178 3.173C-4.219 3.212-4.279 3.205-4.312 3.158L-4.549 2.81C-4.581 2.762-4.65 2.741-4.703 2.764L-4.827 2.816C-4.879 2.839-4.904 2.9-4.881 2.952L-4.218 4.512C-4.195 4.564-4.134 4.589-4.082 4.566L-3.958 4.514C-3.905 4.491-3.872 4.428-3.884 4.372L-3.968 3.966C-3.979 3.911-3.956 3.832-3.915 3.793Z" fill="#ffffff"/>
<path transform="matrix(1,0,0,-1,35.7163,27.950203)" d="M0 0C.129 .034 .264 .085 .403 .151 .543 .217 .656 .283 .744 .347 1.053 .576 1.246 .821 1.322 1.083 1.397 1.345 1.344 1.601 1.16 1.849 1.05 1.997 .924 2.1 .781 2.156 .638 2.212 .487 2.241 .326 2.244 .166 2.247 0 2.232-.171 2.2-.343 2.168-.514 2.14-.684 2.114-.942 2.08-1.175 2.049-1.384 2.021-1.594 1.995-1.785 1.992-1.958 2.013-2.132 2.032-2.292 2.085-2.438 2.169-2.584 2.252-2.724 2.384-2.856 2.563-3.001 2.759-3.088 2.963-3.116 3.175-3.145 3.386-3.122 3.6-3.047 3.813-2.972 4.026-2.849 4.237-2.677 4.446-2.504 4.654-2.289 4.854-2.032 5.044-1.936 5.115-1.828 5.186-1.707 5.254-1.586 5.323-1.463 5.389-1.337 5.452-1.211 5.514-1.087 5.571-.963 5.622-.839 5.673-.725 5.709-.725 5.709-.67 5.726-.614 5.73-.6 5.719-.585 5.707-.551 5.656-.523 5.607L-.091 4.847C-.063 4.797-.078 4.729-.123 4.694L-.408 4.484C-.453 4.451-.527 4.453-.57 4.489L-1.101 4.934C-1.194 4.932-1.303 4.906-1.429 4.857-1.554 4.809-1.691 4.729-1.839 4.62-2.105 4.423-2.271 4.205-2.335 3.965-2.4 3.725-2.353 3.495-2.191 3.277-2.088 3.137-1.977 3.041-1.856 2.988-1.736 2.936-1.609 2.908-1.473 2.907-1.337 2.906-1.196 2.921-1.051 2.951-.905 2.981-.754 3.011-.599 3.038-.385 3.067-.162 3.103 .071 3.144 .304 3.184 .53 3.199 .75 3.189 .969 3.181 1.175 3.136 1.369 3.056 1.563 2.977 1.729 2.833 1.869 2.626 2.046 2.359 2.146 2.104 2.17 1.862 2.194 1.62 2.162 1.389 2.073 1.168 1.983 .947 1.841 .733 1.646 .528 1.451 .323 1.222 .124 .961-.069 .725-.243 .479-.394 .222-.52-.035-.646-.37-.781-.37-.781-.422-.803-.476-.81-.488-.796-.5-.784-.534-.732-.563-.684L-1 .073C-1.028 .123-1.014 .191-.968 .225L-.684 .436C-.638 .47-.564 .467-.521 .431Z" fill="#ffffff"/>
<path transform="matrix(1,0,0,-1,39.8042,19.541)" d="M0 0C.027-.051 .013-.121-.031-.157L-.372-.434C-.415-.47-.43-.54-.402-.59L1.756-4.608C1.784-4.658 1.85-4.685 1.904-4.668L2.323-4.537C2.378-4.521 2.444-4.547 2.471-4.598L2.535-4.716C2.562-4.766 2.542-4.829 2.493-4.856L.685-5.828C.634-5.855 .571-5.836 .544-5.786L.48-5.667C.453-5.617 .468-5.547 .512-5.511L.852-5.233C.896-5.197 .91-5.128 .883-5.077L-1.276-1.061C-1.303-1.01-1.37-.982-1.424-1L-1.842-1.13C-1.896-1.147-1.963-1.12-1.99-1.07L-2.054-.952C-2.081-.901-2.062-.838-2.012-.812L-.204 .161C-.154 .188-.091 .168-.063 .118Z" fill="#ffffff"/>
<path transform="matrix(1,0,0,-1,42.0503,18.2285)" d="M0 0C.012 .033 .066 .075 .119 .095L4.34 1.63C4.394 1.649 4.459 1.658 4.487 1.648 4.514 1.64 4.553 1.589 4.575 1.536L4.938 .633C4.96 .58 4.934 .521 4.88 .502L4.54 .378C4.486 .358 4.417 .381 4.384 .429L4.087 .868C4.056 .916 3.985 .941 3.93 .925L3.489 .794C3.434 .778 3.346 .749 3.292 .729L2.863 .574 4.448-3.788C4.468-3.841 4.529-3.878 4.585-3.868L5.019-3.799C5.075-3.79 5.137-3.826 5.156-3.88L5.203-4.007C5.222-4.061 5.194-4.12 5.141-4.139L3.211-4.841C3.158-4.86 3.098-4.832 3.079-4.778L3.033-4.651C3.013-4.599 3.037-4.53 3.086-4.502L3.462-4.276C3.512-4.247 3.536-4.18 3.516-4.126L1.929 .235 1.501 .078C1.447 .059 1.361 .024 1.308 .001L.886-.183C.833-.205 .795-.271 .801-.327L.856-.854C.863-.911 .824-.974 .77-.993L.43-1.116C.376-1.136 .318-1.107 .301-1.053L.011-.158C-.007-.104-.011-.033 0 0" fill="#ffffff"/>
<path transform="matrix(1,0,0,-1,51.0142,16.341797)" d="M0 0-.432-2.399 1.158-2.1ZM1.371-2.481-.515-2.838-.806-4.565C-.815-4.621-.776-4.668-.719-4.67L-.329-4.677C-.271-4.678-.216-4.725-.206-4.781L-.181-4.913C-.17-4.969-.208-5.023-.263-5.034L-1.913-5.346C-1.969-5.355-2.023-5.318-2.034-5.263L-2.059-5.13C-2.069-5.074-2.035-5.011-1.983-4.988L-1.645-4.845C-1.592-4.823-1.541-4.759-1.53-4.703L-.489 .721C-.479 .776-.424 .831-.368 .842L.355 .979C.411 .988 .48 .957 .508 .907L3.192-3.81C3.22-3.859 3.29-3.901 3.347-3.902L3.705-3.914C3.762-3.916 3.817-3.963 3.828-4.019L3.853-4.151C3.863-4.207 3.826-4.262 3.77-4.271L1.881-4.629C1.825-4.639 1.771-4.603 1.76-4.547L1.735-4.414C1.725-4.357 1.759-4.294 1.811-4.271L2.149-4.128C2.202-4.106 2.222-4.047 2.195-3.997Z" fill="#ffffff"/>
<path transform="matrix(1,0,0,-1,57.6069,19.986298)" d="M0 0C.125-.048 .263-.087 .415-.115 .566-.145 .697-.159 .805-.158 1.19-.157 1.49-.073 1.707 .094 1.922 .26 2.03 .497 2.029 .807 2.028 .991 1.986 1.148 1.905 1.277 1.823 1.408 1.718 1.521 1.59 1.618 1.462 1.716 1.32 1.801 1.162 1.877 1.005 1.952 .85 2.03 .698 2.111 .47 2.234 .263 2.348 .079 2.45-.106 2.552-.263 2.662-.39 2.781-.518 2.9-.616 3.036-.685 3.191-.753 3.346-.788 3.533-.789 3.756-.79 4-.739 4.216-.637 4.403-.535 4.591-.391 4.749-.204 4.877-.018 5.006 .206 5.104 .469 5.169 .731 5.235 1.022 5.269 1.342 5.271 1.461 5.271 1.59 5.264 1.729 5.248 1.867 5.232 2.005 5.212 2.144 5.188 2.282 5.164 2.417 5.137 2.546 5.105 2.676 5.073 2.79 5.034 2.79 5.034 2.844 5.016 2.892 4.985 2.896 4.969 2.9 4.95 2.899 4.89 2.893 4.832L2.791 3.964C2.785 3.907 2.733 3.86 2.676 3.86L2.322 3.859C2.265 3.858 2.208 3.904 2.194 3.959L2.028 4.631C1.952 4.685 1.849 4.729 1.718 4.764 1.588 4.798 1.431 4.815 1.247 4.814 .916 4.813 .654 4.734 .459 4.579 .265 4.424 .168 4.211 .169 3.939 .17 3.766 .203 3.622 .269 3.508 .334 3.396 .421 3.298 .53 3.217 .639 3.136 .761 3.064 .897 3.003 1.033 2.94 1.171 2.875 1.313 2.805 1.503 2.703 1.704 2.6 1.916 2.494 2.127 2.39 2.319 2.269 2.49 2.131 2.661 1.993 2.802 1.835 2.911 1.656 3.02 1.479 3.069 1.264 3.06 1.015 3.045 .694 2.976 .43 2.852 .221 2.729 .011 2.565-.156 2.363-.282 2.16-.408 1.919-.495 1.64-.546 1.361-.596 1.059-.621 .734-.622 .441-.624 .154-.6-.128-.549-.41-.499-.76-.411-.76-.411-.814-.396-.862-.371-.864-.354-.867-.336-.863-.274-.857-.218L-.763 .651C-.756 .707-.705 .754-.648 .754L-.294 .756C-.237 .756-.179 .711-.165 .656Z" fill="#ffffff"/>
<path transform="matrix(1,0,0,-1,72.8564,18.195298)" d="M0 0C-.151 .477-.481 .797-.991 .963-1.507 1.13-1.965 1.069-2.365 .783-2.765 .497-3.096-.049-3.357-.854-3.622-1.669-3.68-2.314-3.532-2.79-3.384-3.266-3.052-3.587-2.537-3.754-2.021-3.921-1.563-3.861-1.163-3.575-.763-3.288-.432-2.742-.171-1.938 .093-1.123 .15-.477 0 0M-.512-4.098C-1.132-4.431-1.866-4.459-2.71-4.186-3.118-4.053-3.462-3.876-3.744-3.653-4.025-3.432-4.239-3.168-4.385-2.864-4.531-2.56-4.607-2.218-4.612-1.837-4.616-1.456-4.546-1.041-4.4-.593-4.249-.123-4.053 .27-3.813 .586-3.575 .901-3.302 1.141-2.995 1.304-2.689 1.468-2.353 1.557-1.986 1.571-1.62 1.586-1.235 1.529-.833 1.398-.431 1.269-.088 1.092 .196 .868 .479 .646 .695 .381 .844 .072 .992-.234 1.069-.581 1.076-.965 1.082-1.349 1.012-1.768 .865-2.222 .567-3.141 .108-3.766-.512-4.098" fill="#ffffff"/>
<path transform="matrix(1,0,0,-1,75.688,23.966797)" d="M0 0C.086-.103 .188-.203 .308-.302 .427-.4 .534-.475 .629-.526 .967-.71 1.271-.781 1.541-.739 1.81-.697 2.019-.54 2.166-.269 2.254-.106 2.293 .051 2.284 .204 2.275 .357 2.237 .507 2.172 .654 2.107 .801 2.023 .944 1.921 1.086 1.819 1.228 1.721 1.37 1.626 1.515 1.486 1.732 1.359 1.932 1.247 2.109 1.134 2.288 1.05 2.46 .995 2.626 .94 2.792 .92 2.958 .934 3.127 .948 3.295 1.009 3.477 1.114 3.672 1.231 3.886 1.379 4.052 1.559 4.166 1.738 4.282 1.941 4.352 2.166 4.374 2.392 4.396 2.635 4.374 2.897 4.306 3.159 4.237 3.43 4.127 3.711 3.975 3.816 3.918 3.926 3.85 4.039 3.77 4.153 3.689 4.265 3.604 4.375 3.518 4.484 3.43 4.588 3.341 4.688 3.251 4.786 3.16 4.867 3.071 4.867 3.071 4.905 3.029 4.933 2.98 4.928 2.962 4.924 2.944 4.893 2.892 4.86 2.845L4.354 2.133C4.32 2.086 4.252 2.07 4.202 2.097L3.892 2.267C3.841 2.293 3.813 2.36 3.827 2.416L4.005 3.084C3.964 3.168 3.895 3.257 3.798 3.35 3.7 3.442 3.57 3.533 3.409 3.621 3.118 3.778 2.85 3.836 2.604 3.793 2.359 3.75 2.172 3.609 2.043 3.371 1.96 3.219 1.92 3.077 1.923 2.946 1.926 2.814 1.955 2.688 2.012 2.564 2.068 2.441 2.141 2.32 2.23 2.2 2.32 2.081 2.41 1.957 2.5 1.827 2.617 1.646 2.743 1.459 2.878 1.266 3.014 1.071 3.124 .873 3.208 .67 3.292 .467 3.338 .261 3.349 .052 3.358-.157 3.299-.369 3.17-.583 3.003-.856 2.815-1.055 2.606-1.18 2.397-1.303 2.173-1.371 1.935-1.384 1.697-1.397 1.444-1.358 1.175-1.268 .907-1.178 .629-1.055 .344-.899 .086-.76-.153-.601-.376-.421-.6-.24-.864 .004-.864 .004-.906 .044-.935 .089-.928 .105-.921 .122-.89 .175-.857 .221L-.356 .938C-.323 .983-.255 .999-.205 .973L.105 .804C.156 .776 .185 .709 .17 .654Z" fill="#ffffff"/>
<path transform="matrix(1,0,0,-1,81.6133,27.705101)" d="M0 0C-.036-.045-.027-.11 .018-.146L.718-.695C.763-.73 .838-.786 .885-.817L1.258-1.074C1.305-1.106 1.379-1.104 1.424-1.068L1.88-.7C1.924-.664 1.998-.664 2.042-.699L2.327-.923C2.372-.957 2.378-1.021 2.342-1.065L1.736-1.785C1.699-1.828 1.653-1.879 1.633-1.897 1.612-1.916 1.559-1.902 1.515-1.867L-1.521 .513C-1.566 .548-1.574 .613-1.539 .658L-1.456 .764C-1.421 .809-1.35 .824-1.3 .798L-.91 .598C-.859 .572-.789 .587-.754 .632L2.06 4.221C2.095 4.266 2.093 4.338 2.056 4.381L1.768 4.712C1.731 4.755 1.729 4.827 1.764 4.872L1.847 4.977C1.882 5.021 1.947 5.03 1.992 4.995L3.601 3.733C3.646 3.698 3.654 3.633 3.619 3.588L3.536 3.482C3.5 3.438 3.431 3.422 3.38 3.448L2.99 3.648C2.939 3.675 2.868 3.659 2.833 3.614Z" fill="#ffffff"/>
<path transform="matrix(1,0,0,-1,90.876,30.829102)" d="M0 0C.114 .486-.007 .931-.362 1.333-.72 1.739-1.145 1.921-1.635 1.879-2.125 1.836-2.688 1.535-3.323 .976-3.966 .408-4.344-.117-4.459-.602-4.575-1.086-4.454-1.531-4.095-1.938-3.736-2.345-3.312-2.526-2.821-2.484-2.331-2.441-1.768-2.141-1.134-1.581-.491-1.014-.113-.487 0 0M-2.528-3.266C-3.231-3.235-3.876-2.887-4.464-2.22-4.747-1.898-4.953-1.571-5.082-1.236-5.21-.902-5.26-.567-5.231-.231-5.202 .105-5.093 .438-4.903 .769-4.713 1.099-4.441 1.42-4.088 1.731-3.717 2.059-3.349 2.297-2.982 2.446-2.616 2.597-2.259 2.663-1.912 2.647-1.565 2.632-1.23 2.537-.907 2.363-.584 2.189-.283 1.944-.003 1.627 .277 1.311 .481 .983 .612 .647 .743 .311 .793-.028 .764-.368 .735-.708 .625-1.045 .435-1.379 .245-1.713-.029-2.037-.387-2.354-1.111-2.991-1.825-3.296-2.528-3.266" fill="#ffffff"/>
<path transform="matrix(1,0,0,-1,93.2075,37.672899)" d="M0 0C.043 .036 .055 .106 .026 .156L-.592 1.206-2.625-.019-1.96-1.138C-1.931-1.187-1.881-1.265-1.849-1.312L-1.594-1.686C-1.562-1.733-1.492-1.757-1.438-1.739L-.882-1.556C-.829-1.538-.76-1.563-.731-1.612L-.542-1.931C-.513-1.979-.53-2.042-.581-2.069L-1.406-2.521C-1.456-2.549-1.517-2.579-1.542-2.589-1.568-2.599-1.613-2.566-1.642-2.518L-3.778 1.078C-3.807 1.127-3.791 1.191-3.741 1.22L-3.626 1.289C-3.577 1.318-3.506 1.308-3.468 1.265L-3.177 .937C-3.139 .894-3.068 .883-3.019 .912L.902 3.241C.951 3.271 .975 3.338 .956 3.392L.807 3.804C.788 3.857 .813 3.925 .861 3.954L.977 4.022C1.026 4.052 1.09 4.036 1.119 3.987L3.156 .559C3.185 .51 3.206 .445 3.203 .414 3.2 .384 3.159 .334 3.111 .304L2.292-.222C2.244-.253 2.181-.238 2.152-.188L1.966 .123C1.938 .171 1.947 .243 1.989 .282L2.433 .701C2.474 .74 2.487 .813 2.461 .864L2.25 1.274C2.224 1.325 2.179 1.406 2.149 1.455L1.551 2.47-.247 1.397 .373 .353C.402 .304 .469 .279 .522 .3L.933 .454C.986 .474 1.053 .449 1.082 .4L1.238 .139C1.267 .089 1.25 .025 1.202-.004L-.124-.791C-.173-.82-.237-.804-.266-.755L-.422-.493C-.451-.444-.439-.373-.396-.337Z" fill="#ffffff"/>
<path transform="matrix(1,0,0,-1,26.0068,35.243204)" d="M0 0C-.052 .022-.121 .002-.152-.046L-.821-1.063 1.175-2.347 1.885-1.257C1.916-1.209 1.964-1.129 1.993-1.079L2.216-.687C2.244-.637 2.234-.563 2.194-.522L1.785-.104C1.745-.064 1.738 .008 1.769 .056L1.971 .366C2.002 .413 2.065 .426 2.112 .394L2.882-.148C2.929-.181 2.983-.223 3.003-.241 3.023-.26 3.014-.314 2.983-.362L.699-3.866C.668-3.913 .604-3.927 .556-3.896L.443-3.822C.396-3.791 .374-3.723 .396-3.67L.562-3.264C.583-3.211 .562-3.143 .514-3.111L-3.307-.621C-3.355-.59-3.426-.599-3.465-.639L-3.77-.954C-3.81-.995-3.881-1.003-3.929-.972L-4.042-.898C-4.089-.867-4.103-.803-4.072-.755L-1.895 2.585C-1.864 2.633-1.815 2.681-1.786 2.691-1.758 2.702-1.695 2.687-1.646 2.657L-.813 2.154C-.764 2.125-.75 2.062-.781 2.014L-.978 1.711C-1.009 1.663-1.079 1.641-1.132 1.66L-1.704 1.873C-1.757 1.894-1.828 1.872-1.862 1.826L-2.137 1.457C-2.171 1.411-2.224 1.335-2.255 1.287L-2.902 .302-1.145-.838-.481 .18C-.45 .227-.458 .298-.5 .337L-.819 .637C-.86 .676-.869 .747-.838 .794L-.671 1.05C-.64 1.098-.576 1.111-.528 1.08L.764 .238C.812 .207 .826 .143 .794 .095L.628-.161C.597-.209 .528-.229 .476-.206Z" fill="#ffffff"/>
<path transform="matrix(1,0,0,-1,98.6748,42.154298)" d="M0 0C.018-.054 .006-.136-.027-.182L-2.939-4.214 .449-3.034C.502-3.015 .54-2.954 .532-2.897L.469-2.463C.461-2.406 .499-2.346 .552-2.327L.68-2.283C.733-2.264 .793-2.293 .811-2.348L1.386-4.01C1.405-4.063 1.376-4.123 1.322-4.143L1.195-4.186C1.142-4.204 1.074-4.18 1.045-4.13L.824-3.742C.795-3.693 .728-3.668 .674-3.687L-4.121-5.345C-4.174-5.363-4.233-5.334-4.252-5.281L-4.416-4.809C-4.434-4.754-4.422-4.673-4.388-4.626L-1.01-.01-4.951-1.374C-5.005-1.394-5.042-1.454-5.034-1.511L-4.972-1.945C-4.963-2.002-5.001-2.063-5.055-2.081L-5.182-2.125C-5.236-2.145-5.295-2.115-5.313-2.062L-5.889-.397C-5.908-.345-5.879-.284-5.825-.266L-5.698-.223C-5.644-.203-5.577-.229-5.549-.278L-5.326-.665C-5.298-.715-5.23-.74-5.177-.722L-.867 .77C-.813 .788-.776 .849-.784 .905L-.848 1.347C-.857 1.403-.819 1.465-.766 1.483L-.638 1.528C-.584 1.546-.525 1.518-.507 1.464Z" fill="#ffffff"/>
<path transform="matrix(1,0,0,-1,95.6821,50.876)" d="M0 0C-.03-.13-.05-.272-.058-.427-.065-.581-.062-.712-.046-.819 .009-1.2 .133-1.485 .328-1.677 .522-1.868 .773-1.941 1.079-1.897 1.262-1.871 1.411-1.809 1.529-1.709 1.646-1.61 1.744-1.49 1.822-1.351 1.9-1.211 1.966-1.058 2.019-.892 2.072-.726 2.127-.561 2.187-.399 2.277-.156 2.361 .064 2.437 .261 2.513 .458 2.601 .628 2.7 .771 2.801 .914 2.922 1.03 3.066 1.12 3.209 1.208 3.391 1.269 3.611 1.301 3.852 1.335 4.073 1.314 4.273 1.239 4.473 1.165 4.649 1.043 4.802 .877 4.955 .71 5.082 .501 5.184 .25 5.286-.001 5.36-.285 5.405-.602 5.422-.72 5.433-.848 5.436-.986 5.439-1.126 5.439-1.266 5.435-1.405 5.43-1.546 5.421-1.683 5.408-1.815 5.394-1.95 5.371-2.067 5.371-2.067 5.36-2.124 5.337-2.175 5.32-2.182 5.303-2.189 5.243-2.196 5.186-2.196L4.311-2.217C4.254-2.218 4.201-2.173 4.193-2.116L4.143-1.767C4.135-1.71 4.171-1.646 4.224-1.625L4.866-1.368C4.909-1.286 4.938-1.178 4.955-1.044 4.972-.91 4.966-.752 4.94-.569 4.893-.242 4.779 .007 4.599 .178 4.417 .35 4.193 .415 3.924 .376 3.753 .352 3.615 .299 3.512 .219 3.408 .138 3.324 .038 3.259-.081 3.194-.199 3.14-.331 3.097-.474 3.055-.616 3.009-.763 2.959-.912 2.884-1.114 2.81-1.328 2.735-1.552 2.66-1.776 2.567-1.982 2.454-2.172 2.342-2.36 2.204-2.521 2.042-2.653 1.881-2.786 1.676-2.865 1.427-2.89 1.108-2.92 .836-2.888 .612-2.794 .388-2.7 .2-2.562 .047-2.379-.106-2.195-.226-1.969-.314-1.699-.402-1.431-.469-1.135-.516-.813-.557-.523-.573-.235-.562 .051-.551 .338-.512 .695-.512 .695-.506 .752-.487 .803-.469 .808-.452 .813-.392 .817-.334 .819L.539 .846C.596 .848 .649 .802 .657 .746L.708 .396C.716 .34 .679 .275 .627 .255Z" fill="#ffffff"/>
<path transform="matrix(1,0,0,-1,101.1567,58.5605)" d="M0 0C-.057 0-.113 .046-.124 .102L-.209 .532C-.22 .588-.275 .634-.332 .634L-4.893 .613C-4.95 .613-5.005 .567-5.016 .512L-5.097 .08C-5.107 .024-5.162-.021-5.219-.021L-5.354-.022C-5.411-.022-5.458 .023-5.458 .081L-5.467 2.133C-5.467 2.189-5.42 2.237-5.364 2.237H-5.229C-5.172 2.238-5.117 2.192-5.105 2.137L-5.021 1.706C-5.01 1.65-4.954 1.604-4.897 1.605L-.336 1.624C-.279 1.625-.224 1.671-.214 1.727L-.133 2.158C-.123 2.215-.067 2.261-.01 2.261L.124 2.262C.182 2.262 .228 2.215 .229 2.158L.238 .105C.238 .049 .191 .002 .134 .002Z" fill="#ffffff"/>
<path transform="matrix(1,0,0,-1,95.938,62.0332)" d="M0 0C-.067-.115-.127-.245-.181-.391-.233-.536-.268-.662-.285-.77-.345-1.149-.31-1.459-.18-1.699-.05-1.938 .167-2.083 .473-2.131 .656-2.159 .817-2.144 .958-2.083 1.1-2.023 1.228-1.938 1.344-1.827 1.46-1.717 1.568-1.59 1.667-1.446 1.767-1.303 1.868-1.162 1.972-1.024 2.131-.819 2.275-.634 2.406-.467 2.536-.301 2.67-.165 2.808-.058 2.946 .051 3.096 .125 3.259 .168 3.422 .211 3.614 .215 3.833 .181 4.075 .144 4.28 .059 4.448-.072 4.618-.203 4.75-.37 4.848-.574 4.944-.779 5.005-1.017 5.028-1.286 5.052-1.556 5.039-1.849 4.989-2.164 4.971-2.282 4.942-2.408 4.905-2.542 4.868-2.677 4.826-2.81 4.781-2.942 4.735-3.075 4.686-3.202 4.634-3.326 4.582-3.45 4.525-3.556 4.525-3.556 4.499-3.605 4.461-3.648 4.443-3.65 4.425-3.651 4.365-3.64 4.31-3.625L3.469-3.387C3.414-3.371 3.376-3.313 3.385-3.256L3.44-2.906C3.449-2.851 3.502-2.801 3.56-2.796L4.249-2.739C4.313-2.673 4.374-2.578 4.429-2.455 4.484-2.332 4.525-2.18 4.554-1.997 4.605-1.671 4.57-1.399 4.447-1.183 4.325-.966 4.13-.836 3.861-.795 3.69-.768 3.543-.777 3.42-.824 3.298-.871 3.188-.941 3.091-1.035 2.994-1.13 2.904-1.239 2.821-1.363 2.739-1.487 2.651-1.614 2.56-1.742 2.429-1.914 2.294-2.096 2.157-2.288 2.02-2.48 1.87-2.65 1.707-2.798 1.544-2.944 1.366-3.058 1.171-3.137 .979-3.217 .759-3.231 .514-3.182 .2-3.116-.05-3.006-.237-2.851-.424-2.694-.563-2.507-.655-2.287-.747-2.066-.795-1.815-.8-1.532-.805-1.249-.783-.946-.732-.625-.687-.336-.616-.056-.522 .214-.428 .484-.285 .815-.285 .815-.263 .868-.229 .91-.211 .91-.193 .909-.133 .896-.078 .882L.764 .649C.819 .635 .856 .576 .848 .52L.793 .17C.784 .113 .73 .064 .674 .059Z" fill="#ffffff"/>
<path transform="matrix(1,0,0,-1,34.3916,91.4023)" d="M0 0C.051-.023 .12-.005 .151 .043L2.5 3.416-1.872 .939C-1.922 .912-1.999 .918-2.043 .954L-2.218 1.096C-2.262 1.132-2.286 1.207-2.271 1.262L-1.007 5.983-3.661 3.092C-3.702 3.052-3.708 2.981-3.674 2.936L-3.408 2.574C-3.374 2.527-3.378 2.456-3.417 2.414L-3.508 2.316C-3.547 2.275-3.613 2.272-3.654 2.313L-4.948 3.518C-4.99 3.557-4.992 3.622-4.954 3.664L-4.862 3.762C-4.823 3.804-4.752 3.813-4.704 3.783L-4.331 3.547C-4.282 3.518-4.21 3.525-4.17 3.565L-1.167 6.896C-1.13 6.939-1.129 7.01-1.166 7.054L-1.45 7.391C-1.487 7.435-1.487 7.507-1.452 7.551L-1.367 7.654C-1.332 7.699-1.266 7.706-1.221 7.669L.132 6.569C.177 6.533 .201 6.459 .187 6.404L-.89 2.248 2.815 4.267C2.865 4.294 2.942 4.287 2.986 4.251L4.283 3.197C4.327 3.161 4.334 3.096 4.298 3.052L4.213 2.947C4.178 2.903 4.107 2.889 4.057 2.916L3.668 3.125C3.618 3.152 3.549 3.137 3.515 3.092L.955-.547C.923-.594 .929-.666 .968-.709L1.269-1.031C1.307-1.073 1.312-1.145 1.278-1.19L1.199-1.299C1.165-1.345 1.1-1.354 1.054-1.321L-.61-.102C-.656-.068-.666-.003-.632 .043L-.553 .15C-.52 .197-.45 .215-.398 .19Z" fill="#ffffff"/>
<path transform="matrix(1,0,0,-1,45.1108,93.512699)" d="M0 0C.057 .314 .049 .599-.021 .854-.093 1.109-.227 1.338-.424 1.538-.621 1.739-1.11 2.032-1.11 2.032-1.159 2.062-1.24 2.106-1.291 2.132L-1.809 2.399-4.007-1.901-3.514-2.155C-3.276-2.276-3.046-2.374-2.825-2.448-2.603-2.522-2.389-2.557-2.185-2.552-1.859-2.524-1.54-2.396-1.227-2.167-.915-1.938-.627-1.567-.366-1.057-.179-.667-.057-.314 0 0M-.927 2.401C-.525 2.196-.174 1.965 .126 1.708 .426 1.452 .652 1.165 .804 .847 .957 .528 1.023 .175 1.005-.213 .987-.602 .858-1.029 .619-1.497 .395-1.936 .133-2.284-.168-2.544-.469-2.804-.796-2.977-1.149-3.063-1.502-3.15-1.878-3.158-2.276-3.089-2.674-3.019-3.411-2.701-3.411-2.701-3.463-2.679-3.547-2.64-3.599-2.613L-5.573-1.604C-5.624-1.578-5.644-1.515-5.618-1.464L-5.557-1.346C-5.531-1.295-5.465-1.266-5.411-1.282L-4.987-1.405C-4.932-1.422-4.866-1.394-4.84-1.343L-2.77 2.708C-2.744 2.759-2.759 2.828-2.804 2.864L-3.152 3.135C-3.197 3.17-3.213 3.24-3.187 3.29L-3.126 3.41C-3.1 3.461-3.037 3.481-2.987 3.455Z" fill="#ffffff"/>
<path transform="matrix(1,0,0,-1,53.9106,95.116199)" d="M0 0C-.013 .191-.006 .225-.013 .359-.021 .526-.074 .589-.24 .695-.306 .737-.379 .771-.456 .806-.579 .861-.718 .903-.873 .931-1.157 .982-1.423 .979-1.671 .923-1.919 .867-2.143 .755-2.342 .587-2.541 .42-2.711 .197-2.854-.083-2.996-.362-3.102-.696-3.173-1.085-3.322-1.91-3.264-2.553-2.996-3.014-2.729-3.475-2.265-3.766-1.606-3.885-1.414-3.92-1.205-3.934-.979-3.925-.786-3.917-.564-3.891-.311-3.859-.179-3.843-.167-3.939-.167-3.939L-.153-4.043C-.153-4.043-.14-4.163-.239-4.2-.461-4.284-.715-4.344-1-4.383-1.329-4.428-1.689-4.415-2.08-4.344-2.455-4.275-2.797-4.161-3.104-4.001-3.413-3.84-3.667-3.626-3.868-3.358-4.068-3.092-4.206-2.768-4.28-2.385-4.354-2.003-4.346-1.557-4.252-1.045-4.159-.529-4.002-.099-3.782 .247-3.561 .592-3.295 .86-2.983 1.055-2.672 1.248-2.322 1.37-1.934 1.421-1.545 1.471-1.135 1.457-.701 1.378-.406 1.324-.135 1.247 .112 1.145 .283 1.072 .445 1 .598 .925 .809 .821 .753 .643 .753 .643L.527-.104C.527-.104 .473-.269 .329-.244 .2-.222 .123-.206 .123-.206 .123-.206 .013-.19 0 0" fill="#ffffff"/>
<path transform="matrix(1,0,0,-1,62.5781,95.3096)" d="M0 0C-.058 .182-.059 .216-.097 .346-.145 .505-.211 .553-.398 .617-.471 .643-.551 .659-.634 .675-.766 .699-.911 .706-1.068 .697-1.357 .681-1.615 .614-1.842 .5-2.07 .387-2.26 .225-2.415 .016-2.569-.194-2.681-.451-2.753-.757-2.825-1.063-2.849-1.411-2.826-1.806-2.776-2.643-2.566-3.254-2.197-3.639-1.829-4.022-1.31-4.195-.641-4.155-.445-4.144-.239-4.107-.022-4.046 .164-3.993 .373-3.914 .611-3.823 .735-3.776 .771-3.867 .771-3.867L.809-3.965C.809-3.965 .85-4.078 .762-4.139 .566-4.272 .334-4.391 .066-4.496-.243-4.617-.596-4.689-.993-4.713-1.373-4.735-1.732-4.706-2.069-4.623-2.407-4.54-2.705-4.392-2.963-4.18-3.221-3.967-3.431-3.685-3.593-3.332-3.756-2.978-3.854-2.541-3.884-2.022-3.915-1.499-3.865-1.044-3.732-.656-3.6-.27-3.405 .056-3.148 .317-2.891 .579-2.58 .78-2.214 .921-1.85 1.063-1.447 1.146-1.007 1.172-.708 1.19-.426 1.178-.162 1.137 .022 1.108 .197 1.076 .362 1.04 .591 .988 .58 .802 .58 .802L.537 .022C.537 .022 .524-.15 .377-.16 .247-.169 .169-.171 .169-.171 .169-.171 .058-.183 0 0" fill="#ffffff"/>
<path transform="matrix(1,0,0,-1,71.0317,93.5254)" d="M0 0C-.095 .167-.104 .199-.167 .317-.248 .465-.323 .497-.519 .521-.596 .53-.677 .529-.761 .526-.896 .523-1.039 .5-1.191 .458-1.469 .381-1.708 .263-1.906 .104-2.104-.056-2.258-.253-2.364-.49-2.471-.728-2.526-1.004-2.533-1.316-2.539-1.63-2.49-1.978-2.384-2.357-2.16-3.166-1.827-3.719-1.385-4.018-.943-4.316-.4-4.376 .245-4.196 .434-4.145 .627-4.065 .828-3.96 .998-3.869 1.186-3.748 1.4-3.609 1.511-3.537 1.565-3.619 1.565-3.619L1.623-3.707C1.623-3.707 1.687-3.809 1.614-3.886 1.45-4.058 1.248-4.223 1.008-4.381 .731-4.565 .401-4.71 .019-4.816-.349-4.918-.706-4.964-1.053-4.953-1.401-4.942-1.723-4.861-2.02-4.708-2.316-4.555-2.581-4.321-2.814-4.011-3.048-3.699-3.234-3.293-3.373-2.792-3.514-2.287-3.56-1.831-3.512-1.424-3.463-1.018-3.341-.66-3.145-.35-2.948-.04-2.687 .223-2.359 .438-2.031 .651-1.655 .817-1.23 .936-.942 1.016-.664 1.063-.397 1.078-.211 1.089-.034 1.094 .135 1.093 .371 1.092 .398 .906 .398 .906L.521 .135C.521 .135 .543-.036 .402-.077 .277-.112 .201-.132 .201-.132 .201-.132 .095-.166 0 0" fill="#ffffff"/>
<path transform="matrix(1,0,0,-1,78.0674,92.1465)" d="M0 0-2.511 1.139C-2.563 1.162-2.65 1.168-2.704 1.151L-3.081 1.034C-3.136 1.018-3.203 1.044-3.231 1.093L-3.297 1.21C-3.326 1.26-3.308 1.322-3.259 1.352L-1.452 2.38C-1.403 2.408-1.339 2.391-1.311 2.342L-1.245 2.225C-1.216 2.176-1.228 2.104-1.27 2.065L-1.494 1.859C-1.536 1.821-1.528 1.77-1.477 1.745L.313 .894 .533 2.891C.539 2.948 .5 2.98 .445 2.964L.133 2.865C.078 2.848 .011 2.874-.018 2.924L-.083 3.04C-.112 3.09-.094 3.153-.045 3.182L1.386 3.996C1.435 4.024 1.499 4.007 1.527 3.958L1.593 3.841C1.622 3.792 1.609 3.721 1.567 3.683L1.24 3.396C1.197 3.357 1.157 3.281 1.151 3.225L.874 .685 3.655-.61C3.707-.634 3.794-.64 3.849-.623L4.233-.502C4.287-.485 4.354-.512 4.383-.562L4.449-.678C4.477-.727 4.459-.791 4.41-.819L2.597-1.853C2.547-1.88 2.484-1.863 2.456-1.813L2.389-1.697C2.361-1.647 2.373-1.576 2.415-1.538L2.659-1.318C2.701-1.281 2.694-1.229 2.643-1.205L.553-.204 .299-2.541C.293-2.598 .333-2.63 .387-2.614L.685-2.522C.739-2.506 .807-2.532 .835-2.582L.902-2.698C.93-2.748 .913-2.811 .863-2.84L-.575-3.658C-.624-3.687-.688-3.669-.716-3.62L-.782-3.504C-.811-3.454-.798-3.383-.756-3.345L-.429-3.058C-.386-3.021-.346-2.943-.339-2.887Z" fill="#ffffff"/>
<path transform="matrix(1,0,0,-1,84.2886,84.512699)" d="M0 0C.038-.043 .04-.115 .005-.159L-.265-.509C-.3-.554-.297-.626-.26-.668L2.749-4.079C2.787-4.122 2.857-4.134 2.907-4.104L3.287-3.88C3.335-3.852 3.406-3.862 3.444-3.905L3.533-4.005C3.57-4.048 3.566-4.113 3.523-4.151L1.977-5.516C1.934-5.554 1.868-5.55 1.83-5.507L1.742-5.406C1.704-5.364 1.702-5.292 1.737-5.247L2.007-4.898C2.042-4.854 2.04-4.781 2.002-4.738L-1.007-1.327C-1.044-1.284-1.115-1.272-1.165-1.302L-1.544-1.526C-1.594-1.556-1.665-1.544-1.702-1.501L-1.791-1.401C-1.828-1.358-1.824-1.293-1.782-1.255L-.234 .109C-.192 .147-.126 .143-.088 .101Z" fill="#ffffff"/>
<path transform="matrix(1,0,0,-1,29.4727,30.4814)" d="M0 0C-.039-.042-.068-.067-.068-.067L-1.711 1.486-1.417 1.791C-1.377 1.833-1.312 1.899-1.271 1.938-1.271 1.938-1.092 2.113-.966 2.207-.84 2.3-.711 2.36-.58 2.389-.448 2.416-.313 2.407-.173 2.361-.034 2.314 .11 2.22 .26 2.078 .586 1.768 .74 1.466 .723 1.172 .705 .878 .332 .367 .332 .367 .298 .321 .238 .25 .199 .209ZM3.51-.577C3.566-.587 3.644-.563 3.683-.521L4.543 .383C4.583 .425 4.581 .49 4.54 .529L4.442 .622C4.401 .662 4.329 .667 4.282 .635L3.955 .407C3.908 .374 3.824 .355 3.768 .364L1.2 .782C1.144 .791 1.117 .841 1.141 .893 1.141 .893 1.456 1.57 1.443 1.923 1.43 2.275 1.272 2.596 .97 2.884 .754 3.089 .536 3.208 .317 3.242 .097 3.274-.117 3.252-.326 3.174-.535 3.097-.736 2.979-.93 2.823-1.124 2.667-1.398 2.396-1.398 2.396-1.438 2.356-1.504 2.29-1.543 2.249L-3.054 .662C-3.093 .62-3.091 .555-3.05 .516L-2.953 .423C-2.912 .384-2.84 .378-2.793 .411L-2.431 .672C-2.384 .705-2.313 .7-2.271 .661L1.032-2.483C1.073-2.522 1.082-2.594 1.051-2.642L.809-3.017C.778-3.064 .787-3.136 .828-3.176L.925-3.269C.967-3.308 1.032-3.306 1.072-3.265L2.487-1.777C2.526-1.736 2.524-1.671 2.483-1.631L2.386-1.538C2.344-1.499 2.273-1.494 2.227-1.527L1.87-1.782C1.823-1.814 1.751-1.811 1.71-1.771L.188-.322 .414-.085C.453-.044 .531-.019 .587-.029Z" fill="#ffffff"/>
</g>
</g>
</g>
</svg>
